<?xml version="1.0" encoding="UTF-8"?>
<!DOCTYPE svg PUBLIC "-//W3C//DTD SVG 1.1//EN" "http://www.w3.org/Graphics/SVG/1.1/DTD/svg11.dtd">
<!-- Creator: CorelDRAW X7 -->
<svg xmlns="http://www.w3.org/2000/svg" xml:space="preserve" width="297mm" height="210mm" version="1.1" style="shape-rendering:geometricPrecision; text-rendering:geometricPrecision; image-rendering:optimizeQuality; fill-rule:evenodd; clip-rule:evenodd"
viewBox="0 0 29700 21000"
 xmlns:xlink="http://www.w3.org/1999/xlink">
 <defs>
  <style type="text/css">
   <![CDATA[
    .fil0 {fill:#020202}
    .fil14 {fill:#070217}
    .fil22 {fill:#3C3C3C}
    .fil7 {fill:#3C6C3C}
    .fil21 {fill:#475231}
    .fil15 {fill:#4C4C4C}
    .fil38 {fill:#507031}
    .fil12 {fill:#5C5C5C}
    .fil37 {fill:#5E681D}
    .fil6 {fill:#65A444}
    .fil34 {fill:#687351}
    .fil31 {fill:#72916D}
    .fil11 {fill:#747474}
    .fil35 {fill:#778715}
    .fil33 {fill:#7CC637}
    .fil8 {fill:#848484}
    .fil4 {fill:#89C64F}
    .fil20 {fill:#92935B}
    .fil24 {fill:#949494}
    .fil27 {fill:#95B093}
    .fil9 {fill:#95BA68}
    .fil26 {fill:#A7AAA6}
    .fil16 {fill:#A8C4A9}
    .fil10 {fill:#A9CC70}
    .fil36 {fill:#ADB570}
    .fil23 {fill:#B0CF8F}
    .fil28 {fill:#B5E8D7}
    .fil30 {fill:#BBBBBB}
    .fil3 {fill:#BEF7F0}
    .fil29 {fill:#C8D4B5}
    .fil18 {fill:#CAD757}
    .fil2 {fill:#D1DF42}
    .fil19 {fill:#D1E52B}
    .fil25 {fill:#D1ECB0}
    .fil17 {fill:#D2ECCE}
    .fil32 {fill:#D4D4D4}
    .fil13 {fill:#E8F9D9}
    .fil1 {fill:#EBEBEB}
    .fil5 {fill:#FDFEFE}
   ]]>
  </style>
 </defs>
 <g id="Layer_x0020_1">
  <metadata id="CorelCorpID_0Corel-Layer"/>
  <g id="_1955811106592">
   <path class="fil0" d="M19498 13679c15,-73 -9,-24 38,-93 22,-32 38,-46 63,-71 35,-36 87,-86 135,-109 104,-50 1313,-42 1417,-7 -20,44 3,17 -40,67 -14,15 -31,27 -42,37 -36,33 -47,42 -79,79 -108,125 -413,482 -533,505 -183,35 -1145,16 -1373,1 53,-102 214,-239 309,-331l105 -78zm-1632 -1887c40,-134 83,-228 104,-380 18,-133 27,-295 85,-397 238,53 587,274 665,452 -94,85 -674,303 -854,325zm7190 -1971l70 -100 39 -17 0 839 -171 173c-206,-338 -143,-623 62,-895zm-967 -11l10 -109 74 91c255,277 272,749 73,915l-99 -93c-35,-41 -38,-40 -60,-99l2 -705zm-611 600c120,129 428,389 526,554 -91,99 -292,158 -469,128 -421,-72 -882,-664 -896,-857 719,1 615,-66 839,175zm1769 554c39,-78 58,-90 122,-146 63,-55 72,-77 134,-132 331,-297 311,-456 594,-452 173,3 346,-2 518,2 -5,232 -809,1232 -1368,728zm-2131 -1164c10,-106 -22,-43 74,-88l32 104 -106 -16zm3180 95c57,-125 204,-249 293,-345 52,-57 100,-107 145,-149 76,-71 92,-96 173,-148 -16,252 -86,409 -121,637l-490 5zm-3929 -643c96,75 543,551 592,641l-494 -2c-51,-264 -142,-541 -98,-639zm-1390 3434l8 467c-117,21 -244,13 -364,11 -62,-1 -124,-3 -186,-4l-162 -29c-159,16 -196,-67 -268,-147 -240,-267 -342,-403 -524,-746 -358,-671 -161,-509 18,-1259 103,-430 241,-884 351,-1340l332 -1353 68 -59c74,-60 139,-124 232,-179 57,-34 18,-30 70,-2l705 880c216,358 -278,649 -430,1026 -122,301 2,628 166,773 296,262 503,97 888,174 128,26 225,164 189,326 -32,147 -130,171 -262,241 -459,243 -871,741 -831,1220zm5581 -3608c-58,114 -245,277 -346,387 -156,171 -193,229 -363,361l-196 208c-48,67 -88,116 -158,155l13 -791c39,-108 781,-413 1031,-389 25,-15 -3,-8 65,-28 22,-6 31,-2 67,3l-113 94zm-2801 1107c-107,-60 -236,-222 -322,-313 -112,-119 -171,-182 -291,-293 -32,-30 -49,-50 -77,-81l-481 -501c302,-69 1036,266 1171,406l0 782zm-9004 883c-59,-63 -41,-12 -32,-104 42,-18 10,-25 80,-22 126,5 44,10 73,35 263,24 1343,451 1694,597 778,324 851,604 1704,291 181,-66 413,-138 534,-230 160,-123 189,-260 264,-477 291,-851 949,-4141 1400,-4681l99 95c-45,376 -363,1005 -496,1384 -186,531 -501,2125 -761,2972l-490 1358c-505,36 -1721,-325 -2174,-477 -322,-108 -646,-239 -951,-363 -142,-57 -886,-307 -944,-378zm3092 126c-1,66 -5,115 -14,181 -4,29 -8,61 -17,89 -31,94 -3,16 -32,57l-62 272c-339,-58 -512,-173 -785,-291 -349,-152 -1173,-412 -1576,-545 -230,-76 -581,-161 -751,-272 -19,-187 50,-258 135,-386 64,-96 121,-193 162,-317 77,-230 106,-519 165,-785 125,-575 341,-897 509,-1396 168,-501 258,-1019 411,-1516 79,-257 177,-451 245,-712 52,-201 113,-621 206,-750 123,30 337,149 458,204l1485 505c320,115 674,212 1005,320 225,73 591,208 800,331 60,35 58,36 96,72 -74,464 -640,1601 -802,2431 -89,457 -489,2246 -661,2579 -247,-91 -601,-421 -904,-381 -54,88 -74,171 -73,310zm2728 5167c-104,35 -46,19 -145,84l3 458 -1527 7c-49,-272 -29,-682 -24,-971 5,-317 84,-823 -111,-823l-50 19c-153,152 27,1432 -66,1769 -95,10 -2863,72 -3067,-8 -116,-45 -38,-2031 -48,-2310 1,-57 1,-153 13,-208 16,-71 18,-66 94,-76 117,-16 248,-4 373,-19 39,-48 59,-52 43,-109 -16,-55 -65,-66 -133,-77 -125,-20 -269,7 -387,-16 -170,-41 -159,-67 -251,-183 -140,-208 -413,-360 -465,-523l2965 1c64,59 82,37 80,102 106,55 137,110 194,167 144,152 312,257 408,440 -578,36 -1392,-7 -2006,-1 -124,1 -157,-1 -184,93l26 125c360,-5 780,30 1165,27 383,-3 815,-27 1192,-7l11 469c13,-25 5,-23 14,-96l78 44c104,48 -59,33 34,9 37,-84 32,-224 -44,-274l-68 -44c84,-39 41,-18 153,-8 39,-98 0,-44 44,-112l1551 7 3 1766c84,43 42,37 150,40 58,-40 39,-5 48,-79l-4 -926c142,-56 3787,-25 4458,-25 445,0 1088,38 1509,-9 45,-10 0,5 52,-15 5,-2 26,-15 33,-19 36,-142 50,-217 -83,-269 -399,-29 -1537,53 -1813,-21 -19,-106 -10,-221 -10,-330 0,-98 -31,-252 41,-310 96,-188 297,-187 240,-455 -89,-77 -143,-87 -261,-31 -14,-112 -12,-229 -10,-342 3,-163 14,-130 103,-225 214,-228 731,-1114 647,-1287l-99 -93c-218,-4 -212,108 -273,280 -32,90 -120,307 -181,347l-22 48c-46,105 -89,191 -176,259l1 -246 1 -29 -2 -879c29,-91 144,-203 223,-243 260,151 349,247 741,208 549,-105 957,-592 1178,-1037 154,-311 512,-1442 228,-1756 -306,-45 -663,-3 -940,65 -318,77 -475,175 -724,276l-209 142c-65,49 -110,90 -177,143 -48,39 -103,97 -161,152 -59,58 -77,105 -144,171 -1,45 12,35 -30,35 -41,86 -88,156 -119,236 -49,36 85,50 -44,25l-27 -59 -129 -234 -31 -25c0,0 -21,-22 -26,-28l-106 -129c-225,-238 -299,-249 -500,-398 -37,-28 -16,-12 -42,-42 -116,-30 -226,-103 -349,-148 -315,-117 -1110,-292 -1318,-174 -186,185 -53,887 16,1153 95,368 229,637 413,912 168,252 429,509 712,637 429,194 705,73 1021,-127 105,65 139,126 213,185l3 938 8 577c-98,-47 -37,-20 -110,-86 -127,-116 -272,-33 -286,93 -15,126 143,220 255,369 17,12 22,12 41,29 29,27 16,17 40,48 119,125 18,1114 63,1384l-3833 1c1,-399 -25,-519 219,-733 118,18 267,97 402,138 883,272 1793,174 2598,-255 147,-78 254,-88 227,-313 -60,-56 -78,-98 -179,-85 -80,10 -694,420 -1305,442 20,-138 391,-980 468,-1096 510,-763 1308,2 1274,-507 -44,-144 -130,-149 -283,-177 -252,-25 -334,-25 -584,11 -783,136 -949,1187 -1254,1782 -217,18 -492,-20 -671,-83l-114 -406c351,-314 -56,-336 -118,-352 -83,-489 50,-851 292,-1117 236,-258 723,-290 769,-706 25,-170 16,-206 -19,-366 -79,-501 -878,-351 -1043,-403 -156,-50 -268,-257 -184,-455 39,-94 216,-327 288,-430 49,-72 122,-163 150,-222 245,-511 -173,-850 -429,-1182 -81,-105 -267,-303 -311,-403 92,-86 269,-141 371,-179 1068,-406 1564,45 1523,-397 -53,-123 -108,-121 -256,-131 -339,-23 -714,13 -1033,96 -404,104 -738,265 -1055,470l-61 40c16,-100 -3,-30 40,-56 79,-313 327,-836 399,-1133 44,-178 -73,-201 -242,-226 -65,-286 -112,-278 -371,-394 -174,-78 -349,-141 -531,-208 -781,-287 -2086,-660 -2756,-950 -227,-98 -524,-347 -628,2 -20,67 -34,145 -48,215 -214,1038 -445,1806 -833,2819 -104,270 -225,493 -318,742 -223,593 -233,1090 -476,1612 -216,462 -218,431 25,695 -94,510 282,429 905,685 856,352 1477,650 2446,812 245,40 462,83 692,125 343,62 341,-79 456,-292 182,282 221,498 540,863 76,86 41,7 71,108 -320,254 -732,742 -924,854 -163,-105 -231,-224 -349,-346 -572,-592 -399,-522 -1450,-522 -441,0 -882,-1 -1323,-1 -293,0 -1067,-63 -1236,68 5,258 860,893 917,1032 25,589 -92,2441 35,2853 492,128 2019,43 2639,43 217,0 2368,43 2568,-32 166,-62 113,-645 3,-748z"/>
   <path class="fil1" d="M15169 10178c140,134 93,154 373,160 522,10 365,168 818,235 108,16 282,103 256,250 -156,18 -190,-77 -353,-103 -594,-97 -12,-105 -749,-225 -204,-34 -212,-49 -343,-159l-2 -158zm152 -287c150,56 139,117 378,122 212,5 233,24 386,115 163,98 759,116 582,375 -140,-27 -101,-107 -332,-130 -422,-41 -148,-149 -712,-234 -94,-14 -196,-35 -265,-102 -92,-89 -22,-1 -50,-81 -36,-44 -27,12 -36,-94 99,-4 14,-8 49,29zm597 -1292c2,-26 3,-75 10,-102 24,-85 28,-59 42,-78 77,-350 366,-710 585,-859 336,-229 716,-297 1194,-184 1036,246 1535,1733 476,2699 -246,225 -699,334 -1113,223 -429,-115 -564,-241 -811,-464 -360,-326 -408,-673 -383,-1235zm622 -2402c182,213 323,246 695,265 465,25 385,156 724,261 135,42 255,57 382,117 116,54 194,113 333,149 294,77 451,64 712,224 48,33 23,-51 61,74 -36,35 -29,50 -98,58 -164,18 -52,3 -100,-41 -133,-34 -211,-86 -383,-117 -143,-26 -266,-45 -378,-94 -125,-54 -190,-107 -328,-149 -119,-36 -253,-65 -363,-114 -444,-198 -47,-165 -721,-226 -293,-26 -525,-106 -585,-362l-27 -76c144,-10 30,-10 76,31zm114 -330c112,16 204,84 348,115 135,29 276,39 417,61 305,49 384,200 623,304 232,101 490,104 735,216 445,204 632,29 661,274 -263,106 -765,-181 -1015,-238 -173,-39 -351,-69 -492,-140 -112,-57 -311,-219 -408,-204l-313 -90c-243,4 -536,-127 -605,-280 -45,-49 -20,64 -40,-69l89 51zm3032 667c-192,15 -580,-154 -812,-198 -701,-133 -594,-266 -1527,-507 -151,-39 -608,-174 -659,-337 204,19 567,166 796,220 314,74 488,123 744,262 365,199 387,133 794,236 119,30 266,86 382,124 135,44 285,52 282,200zm-1904 4987l63 -327c-1,-139 19,-222 73,-310 303,-40 657,290 904,381 172,-333 572,-2122 661,-2579 162,-830 728,-1967 802,-2431 -38,-36 -36,-37 -96,-72 -209,-123 -575,-258 -800,-331 -331,-108 -685,-205 -1005,-320l-1485 -505c-121,-55 -335,-174 -458,-204 -93,129 -154,549 -206,750 -68,261 -166,455 -245,712 -153,497 -243,1015 -411,1516 -168,499 -384,821 -509,1396 -59,266 -88,555 -165,785 -41,124 -98,221 -162,317 -85,128 -154,199 -135,386 170,111 521,196 751,272 403,133 1227,393 1576,545 273,118 446,233 785,291l62 -272z"/>
   <path class="fil2" d="M17790 16216c-127,-35 15,111 -31,-42 -47,-152 -25,24 32,-48l-1 90zm-1463 -210l-19 93c-76,-5 -94,9 -139,-30 26,-30 -13,4 36,-27 4,-3 12,-7 15,-10 90,-54 -6,-25 107,-26zm-517 -84c34,-34 22,-27 69,-69 38,-35 20,-24 59,-45 57,105 2,119 -128,114zm1099 -305c24,-45 41,-76 61,-130l79 2 -47 132 -93 -4zm-667 -81c78,-47 120,-135 222,-119 91,13 406,350 422,399 50,160 -103,191 -220,87l-56 -55c-30,-29 -34,-32 -58,-58 -54,287 177,463 339,570 109,76 170,100 157,271 -73,10 -196,24 -224,-48 -246,-22 -483,-566 -483,-566 -1,-8 -9,-7 -14,-11l21 -77c-6,-5 -28,-19 -33,-22 -4,-2 -17,-1 -20,-10 -4,-11 -15,-7 -23,-11 -56,92 -96,140 -249,100 -35,-182 66,-208 121,-329l-74 -9c58,-113 -5,-50 -81,-172 -2,-4 -7,-11 -9,-15 -2,-3 -7,-12 -8,-15l-17 -29c138,8 -14,59 102,8 -15,173 -35,107 66,169 76,-50 46,-52 80,-128 38,26 15,-30 39,70zm1676 -523c2,2 191,8 -48,185l79 83c26,60 50,10 -26,52 53,109 6,275 45,424 68,-114 -3,-176 90,-316 118,17 87,12 144,83 58,159 15,382 -42,545 -68,196 -141,270 -268,399 27,32 -19,12 65,54 72,-7 181,-34 217,59 67,173 -62,162 -64,164 -309,-17 -368,5 -673,-111 -20,-115 7,-267 29,-380 31,-163 33,-261 165,-309 139,56 90,134 85,283 -14,58 -33,70 14,70 142,-74 227,-237 246,-465l-63 16c8,-17 10,11 21,-68l0 -160c0,-42 7,-93 1,-134 -15,-105 -22,-74 -39,-104 -82,52 -61,-25 -65,158l14 347c-42,100 71,-24 -55,50 69,-192 42,-412 -26,-608l-159 -25 -93 -6c-111,20 -307,72 -244,-120 30,-92 175,-72 249,-164 -360,-249 -650,209 -882,126 -47,-228 157,-313 334,-366 226,-69 396,-37 622,1 -42,-184 -110,-308 120,-296 98,131 146,357 207,533zm-1795 -927c7,-3 59,-21 64,-21 24,-4 -31,-48 52,19 -77,46 -42,30 -89,56 18,114 30,100 10,192l-63 -2c5,-137 1,28 20,-107 8,-51 6,-86 6,-137zm-833 -188c3,-4 121,-86 208,95 13,25 24,42 43,88 118,23 262,-4 387,16 68,11 117,22 133,77 16,57 -4,61 -43,109l-20 67 -404 9c-23,132 -3,132 -56,227 10,279 -68,2265 48,2310 204,80 2972,18 3067,8 93,-337 -87,-1617 66,-1769 -58,-69 -67,114 -45,-92 127,-47 33,-6 62,-49 51,-75 -27,-4 33,-47l2 66c1,5 4,12 5,16 2,7 14,34 17,40l-24 47c195,0 116,506 111,823 -5,289 -25,699 24,971l1527 -7 -3 -458 36 -188c-1,-72 -15,-104 -23,-174l-3 -1766 -1551 -7c2,120 3,240 3,360 1,142 20,191 -95,204 -30,90 10,33 -52,85 -60,-49 -69,79 -38,-90l-29 -78 -11 -469c-377,-20 -809,4 -1192,7 -385,3 -805,-32 -1165,-27 -53,-27 -31,19 -45,-60 -19,-104 10,-47 19,-65 27,-94 60,-92 184,-93 614,-6 1428,37 2006,1 -96,-183 -264,-288 -408,-440 -71,16 -128,-14 -210,-64l16 -103c2,-65 -16,-43 -80,-102l-2965 -1c52,163 325,315 465,523z"/>
   <path class="fil3" d="M22362 10937c38,52 48,76 56,159 4,43 8,64 3,108 -11,99 -3,61 -40,99 -46,416 -533,448 -769,706 -242,266 -375,628 -292,1117 62,16 469,38 118,352l114 406c179,63 454,101 671,83 305,-595 471,-1646 1254,-1782 68,-46 164,-55 266,-59 62,-3 99,4 159,8l159 40c153,28 239,33 283,177l118 -6 -3 -938c-74,-59 -108,-120 -213,-185 -316,200 -592,321 -1021,127 -283,-128 -544,-385 -712,-637 -184,-275 -318,-544 -413,-912 -69,-266 -202,-968 -16,-1153 208,-118 1003,57 1318,174 123,45 233,118 349,148l-33 -314c-239,-30 -191,-217 -166,-445 24,-217 70,-363 122,-555 -70,-57 -133,-90 -222,-128 -13,-184 58,53 -20,-108 -4,-9 -12,-16 -16,-24 -5,-9 -12,-18 -19,-25 25,252 -145,344 -314,157l7 -131c-69,-17 -90,-15 -190,-29 -177,-26 -84,7 -173,-101 41,442 -455,-9 -1523,397 -102,38 -279,93 -371,179 44,100 230,298 311,403 256,332 674,671 429,1182 -28,59 -101,150 -150,222 -72,103 -249,336 -288,430 -84,198 28,405 184,455 165,52 964,-98 1043,403z"/>
   <path class="fil4" d="M20250 8227c3,8 105,-53 -6,60 -124,126 -47,15 -62,-1l-332 1353c-110,456 -248,910 -351,1340 -179,750 -376,588 -18,1259 182,343 284,479 524,746 72,80 109,163 268,147l695 6c-9,-117 -58,-349 9,-451 -40,-479 372,-977 831,-1220 132,-70 230,-94 262,-241 36,-162 -61,-300 -189,-326 -385,-77 -592,88 -888,-174 -164,-145 -288,-472 -166,-773 152,-377 646,-668 430,-1026l-705 -880c-5,5 -14,11 -18,12 -4,1 -15,5 -18,6 -46,10 -46,29 -34,-16 -93,55 -158,119 -232,179z"/>
   <path class="fil4" d="M17652 9410c29,63 7,47 61,91 89,-10 94,18 182,-23l19 -100 120 -40c115,-157 12,-791 203,-489 106,169 77,410 -4,573 -30,61 -48,80 -89,127 -137,156 -322,167 -539,124 -33,88 -20,125 -18,213 -61,9 -150,61 -209,-117 -31,-90 -77,-246 -55,-331 27,-100 313,-336 478,-256 15,124 -61,192 -149,228zm-1122 -52c-55,-10 -21,15 -89,-28 1,-9 -5,79 -8,-27 -4,-116 -9,-33 12,-69 -203,-385 38,-495 108,-677 -113,-69 -161,-44 -133,-208 156,-43 424,-5 501,123 43,71 41,175 41,270 0,39 0,112 -6,148 -5,31 -23,77 -29,116l-116 -24 -72 -266c-156,88 -249,295 -76,465 70,69 107,95 194,153 118,78 152,79 190,175 -156,127 -309,7 -463,-117 -40,-32 -27,-23 -54,-34zm590 -1109c-23,88 -121,66 -203,47l-33 -82 98 -34c46,-57 75,-140 177,-202 81,-49 193,-95 313,-103 294,-20 422,83 498,321 167,24 92,-26 178,-58 45,-17 62,-17 96,15 59,55 24,176 10,230l-30 23c-1,1 -34,39 -37,43 -27,33 -33,46 -57,77 -133,165 -213,167 -424,67l-212 -142 31 -136 212 -49c-9,-49 17,-75 -58,-109 -95,-43 2,-20 -80,21l-31 -99c-194,-5 -315,68 -448,170zm19 -442l162 9c-115,16 -68,39 -69,40 -20,13 -47,24 -81,47l-12 -96zm-211 -257c-356,122 -518,302 -685,623 -256,494 -265,1044 103,1484 304,362 928,628 1430,470 935,-294 1217,-1851 256,-2425 -237,-141 -788,-260 -1104,-152z"/>
   <path class="fil0" d="M24025 7684c51,-180 305,-621 433,-733l1 1183c-87,-41 -377,-352 -434,-450zm775 -716c109,97 205,255 276,398 -43,82 -81,105 -136,166 -100,111 -35,74 -152,134l12 -698zm319 132c-11,103 -16,40 -53,63 -75,-161 -3,-140 0,-144 45,28 62,-4 53,81zm-1445 555c-52,192 -98,338 -122,555 -25,228 -73,415 166,445 182,-82 153,-132 174,-566 100,55 209,176 293,266 83,89 183,189 276,271 -2,248 -68,825 324,495l5 -973c137,-70 320,-332 435,-417 4,5 12,5 14,15 1,9 10,12 12,15 25,46 7,6 26,57 174,471 -6,766 261,837 259,-16 162,-286 158,-499l-49 -218c-73,-538 -624,-1336 -906,-1544 -170,-126 -270,35 -359,129 -447,466 -450,592 -708,1132z"/>
   <path class="fil5" d="M24086 13597c27,225 -80,235 -227,313 -805,429 -1715,527 -2598,255 -135,-41 -284,-120 -402,-138 -244,214 -218,334 -219,733l3833 -1c-45,-270 56,-1259 -63,-1384l-87 9c-27,37 -81,82 -115,109 -75,57 -61,23 -122,104z"/>
   <path class="fil5" d="M14874 10977l-138 -11 17 102c58,71 802,321 944,378 305,124 629,255 951,363 453,152 1669,513 2174,477l490 -1358c260,-847 575,-2441 761,-2972 133,-379 451,-1008 496,-1384l-99 -95c-451,540 -1109,3830 -1400,4681 -75,217 -104,354 -264,477 -121,92 -353,164 -534,230 -853,313 -926,33 -1704,-291 -351,-146 -1431,-573 -1694,-597z"/>
   <path class="fil6" d="M23718 8655l33 314c26,30 5,14 42,42 201,149 275,160 500,398l106 129c5,6 26,28 26,28l31 25 276 -5 44 -38c65,-11 3,-10 29,40 67,-66 85,-113 144,-171 58,-55 113,-113 161,-152 67,-53 112,-94 177,-143l209 -142 42 -325c-267,-71 -87,-366 -261,-837 -19,-51 -1,-11 -26,-57 -2,-3 -11,-6 -12,-15 -2,-10 -10,-10 -14,-15 -115,85 -298,347 -435,417l-5 973c-392,330 -326,-247 -324,-495 -93,-82 -193,-182 -276,-271 -84,-90 -193,-211 -293,-266 -21,434 8,484 -174,566z"/>
   <path class="fil4" d="M24086 13597c61,-81 47,-47 122,-104 34,-27 88,-72 115,-109l6 -86c-112,-149 -270,-243 -255,-369 14,-126 159,-209 286,-93 73,66 12,39 110,86l-8 -577 -118 6c34,509 -764,-256 -1274,507 -77,116 -448,958 -468,1096 611,-22 1225,-432 1305,-442 101,-13 119,29 179,85z"/>
   <path class="fil0" d="M16928 7550c316,-108 867,11 1104,152 961,574 679,2131 -256,2425 -502,158 -1126,-108 -1430,-470 -368,-440 -359,-990 -103,-1484 167,-321 329,-501 685,-623zm-958 869l-52 180c-25,562 23,909 383,1235 247,223 382,349 811,464 414,111 867,2 1113,-223 1059,-966 560,-2453 -476,-2699 -478,-113 -858,-45 -1194,184 -219,149 -508,509 -585,859z"/>
   <path class="fil2" d="M20494 13923c1,-136 6,-153 150,-153 -13,45 -12,53 -57,99 -51,51 -46,42 -93,54zm-996 -244l99 11c-29,93 -36,113 -137,139l38 -150zm0 0l-105 78c-95,92 -256,229 -309,331 228,15 1190,34 1373,-1 120,-23 425,-380 533,-505 32,-37 43,-46 79,-79 11,-10 28,-22 42,-37 43,-50 20,-23 40,-67 -104,-35 -1313,-43 -1417,7 -48,23 -100,73 -135,109 -25,25 -41,39 -63,71 -47,69 -23,20 -38,93z"/>
   <path class="fil6" d="M24004 10964c-98,-165 -406,-425 -526,-554 -224,-241 -120,-174 -839,-175 14,193 475,785 896,857 177,30 378,-29 469,-128z"/>
   <path class="fil6" d="M25247 10964c559,504 1363,-496 1368,-728 -172,-4 -345,1 -518,-2 -283,-4 -263,155 -594,452 -62,55 -71,77 -134,132 -64,56 -83,68 -122,146z"/>
   <path class="fil6" d="M23757 10185l0 -782c-135,-140 -869,-475 -1171,-406l481 501c28,31 45,51 77,81 120,111 179,174 291,293 86,91 215,253 322,313z"/>
   <path class="fil7" d="M6649 10433c-219,-247 -29,-806 282,-490l-2 386c-90,101 -87,128 -280,104zm299 -673c-140,-33 -252,-132 -426,-9 -260,186 -217,714 -11,827 178,97 321,18 410,-81 94,118 2,108 219,110l-2 -1308 -202 2c-10,141 -27,334 12,459z"/>
   <path class="fil6" d="M25653 10034l2 -75c62,-43 27,-11 70,-55 49,-50 20,-15 56,-73l68 -5c170,-132 207,-190 363,-361 101,-110 288,-273 346,-387l21 -48 -40 -21c-250,-24 -992,281 -1031,389l-13 791c70,-39 110,-88 158,-155z"/>
   <path class="fil7" d="M9749 9959c55,-46 140,-149 259,-77 160,96 181,742 -268,520l9 -443zm-221 917l192 9 1 -341c122,-20 12,-10 61,29 827,323 621,-1339 -35,-771 -91,-102 -40,-99 -222,-95l3 1169z"/>
   <path class="fil7" d="M7904 9965c492,-458 503,786 -8,418l8 -418zm-212 951l191 -21 18 -346c529,337 779,-588 426,-810 -202,-127 -316,7 -432,62 -16,-25 -44,-74 -60,-93l-136 1 -7 1207z"/>
   <path class="fil7" d="M1833 8865c10,65 6,55 29,103 700,389 1037,-411 523,-620 -184,-75 -339,-51 -307,-299 190,-164 259,-24 453,10l67 -135c-216,-226 -667,-161 -736,133 -116,492 430,379 541,599 25,123 -11,147 -85,217 -297,44 -251,-83 -428,-97l-57 89z"/>
   <path class="fil0" d="M17512 15299l110 -14 145 -85c64,-31 103,-55 152,-78l-1 -109c-61,-176 -109,-402 -207,-533 -230,-12 -162,112 -120,296 -226,-38 -396,-70 -622,-1 -177,53 -381,138 -334,366 232,83 522,-375 882,-126 -74,92 -219,72 -249,164 -63,192 133,140 244,120z"/>
   <path class="fil0" d="M18202 15524c-38,152 7,134 -18,277 -71,-37 -3,30 -69,-81 -68,87 -26,60 -91,77 14,-92 -12,-55 78,-102l42 -21c-18,-89 1,-45 -44,-98l-58 -63 160 11zm-234 233l8 76c-19,228 -104,391 -246,465l-46 38c-5,-76 -7,-23 6,-73l26 -35c5,-149 54,-227 -85,-283 -132,48 -134,146 -165,309 -22,113 -49,265 -29,380 305,116 364,94 673,111 15,-92 32,-90 -27,-166l-126 -57c-84,-42 -38,-22 -65,-54 127,-129 200,-203 268,-399 57,-163 100,-386 42,-545 -57,-71 -26,-66 -144,-83 -93,140 -22,202 -90,316z"/>
   <path class="fil0" d="M19249 7304l166 10 -29 -101c-261,-160 -418,-147 -712,-224 -139,-36 -217,-95 -333,-149 -127,-60 -247,-75 -382,-117 -339,-105 -259,-236 -724,-261 -372,-19 -513,-52 -695,-265 -62,-7 -43,-19 -49,45 60,256 292,336 585,362 674,61 277,28 721,226 110,49 244,78 363,114 138,42 203,95 328,149 112,49 235,68 378,94 172,31 250,83 383,117z"/>
   <path class="fil0" d="M16242 15536c-12,51 25,18 -37,87 -59,65 -32,22 -61,34 -55,121 -156,147 -121,329 153,40 193,-8 249,-100 51,-29 -20,-52 56,-19l20 62 -21 77c5,4 13,3 14,11 0,0 237,544 483,566l113 35c22,-118 52,-88 -20,-145 -43,-33 -47,15 -142,-58l116 -55c-162,-107 -393,-283 -339,-570 24,26 28,29 58,58l56 55c117,104 270,73 220,-87 -16,-49 -331,-386 -422,-399 -102,-16 -144,72 -222,119z"/>
   <path class="fil3" d="M24792 12346c73,-47 66,68 60,-77l136 45c61,-40 149,-257 181,-347 61,-172 55,-284 273,-280l37 -218 220 -9c49,-12 31,-12 55,-28 -392,39 -481,-57 -741,-208 -79,40 -194,152 -223,243l2 879z"/>
   <path class="fil0" d="M19686 6534c3,-148 -147,-156 -282,-200 -116,-38 -263,-94 -382,-124 -407,-103 -429,-37 -794,-236 -256,-139 -430,-188 -744,-262 -229,-54 -592,-201 -796,-220 51,163 508,298 659,337 933,241 826,374 1527,507 232,44 620,213 812,198z"/>
   <path class="fil0" d="M17210 6165c55,5 115,12 171,22 116,21 88,10 142,68 97,-15 296,147 408,204 141,71 319,101 492,140 250,57 752,344 1015,238 -29,-245 -216,-70 -661,-274 -245,-112 -503,-115 -735,-216 -239,-104 -318,-255 -623,-304 -141,-22 -282,-32 -417,-61 -144,-31 -236,-99 -348,-115 -81,-14 -28,-17 -49,18 69,153 362,284 605,280z"/>
   <path class="fil0" d="M16445 9234l85 124c27,11 14,2 54,34 154,124 307,244 463,117 -38,-96 -72,-97 -190,-175 -87,-58 -124,-84 -194,-153 -173,-170 -80,-377 76,-465l72 266 116 24c6,-39 24,-85 29,-116 6,-36 6,-109 6,-148 0,-95 2,-199 -41,-270 -77,-128 -345,-166 -501,-123 -28,164 20,139 133,208 -70,182 -311,292 -108,677z"/>
   <path class="fil0" d="M18034 9338c-48,92 -46,107 -139,140 -88,41 -93,13 -182,23l-74 -26c-28,-127 -10,-23 13,-65 88,-36 164,-104 149,-228 -165,-80 -451,156 -478,256 -22,85 24,241 55,331 59,178 148,126 209,117 -2,-88 -15,-125 18,-213 217,43 402,32 539,-124 41,-47 59,-66 89,-127 81,-163 110,-404 4,-573 -191,-302 -88,332 -203,489z"/>
   <path class="fil0" d="M16982 8180l-8 110 146 -41c133,-102 254,-175 448,-170 172,27 227,110 232,295l-275 -59 -31 136 212 142c211,100 291,98 424,-67 24,-31 30,-44 57,-77 3,-4 36,-42 37,-43l30 -23 -11 -147c-122,-36 -130,11 -215,64l-58 -104c-76,-238 -204,-341 -498,-321 -120,8 -232,54 -313,103 -102,62 -131,145 -177,202z"/>
   <path class="fil7" d="M6096 8336c335,-145 365,474 176,554 -180,77 -282,-24 -307,-179 -28,-171 3,-319 131,-375zm-73 -152c-505,189 -289,1071 304,870 205,-70 324,-292 257,-587 -26,-112 -94,-202 -189,-257 -115,-67 -248,-72 -372,-26z"/>
   <path class="fil7" d="M5662 10046c5,-105 44,-131 111,-195l168 5c56,54 103,91 89,193l-120 4 -248 -7zm544 382c-145,-107 -164,46 -436,4 -76,-84 -122,-113 -109,-249l488 -3c93,-17 40,-11 67,-24 142,-484 -622,-663 -754,-168 -187,703 693,773 744,440z"/>
   <path class="fil7" d="M10654 10049c-26,-264 396,-282 356,2l-356 -2zm550 441l-75 -118c-2,0 -568,240 -476,-190l551 -3c66,-624 -652,-613 -763,-179 -110,435 272,844 763,490z"/>
   <path class="fil7" d="M2425 10512c44,116 38,101 178,87 44,-129 25,-716 12,-889l-190 -5 -14 653c-84,66 -122,101 -283,73 -84,-140 -73,-543 -45,-724l-211 -2c-20,141 -24,633 27,746 125,280 364,143 526,61z"/>
   <path class="fil7" d="M7247 9003c46,-45 -45,-15 41,-45l57 105 158 3 -3 -902 -204 6 -7 669c-128,70 -307,133 -335,-78 -14,-112 12,-409 -10,-595l-192 -2c-14,132 -19,602 13,709 62,209 287,272 482,130z"/>
   <path class="fil7" d="M2947 8509c39,-182 98,-216 294,-188 71,72 76,71 91,192l-279 2 -106 -6zm556 418l-49 -84c-71,1 -530,222 -501,-197l554 -4c94,-595 -644,-640 -757,-178 -149,614 563,784 753,463z"/>
   <path class="fil7" d="M9114 10227l4 163c-370,224 -484,-167 -4,-163zm-459 -374c124,175 113,36 282,9 170,-27 186,95 174,227l-356 68c-216,100 -216,457 93,460 157,1 183,-59 290,-99 58,110 41,95 186,81 -2,-304 49,-695 -118,-841 -80,-70 -178,-79 -306,-59 -52,8 -93,21 -137,43 -71,37 -80,47 -108,111z"/>
   <path class="fil7" d="M3800 10352c19,300 324,330 523,167 75,77 25,97 217,82l-1 -891 -190 -5c-53,163 -7,465 -25,651 -90,82 -274,170 -316,-17 -43,-100 -25,-526 -20,-632l-191 8 3 637z"/>
   <path class="fil7" d="M3063 10607c-31,-162 -29,-505 -5,-672 87,-54 135,-101 259,-61 128,126 77,505 75,728l197 -13 -13 -664c-3,-75 16,10 -6,-56 -25,-76 -76,-136 -157,-161 -143,-44 -256,27 -337,53l-23 42c-39,-29 -22,54 -36,-57 -53,-58 -65,-47 -165,-32l-10 886 221 7z"/>
   <path class="fil7" d="M5306 8703c3,57 19,49 -31,45l-27 -66c-26,-114 -161,-445 -213,-513l-198 1 139 345c305,691 159,438 47,846l202 -6c15,-45 33,-93 52,-137l63 -149c80,-222 332,-753 360,-905l-182 4c-83,106 -175,390 -212,535z"/>
   <path class="fil5" d="M17866 11792c180,-22 760,-240 854,-325 -78,-178 -427,-399 -665,-452 -58,102 -67,264 -85,397 -21,152 -64,246 -104,380z"/>
   <path class="fil7" d="M5137 10356l-53 95c-219,36 -169,-42 -344,-48l-49 118c200,108 534,177 625,-101 56,-174 -21,-263 -136,-313 -149,-64 -270,-51 -261,-201 179,-175 267,109 389,-79 -28,-69 -30,-75 -110,-106 -152,-59 -426,-34 -475,163 -95,380 337,277 414,472z"/>
   <path class="fil6" d="M24025 7684c57,98 347,409 434,450l-1 -1183c-128,112 -382,553 -433,733z"/>
   <path class="fil7" d="M4162 9063l211 -1 -3 -1292 -193 -5c-46,163 -20,1072 -15,1298z"/>
   <polygon class="fil7" points="3704,9076 3913,9066 3912,7760 3710,7766 "/>
   <path class="fil7" d="M11592 9846l-33 -134 -178 -6 3 895 209 1 2 -595c60,-42 62,-50 104,-97l208 -8c12,-136 38,-103 -5,-197 -193,-47 -223,49 -310,141z"/>
   <path class="fil0" d="M16360 10573c-453,-67 -296,-225 -818,-235 -280,-6 -233,-26 -373,-160l2 158c131,110 139,125 343,159 737,120 155,128 749,225 163,26 197,121 353,103 26,-147 -148,-234 -256,-250z"/>
   <path class="fil7" d="M7722 9067l207 -1c5,-354 -46,-507 97,-693l211 -11 32 -192c-190,-42 -266,17 -319,128l-76 -132 -142 -2 -10 903z"/>
   <path class="fil0" d="M15308 9956c28,80 -42,-8 50,81 69,67 171,88 265,102 564,85 290,193 712,234 231,23 192,103 332,130 177,-259 -419,-277 -582,-375 -153,-91 -174,-110 -386,-115 -239,-5 -228,-66 -378,-122l-13 65z"/>
   <path class="fil5" d="M6096 8336c-128,56 -159,204 -131,375 25,155 127,256 307,179 189,-80 159,-699 -176,-554z"/>
   <path class="fil8" d="M20639 16044c53,-67 29,-365 28,-449 -1,-160 3,-319 -4,-478 984,29 2012,2 3001,2l2593 0c140,0 299,26 345,-35 -421,47 -1064,9 -1509,9 -671,0 -4316,-31 -4458,25l4 926z"/>
   <path class="fil6" d="M25056 9821c-205,272 -268,557 -62,895l171 -173 0 -839 -39 17c33,40 40,-64 28,79 -29,16 7,27 -98,21z"/>
   <path class="fil6" d="M24089 9810l-2 705c22,59 25,58 60,99l99 93c199,-166 182,-638 -73,-915 -31,23 46,36 -84,18z"/>
   <path class="fil5" d="M6649 10433c193,24 190,-3 280,-104l2 -386c-311,-316 -501,243 -282,490z"/>
   <path class="fil5" d="M7904 9965l-8 418c511,368 500,-876 8,-418z"/>
   <path class="fil5" d="M9749 9959l-9 443c449,222 428,-424 268,-520 -119,-72 -204,31 -259,77z"/>
   <path class="fil6" d="M22465 9891l494 2c-49,-90 -496,-566 -592,-641 -44,98 47,375 98,639z"/>
   <path class="fil6" d="M26296 9895l490 -5c35,-228 105,-385 121,-637 -81,52 -97,77 -173,148 -45,42 -93,92 -145,149 -89,96 -236,220 -293,345z"/>
   <path class="fil9" d="M1905 6937l219 38c25,205 -35,195 -235,177l16 -215zm-7 -272c123,-6 223,-18 227,95 4,128 -110,110 -236,106l9 -201zm-101 575c311,5 587,-54 338,-350 182,-179 49,-343 -329,-304l-9 654z"/>
   <path class="fil9" d="M7615 6905c65,36 -45,225 68,330 69,-110 25,-305 -3,-439 -158,-29 -55,-82 -236,33 -150,-115 -60,-27 -299,-47l-12 374c17,123 -5,49 47,81 48,-66 24,70 37,-107 12,-171 -62,-300 136,-277 65,140 21,219 35,304 22,134 -22,43 57,80 65,-134 -34,-364 88,-390 94,-19 80,54 82,58z"/>
   <path class="fil6" d="M24788 7666c117,-60 52,-23 152,-134 55,-61 93,-84 136,-166 -71,-143 -167,-301 -276,-398l-12 698z"/>
   <path class="fil1" d="M3063 10607c47,-34 18,20 36,-64l7 -574c316,3 156,-12 221,43l15 505c19,94 6,49 50,85 2,-223 53,-602 -75,-728 -124,-40 -172,7 -259,61 -24,167 -26,510 5,672z"/>
   <path class="fil10" d="M2386 6951c40,-160 190,-158 216,-4l-216 4zm-77 -32c52,10 27,-47 31,29 3,55 46,32 -40,47l-2 1c76,50 17,-51 44,53 35,136 23,28 -26,66 29,54 41,69 66,107 111,23 158,34 261,-3l18 -74 -67 1c-150,43 -183,6 -206,-130l293 -12c-8,-322 -296,-314 -372,-85z"/>
   <path class="fil0" d="M27183 14779c-321,-53 -312,264 -152,314 116,37 200,-43 218,-116 24,-103 -48,-151 -66,-198z"/>
   <path class="fil0" d="M23090 7396l-7 131c169,187 339,95 314,-157 -88,-94 -208,-150 -307,26z"/>
   <path class="fil9" d="M6315 7173c-95,-141 -69,-226 -2,-324 152,-27 194,13 185,174 -8,126 -61,159 -183,150zm-73 -359c-39,61 -29,36 -59,105 -33,419 326,406 390,154l-19 -202c-34,-45 -36,-71 -116,-93 -87,-24 -144,7 -196,36z"/>
   <path class="fil9" d="M4799 7235c108,-51 41,-92 62,-360l146 -41c78,167 30,184 39,296 1,5 7,50 7,50 17,60 10,28 37,60 49,-65 44,-59 41,-218 -6,-356 -111,-192 -356,-243 -3,137 -33,350 24,456z"/>
   <path class="fil9" d="M4404 6886c53,-62 62,-54 171,-49 61,66 35,61 15,130l-194 -15c-40,-120 -9,-32 8,-66zm184 255c-36,38 59,33 -79,40 -67,3 -136,-51 -117,-168l89 -2 203 -4c-33,-331 -307,-307 -371,-76 -76,274 271,428 348,223l-73 -13z"/>
   <path class="fil9" d="M3496 6867l34 -33 115 17c4,7 11,14 13,18 42,107 13,3 10,74 -101,40 -120,32 -220,6 23,-140 -1,-31 48,-82zm175 367c-26,-54 -129,-58 -165,-92 -66,-63 -50,-52 -16,-137l253 2c-1,-389 -472,-265 -367,87 40,132 134,165 295,140z"/>
   <path class="fil11" d="M26604 14781c-34,-23 38,-15 -81,-33l-1719 3 18 -631c-72,58 -41,212 -41,310 0,109 -9,224 10,330 276,74 1414,-8 1813,21z"/>
   <path class="fil12" d="M5315 12936c28,0 59,-5 86,1 106,22 115,154 -96,138l10 -139zm119 -163c34,30 15,-64 37,48l-57 45 -115 23 2 -150c43,-1 32,-7 78,3 54,11 27,9 55,31zm-175 359c186,8 406,-37 217,-227 63,-80 57,-46 38,-171 -81,-42 -122,-48 -249,-39 -50,111 -41,318 -6,437z"/>
   <path class="fil9" d="M8292 7237c125,-73 -6,-173 72,-380 335,-95 68,272 219,381 29,-33 48,40 41,-216l-13 -155c-55,-162 -197,-66 -263,-69 -1,0 -81,-21 -88,-23l32 462z"/>
   <path class="fil9" d="M6680 7247l66 -21 9 -355c261,-113 193,150 196,353l71 20c4,-90 9,-188 5,-276 -13,-299 -197,-156 -285,-164 -7,-1 -53,-18 -68,-21l6 464z"/>
   <path class="fil9" d="M7902 6867c86,-47 96,-35 189,-14l-11 112c-65,26 -4,11 -103,17 -46,3 -73,3 -130,-1l55 -114zm-49 -76c-71,173 -62,268 21,426 107,20 133,59 245,-12l29 -62 -65 23c-177,1 -176,24 -200,-151 106,-4 174,-21 265,13 69,-300 -116,-249 -295,-237z"/>
   <path class="fil5" d="M6315 7173c122,9 175,-24 183,-150 9,-161 -33,-201 -185,-174 -67,98 -93,183 2,324z"/>
   <path class="fil9" d="M5199 6847c33,114 91,340 182,388 77,-43 76,-118 112,-207l68 -173c14,-149 14,-19 -21,-80 -76,61 -88,173 -131,260l-23 87 -32 -55 -101 -271 -55 -8 1 59z"/>
   <path class="fil13" d="M6554 6871l19 202 52 -111c0,446 1,232 55,285l-6 -464c15,3 61,20 68,21 88,8 272,-135 285,164 4,88 -1,186 -5,276l34 -492 -347 -8c-1,-6 -3,-26 -4,-22 -1,4 -3,-18 -4,-24 -29,-145 1,-88 -50,-107l-1 246c-53,52 0,21 -96,34z"/>
   <path class="fil5" d="M2947 8509l106 6 279 -2c-15,-121 -20,-120 -91,-192 -196,-28 -255,6 -294,188z"/>
   <path class="fil5" d="M5662 10046l248 7 120 -4c14,-102 -33,-139 -89,-193l-168 -5c-67,64 -106,90 -111,195z"/>
   <path class="fil5" d="M10654 10049l356 2c40,-284 -382,-266 -356,-2z"/>
   <path class="fil14" d="M18676 14791l29 78 90 5c115,-13 96,-62 95,-204 0,-120 -1,-240 -3,-360 -44,68 -5,14 -44,112 -112,-10 -69,-31 -153,8l68 44c76,50 81,190 44,274 -93,24 70,39 -34,-9l-78 -44c-9,73 -1,71 -14,96z"/>
   <path class="fil13" d="M7615 6905l-11 278c41,184 -6,24 53,101 82,-34 82,-63 132,-91l85 24c-83,-158 -92,-253 -21,-426 -92,23 -74,30 -173,5 28,134 72,329 3,439 -113,-105 -3,-294 -68,-330z"/>
   <path class="fil12" d="M7520 13205c-97,6 -65,-31 -77,-71 79,-37 79,-24 161,-6 -18,39 -1,72 -84,77zm-57 -322c84,-31 22,-28 103,-1 4,142 -119,135 -103,1zm-66 341l78 16c171,17 264,-147 95,-172 -42,-6 -71,2 -110,5 112,-124 101,-12 163,-152 21,-47 1,-23 37,-84 -363,-56 -232,56 -244,221 -8,116 -30,22 -19,166z"/>
   <path class="fil5" d="M9114 10227c-480,-4 -366,387 4,163l-4 -163z"/>
   <path class="fil12" d="M8927 11646l157 -5c-10,35 13,82 -79,82 -82,-1 -63,-61 -78,-77zm139 -167c-107,25 -117,27 -111,-90 131,-9 91,-25 111,90zm-166 254c130,68 238,43 238,-107 -5,-3 -11,-15 -13,-11 -2,5 -11,-8 -14,-10l-155 -30c141,-136 47,97 193,-225 -393,-30 -196,74 -243,251 -17,64 -56,21 -6,132z"/>
   <path class="fil9" d="M3104 6777l-17 95 30 333c97,34 69,42 163,13 -12,-49 3,-12 -23,-39 -42,-43 2,23 -58,-51l-16 -265c13,-2 54,-14 58,-16 38,-20 37,-21 55,-37l-111 -53c-4,-8 -8,-19 -11,-25l-35 -94 -35 139z"/>
   <path class="fil12" d="M9846 13648c39,102 29,180 112,240 66,-91 35,-84 82,-174 2,-4 10,-6 12,-15 1,-10 9,-11 13,-16l64 186c2,-4 10,13 15,20 96,-75 102,-191 122,-318 -100,73 -50,55 -114,222l-88 -216c-82,53 -73,128 -115,211l-60 -210c-68,25 -63,-43 -43,70z"/>
   <path class="fil12" d="M7371 12162c9,-87 16,-38 -35,-54l-65 198c-86,-149 3,-145 -117,-207l-84 213 -66 -220c-37,42 -75,-48 -17,148 19,65 30,112 61,159 92,-32 24,47 73,-68 19,-43 23,-91 31,-129 5,5 12,5 13,15 2,9 11,12 13,16 18,33 9,16 25,56 27,68 9,50 57,118 80,-59 80,-143 111,-245z"/>
   <path class="fil12" d="M10208 12172c106,30 -28,110 84,228l-33 -271c-15,-19 38,-38 -64,-39 -85,0 4,2 -50,15 -62,15 16,13 -49,10 -47,-3 -10,-18 -79,-21 -33,-2 -57,11 -133,4 0,110 -14,213 22,310l29 -42c30,-103 0,-116 23,-209 164,-58 46,120 133,251 57,-120 -10,-168 65,-266l52 30z"/>
   <path class="fil12" d="M9873 12890c152,-69 185,185 6,190 -51,-81 -43,-117 -6,-190zm-80 -47l-2 400c94,-43 58,52 55,-116 154,16 233,-32 212,-198 -5,-37 -15,-99 -101,-109 -64,-8 -33,4 -84,11l-80 12z"/>
   <path class="fil12" d="M1907 12865c96,2 147,-4 144,110 -3,100 -48,111 -136,101 -26,-74 -12,-154 -8,-211zm0 0c-13,-100 10,-118 -45,-182 -50,101 -24,297 -21,424 320,162 341,-348 130,-288 -91,26 -45,23 -64,46z"/>
   <path class="fil12" d="M5163 13630c150,-72 137,100 122,201 -164,22 -154,-60 -122,-201zm132 -50c-211,-11 -249,74 -181,295 274,23 71,-28 243,9 -7,-122 24,-361 -29,-450 -52,60 -34,43 -33,146z"/>
   <path class="fil12" d="M5794 11581c-50,-136 -33,-216 116,-181 19,80 25,118 -17,198l-99 -17zm123 -237c-295,-22 -239,292 -111,308 84,10 51,-25 174,-9l-4 -442c-49,36 -31,-14 -52,56 -6,17 -6,65 -7,87z"/>
   <path class="fil11" d="M6362 12896c76,-44 39,-52 117,0 -23,31 64,42 -64,38 -87,-3 -19,-2 -53,-38zm-48 -68c-46,138 -42,158 2,294 114,23 135,54 225,-19 -40,-32 13,-11 -53,-23 -40,-7 -9,11 -71,-5 -69,-19 -61,-22 -62,-82l193 -11c-8,-141 -83,-231 -234,-154z"/>
   <path class="fil12" d="M11117 11388l114 4c34,140 51,210 -116,209 -16,-65 -9,-159 2,-213zm0 0c-62,-86 -16,-33 -69,-37 -11,118 -32,320 22,405 4,-5 9,-20 10,-17 17,45 16,-30 19,-36 2,-5 6,-14 8,-20 2,-5 6,-15 8,-19 2,-5 5,-14 8,-20l119 7c161,-203 18,-354 -83,-310 -63,28 -13,3 -42,47z"/>
   <path class="fil12" d="M8956 13611l106 52c28,221 -156,248 -142,55l36 -107zm0 0l-94 -40 3 425c110,-61 50,55 63,-109l152 -19c34,-56 78,-141 30,-232 -26,-49 -99,-115 -154,-25z"/>
   <path class="fil12" d="M10782 11384l111 20c39,82 26,133 -3,202l-115 -15 7 -207zm0 0c-61,-87 6,-15 -63,-35l-5 412c78,-44 54,9 56,-118 250,31 258,-174 147,-309 -182,4 -129,43 -135,50z"/>
   <path class="fil12" d="M3688 13078c-65,-123 -49,-217 102,-205 43,119 53,217 -102,205zm-80 -235c-5,97 -29,322 27,395l41 -115 159 6c64,-191 67,-324 -135,-301 -5,1 -13,2 -19,3l-73 12z"/>
   <path class="fil1" d="M2822 6636l102 207c-83,61 33,-59 -49,47 97,-2 120,-18 212,-18l17 -95 21 -145 -72 114 -34 -68c-1,-2 -1,-4 7,-5l-158 -85 -46 48z"/>
   <path class="fil15" d="M8319 13614l105 19c50,342 -237,240 -105,-19zm0 0c-45,-24 -52,-24 -91,-41l2 425c106,-68 49,59 59,-125 61,15 77,30 117,14 127,-52 110,-289 -9,-316 -155,18 -40,0 -78,43z"/>
   <path class="fil3" d="M24585 9825c34,29 17,10 71,34 31,-80 78,-150 119,-236 -2,-47 9,-32 -43,-37l-276 5 129 234z"/>
   <path class="fil12" d="M3824 13633c63,103 12,139 49,253 33,-37 36,33 47,-116 8,-108 -29,-270 -193,-171 -17,-95 9,-98 -39,-167 -49,71 -29,138 -30,231 0,293 4,180 30,227 43,-76 24,-66 30,-148 6,-81 -15,-25 22,-112l84 3z"/>
   <path class="fil12" d="M2195 13658c63,-25 9,-72 128,-8 87,257 -209,240 -128,8zm194 -25c-185,-167 -369,32 -217,246 11,8 278,106 217,-246z"/>
   <path class="fil15" d="M9176 13243c24,-71 31,-122 47,-175l11 -183c164,-62 155,104 89,188 0,63 1,42 -53,54l112 -12c87,-214 56,-311 -143,-283 -5,1 -13,2 -18,3l-61 8c-10,124 -18,326 16,400z"/>
   <path class="fil12" d="M8197 13069c-39,-100 -41,-87 3,-185 198,-61 195,242 -3,185zm127 59c105,-103 85,-163 33,-294 -131,-28 -230,-28 -243,118 -15,162 65,193 210,176z"/>
   <path class="fil12" d="M6254 12404c3,-6 8,-23 9,-20 11,49 -4,-192 44,-229 126,-99 113,199 115,208l18 41c62,-89 38,-200 -3,-298 -80,-26 -84,-14 -164,4 1,-20 6,-67 3,-86 -10,-65 -4,-25 -22,-65 -30,40 -20,-50 -38,88 -3,20 1,106 1,134 -2,320 -1,174 37,223z"/>
   <path class="fil12" d="M3314 11394c41,112 42,257 -111,189 -44,-86 -45,-94 -1,-191l112 2zm11 255c210,-241 -38,-389 -161,-283 -46,40 -149,300 161,283z"/>
   <path class="fil5" d="M1889 7152c200,18 260,28 235,-177l-219 -38 -16 215z"/>
   <path class="fil12" d="M9737 12161c49,166 19,212 -140,190l10 -211 130 21zm69 194c41,-360 -208,-295 -259,-187 -43,89 -10,184 47,221 78,50 144,-1 212,-34z"/>
   <path class="fil15" d="M4558 13612l98 34c28,131 22,196 -112,197 -39,-83 -18,-176 14,-231zm100 265c53,-40 89,-100 62,-211 -7,-29 -24,-68 -62,-83 -123,-46 -98,26 -100,29l-51 -13c-72,26 -35,305 -27,381l55 -122 123 19z"/>
   <path class="fil12" d="M7577 12138c45,28 72,26 70,121 -3,104 -28,99 -120,97 -70,-84 -77,-184 50,-218zm-68 267c107,7 171,-2 194,-99 24,-99 -14,-183 -93,-211 -139,-49 -289,148 -101,310z"/>
   <path class="fil15" d="M4773 12407c57,-89 25,-152 42,-260 214,-32 53,164 169,257 31,-57 23,-211 -20,-303l-154 12c-8,-91 16,-98 -37,-159 -34,60 -37,366 0,453z"/>
   <path class="fil12" d="M5974 13832c-250,39 -185,-257 -19,-195 50,87 33,95 19,195zm-184 -236c-47,170 -33,218 67,293 136,1 233,-53 183,-222 -37,-124 -162,-95 -250,-71z"/>
   <path class="fil5" d="M1889 6866c126,4 240,22 236,-106 -4,-113 -104,-101 -227,-95l-9 201z"/>
   <path class="fil15" d="M9588 11645l24 -251 108 -8c61,132 -13,167 53,263l19 -32c35,-155 24,-320 -187,-256l-8 -160c-43,38 -52,-85 -50,213 0,32 -5,111 -3,135 17,170 0,57 44,96z"/>
   <path class="fil12" d="M8318 12349c-247,80 -41,-392 41,-160l-25 146c-3,4 -16,7 -16,14zm-90 -246c-118,80 -101,203 -3,300l123 -19c17,32 10,-2 61,28l-8 -446c-31,66 -7,31 -24,85 -15,46 -23,58 -32,72l-117 -20z"/>
   <path class="fil16" d="M3800 10352l-3 -637 191 -8c-5,106 -23,532 20,632 3,-172 39,-506 -29,-647l-206 2c-8,94 -34,590 27,658z"/>
   <path class="fil12" d="M5666 13240c79,-39 27,33 82,-88l93 -225c58,-166 5,-86 -18,-111l-87 205c-99,-147 -20,-158 -143,-204 48,250 118,135 73,423z"/>
   <path class="fil17" d="M5685 7235c-18,-135 -43,-346 14,-448 22,30 14,-41 34,75 7,40 3,93 2,133 -1,88 -5,159 -15,246l30 -38c33,-88 18,-133 18,-234 1,-136 -32,-188 -25,-310l-78 13 23 85c-64,40 -23,-48 -49,77 -23,107 -47,331 46,401z"/>
   <path class="fil12" d="M4220 13105l-91 -50c33,-51 -26,-75 130,-48l-39 98zm0 0c60,14 43,12 94,18 -2,-163 22,-191 -49,-299 -186,-26 -142,24 -160,45 65,28 101,-41 157,50 -102,97 -155,-4 -185,162 15,15 2,42 73,52 133,19 53,-15 70,-28z"/>
   <path class="fil15" d="M6241 11362c-27,14 -50,-27 -49,157 0,92 3,141 -6,236 5,-8 11,-28 13,-24 33,54 21,-48 22,-51 26,-60 4,-33 41,-97 -41,-44 -29,-127 5,-183l83 -2c9,-19 100,113 -5,201 -5,5 -13,6 -16,15 -2,9 -11,12 -14,14 -4,4 -18,16 -25,22 109,-5 168,-56 158,-183 -12,-151 -105,-129 -207,-105z"/>
   <path class="fil12" d="M3293 12155c200,-79 198,277 -2,187 -45,-87 -44,-111 2,-187zm188 195c22,-200 1,-285 -214,-243 -132,192 -49,387 214,243z"/>
   <path class="fil12" d="M2309 12949c-66,19 -85,-26 -87,-27 24,-22 -13,-108 145,-42 -38,92 27,45 -58,69zm-88 190l188 -14c-104,-86 -161,14 -191,-143l197 -5c-10,-172 -85,-155 -183,-159 -121,123 -89,201 -11,321z"/>
   <path class="fil12" d="M5540 11467c-117,3 -46,-8 -75,-26 9,-90 103,-100 142,0 -26,18 37,23 -67,26zm-64 185c245,9 158,-31 161,-70 -120,45 -158,46 -173,-88 134,4 115,18 198,-27 -24,-141 -31,-132 -181,-131 -73,141 -162,114 -5,316z"/>
   <path class="fil12" d="M2180 12405c53,-102 -24,-135 53,-254l79 -5c59,135 -10,142 53,262 56,-94 38,-211 -4,-302l-217 -6c-8,103 -36,248 36,305z"/>
   <path class="fil12" d="M6560 11573c51,-69 10,-42 124,-64 -23,111 -60,143 -124,64zm-34 -164c88,-26 68,-45 147,5 -28,127 -68,9 -172,134l27 93 211 -15 -12 -279c-83,-16 -180,-38 -201,62z"/>
   <path class="fil18" d="M17622 15285l142 -1c45,49 59,87 159,49 76,-42 52,8 26,-52l-79 -83c239,-177 50,-183 48,-185l1 109c-49,23 -88,47 -152,78l-145 85z"/>
   <path class="fil12" d="M2721 13713c-3,-137 -16,-105 -39,-133 -56,113 41,306 -134,247 -48,-40 -3,-160 -51,-248 -56,77 -36,168 -24,276 82,46 144,11 249,37 -3,-63 0,-118 -1,-179z"/>
   <path class="fil12" d="M8578 13584c-7,62 -25,54 29,49 96,-18 77,-31 121,66l-76 10 88 60c6,117 7,30 -23,62l-113 12 20 -72 -20 -27c-28,6 -28,-12 -56,13 3,94 -9,161 126,134 7,-2 15,-4 22,-6l91 -37c-7,-295 14,-269 -209,-264z"/>
   <path class="fil12" d="M10855 12151c100,-20 86,-20 118,57l-181 62c8,116 23,166 134,129l1 -34c-97,-9 -39,-2 -78,-32l27 -44c49,-34 -74,-51 88,-25 36,80 17,37 -4,72l29 65c68,-42 19,24 42,-61 1,-4 6,-72 6,-78 -2,-76 -22,-110 -43,-160l-169 0c-6,62 -24,54 30,49z"/>
   <path class="fil12" d="M7896 13187c7,48 -8,38 35,38 31,-92 173,-319 122,-404l-105 204 -97 -209c-31,32 -99,-77 17,184 43,96 46,88 28,187z"/>
   <path class="fil9" d="M5963 6915c-25,-80 -18,-58 -64,-138 -80,18 -40,399 -15,455 77,-25 66,17 69,-129 2,-85 -16,-112 10,-188z"/>
   <path class="fil15" d="M8709 13128c-1,-98 16,-229 -21,-307 -65,73 -18,115 -48,259l-113 5c-12,-60 -8,-71 -11,-137 -7,-128 -5,-90 -39,-127 -22,52 -40,199 -2,263 56,95 142,24 234,44z"/>
   <path class="fil12" d="M2753 13114l110 30c-21,-81 7,-19 -27,-56l-31 -24c-3,-2 -12,-5 -17,-9l75 -212c-17,-9 -45,-23 -59,-40 -29,-36 -9,-32 -42,-79 -43,62 -64,100 -55,147 20,113 10,177 46,243z"/>
   <path class="fil12" d="M3714 12348c-147,47 -84,-100 -113,-213l-19 -38c-18,26 -19,5 -30,59 0,0 -6,78 -6,79 1,69 12,146 76,167 38,13 23,8 56,6l130 -41c-5,-115 27,-231 -49,-272l-15 191c-11,49 -9,30 -30,62z"/>
   <path class="fil12" d="M9614 13105l-91 -9c21,-94 -7,-114 133,-89 -11,58 -22,68 -42,98zm-109 -267c0,61 -14,44 51,42 105,-23 54,-22 99,42 -7,5 -17,4 -20,13 -11,27 -135,23 -155,101 -17,66 21,104 79,100 128,-11 7,6 55,-31l96 24c-3,-173 31,-216 -69,-307l-136 16z"/>
   <path class="fil12" d="M9247 13794l-3 -131c10,-11 10,-51 77,-48 83,4 44,21 58,43 27,89 -69,80 65,80 -24,-184 -74,-187 -252,-147l-7 243c142,74 148,98 238,14 -20,-11 3,-8 -41,-11 -38,-3 -50,34 -135,-43z"/>
   <path class="fil12" d="M8064 11626c6,-205 27,-217 -37,-285 -44,116 25,150 -53,258l-91 11 -16 -219c-16,-81 11,0 -25,-51 -5,6 -131,321 98,308l108 -18c3,-1 11,-2 16,-4z"/>
   <path class="fil12" d="M11154 13749l-3 -62 85 -81 70 78c22,37 -33,68 50,6 -74,-328 -433,71 -180,188 150,70 171,-48 171,-48l-182 1 -11 -82z"/>
   <path class="fil15" d="M3710 11647c2,-98 17,-239 -22,-307 -59,83 -17,156 -49,259 -97,7 -111,5 -121,-81 -15,-133 38,-103 -50,-184 -49,426 59,267 242,313z"/>
   <path class="fil12" d="M2897 11713c2,52 -11,44 38,27l156 -401c-125,42 -62,81 -144,197 -60,-83 -35,-152 -135,-202 23,191 114,178 85,379z"/>
   <path class="fil12" d="M6510 13745l-1 -49c38,-75 -6,-24 46,-74 36,-3 17,-10 60,0 46,10 21,9 41,29 24,94 -63,81 61,81 -28,-260 -324,-190 -259,63 25,95 132,155 243,53 -74,-39 -153,47 -191,-103z"/>
   <path class="fil15" d="M7101 13129c35,-40 16,21 30,-51 5,-20 4,-53 5,-76 4,-74 -1,-72 18,-129l106 -6c10,54 8,75 11,136 8,149 8,94 42,125 29,-70 23,-165 3,-240l-20 -62c-136,-12 -107,26 -212,-4 -9,115 -13,259 17,307z"/>
   <path class="fil19" d="M17976 15833l-8 -76c-39,-149 8,-315 -45,-424 -100,38 -114,0 -159,-49l-142 1 -110 14 93 6 159 25c68,196 95,416 26,608 126,-74 13,50 55,-50l-14 -347c4,-183 -17,-106 65,-158 17,30 24,-1 39,104 6,41 -1,92 -1,134l0 160c-11,79 -13,51 -21,68l63 -16z"/>
   <path class="fil15" d="M4493 11388c2,275 -20,204 42,256l22 -251 116 -10c37,147 -10,191 47,264 78,-125 32,-441 -227,-259z"/>
   <path class="fil12" d="M7835 13743l2 -48 60 -84 70 37 39 56c2,-4 6,11 11,17l-3 -74 -14 -64c-162,-17 -269,24 -216,215 34,120 155,115 244,50 -58,-32 -64,-5 -147,-13l-46 -92z"/>
   <path class="fil12" d="M2149 11518c-15,-68 -50,-122 6,-122l81 -19 40 50 30 -39c-12,-18 -40,-81 -142,-45 -125,45 -126,315 70,314 106,-1 22,13 99,-36l-184 -103z"/>
   <path class="fil12" d="M4863 11640l193 -9c2,0 10,-3 15,-5 3,-118 23,-222 -34,-286l-33 244 -98 22c-41,-83 -26,-54 -30,-139 -9,-166 5,-82 -24,-128 -69,79 -40,223 11,301z"/>
   <path class="fil15" d="M6874 11362c-45,41 -16,-61 -37,77l-2 307c38,-91 11,-78 63,-163 -26,-37 -63,-178 45,-195 108,-17 30,5 60,19 47,47 39,142 -16,193l-70 52c117,-6 83,-7 146,-62 24,-91 15,-163 -10,-233 -87,-28 -95,-15 -179,5z"/>
   <path class="fil12" d="M10448 13874l-4 -27 -75 -17c23,-85 27,-75 117,-79l-4 57c6,77 -18,40 27,85l34 -281c-95,-55 -156,-77 -209,32 120,-18 112,-66 157,46 -101,55 -138,7 -179,132 30,63 47,100 136,52z"/>
   <path class="fil12" d="M4030 13750l8 -77c38,-44 34,-46 102,-57l47 68c28,40 -22,26 52,34l-21 -113c-379,-160 -282,458 3,243l-49 -12c-5,0 -13,1 -19,1 -93,-4 -95,28 -123,-87z"/>
   <path class="fil12" d="M2916 12158c82,199 94,146 54,352 86,-45 22,28 77,-74l129 -345c-162,98 -32,91 -156,206l-70 -190c-56,17 -52,-32 -34,51z"/>
   <path class="fil12" d="M3267 13747l9 -73c24,-86 -17,-30 76,-69l70 83c18,27 -46,55 52,2 -45,-179 -221,-138 -258,-19 -41,132 81,325 242,177l-31 -9c-105,-12 -127,49 -160,-92z"/>
   <path class="fil12" d="M6175 13055c-105,105 -34,-25 -150,47 88,52 82,40 191,21l23 -133c-48,-24 -107,-39 -154,-94 41,-26 1,-7 65,-27 43,-15 2,18 72,-23 -59,-29 -180,-61 -189,50 -10,117 75,55 142,159z"/>
   <path class="fil12" d="M10554 11460l25 61c-27,105 10,43 -65,93 -76,-30 -35,1 -66,-75l-22 -22c-11,18 -30,-34 -24,57 6,102 71,89 215,56 3,-1 11,-2 16,-4 17,-408 -187,-323 -212,-204 65,-34 231,-73 133,38z"/>
   <path class="fil15" d="M1810 13578c143,310 84,290 83,417 72,-57 157,-274 190,-420 -98,60 -77,123 -136,216 -23,-50 -33,-91 -53,-134 -52,-111 -9,-51 -84,-79z"/>
   <path class="fil15" d="M8575 11361c-7,53 -13,107 -12,161 4,167 8,92 46,123l25 -252 107 -7c59,129 -16,172 53,262 46,-74 25,-203 4,-291l-223 4z"/>
   <path class="fil14" d="M16824 16583c28,72 151,58 224,48 13,-171 -48,-195 -157,-271l-116 55c95,73 99,25 142,58 72,57 42,27 20,145l-113 -35z"/>
   <path class="fil12" d="M4366 12280l-2 -125 108 -15 37 58c20,37 -37,46 52,17 -26,-191 -164,-141 -258,-35 -8,177 82,313 245,187 -72,-52 -159,58 -182,-87z"/>
   <path class="fil12" d="M4225 11562c-32,-68 -9,-34 -17,-94 -1,-10 -3,-45 -5,-55 -17,-62 -15,-42 -37,-75l-6 233 37 73c92,13 38,6 113,-3l95 -15c3,-110 21,-219 -29,-288l-43 259c-158,13 -83,-6 -108,-35z"/>
   <path class="fil20" d="M15538 14586c53,-95 33,-95 56,-227l404 -9 20 -67c-125,15 -256,3 -373,19 -76,10 -78,5 -94,76 -12,55 -12,151 -13,208z"/>
   <path class="fil12" d="M4837 13756l-15 -94 29 -28 84 -20 47 65c21,35 -41,48 52,16 -23,-188 -235,-152 -260,2 -30,193 138,232 255,151 -79,-48 -175,59 -192,-92z"/>
   <path class="fil12" d="M10804 13610c-89,-65 -123,-57 -189,27 34,201 87,23 142,185 -64,32 -4,11 -79,19 -7,1 -29,1 -34,1l-26 6c44,45 -56,11 62,45 121,34 199,-94 89,-169 -58,-41 -70,-8 -91,-97l126 -17z"/>
   <path class="fil12" d="M10168 11573c-103,107 -37,-24 -150,51 86,46 92,41 190,13 52,-198 -52,-116 -128,-223 92,-80 30,7 136,-47 -136,-92 -283,29 -136,135 20,14 35,13 53,27 46,36 4,-11 35,44z"/>
   <path class="fil15" d="M5747 12381c106,-73 80,-170 24,-271l-110 -9c132,52 27,9 78,55l5 186 -121 10c-30,-33 -42,39 -42,-115 0,-24 16,-91 21,-125l-10 0c-62,34 -29,300 -20,381l47 -117 128 5z"/>
   <path class="fil12" d="M8152 11357c-21,141 -8,96 85,161 50,36 22,5 49,55 -80,76 -73,-8 -137,51 76,53 91,35 178,11l19 -119c-42,-26 -115,-60 -145,-102 90,-78 34,5 132,-45 -45,-24 -132,-57 -181,-12z"/>
   <path class="fil12" d="M10427 12340c-35,-97 -20,-119 8,-183l94 -17 37 60c18,41 -48,61 52,17l-41 -119c-371,-52 -227,459 34,270l-184 -28z"/>
   <path class="fil12" d="M9009 12315c-3,-6 -8,-14 -9,-18 -28,-118 6,-113 7,-117l79 -49 55 36 22 34c3,3 14,19 17,14 3,-5 14,10 21,14l-54 -129c-378,-52 -200,463 38,267 -4,-3 -11,-12 -13,-7l-66 -5c-77,-6 -41,6 -97,-40z"/>
   <path class="fil12" d="M10167 13049c-7,-17 -28,19 -17,-95 5,-62 -11,-27 27,-51 47,-56 46,-61 125,-21l49 69c4,-5 14,16 20,24 -88,-434 -463,108 -144,158 105,17 91,-7 128,-56l-188 -28z"/>
   <path class="fil12" d="M4717 12987l-10 -56 32 -67 116 6c31,57 47,-84 16,116 57,-37 70,-95 12,-146 -54,-48 -351,-62 -154,301 28,-2 80,-1 99,-7 115,-30 59,-29 85,-63 -138,20 -174,57 -196,-84z"/>
   <path class="fil10" d="M2872 7087c-48,-25 -21,64 -36,-87 -3,-32 1,-76 4,-114l-67 -43c46,160 -56,547 225,363 -42,-81 6,-39 -119,-55l-7 -64z"/>
   <path class="fil12" d="M1822 11441c46,74 -11,15 74,70 75,48 21,-14 77,62 -31,29 18,17 -59,34 -40,9 -29,-17 -83,19 48,25 6,24 84,26l100 -17 20 -130c-155,-70 -82,13 -154,-91l141 -55c-96,-35 -175,-52 -200,82z"/>
   <path class="fil12" d="M5121 12266l4 -68c14,-55 -16,-68 69,-64 53,2 58,30 82,69 22,31 -29,52 49,5 -44,-226 -376,-121 -210,184 163,40 138,25 195,-25 -111,-43 -150,63 -189,-101z"/>
   <path class="fil5" d="M3293 12155c-46,76 -47,100 -2,187 200,90 202,-266 2,-187z"/>
   <path class="fil12" d="M11023 13861c-75,-77 -59,-20 -64,-198l79 -53 -101 -127c-78,124 -76,462 99,392 -4,-5 -10,-11 -13,-14z"/>
   <path class="fil21" d="M20273 13131l162 29c62,1 124,3 186,4 120,2 247,10 364,-11l-8 -467c-67,102 -18,334 -9,451l-695 -6z"/>
   <path class="fil5" d="M5974 13832c14,-100 31,-108 -19,-195 -166,-62 -231,234 19,195z"/>
   <path class="fil18" d="M20428 16445c99,-65 41,-49 145,-84 -40,-106 -39,-155 18,-238 -108,-3 -66,3 -150,-40 8,70 22,102 23,174l-36 188z"/>
   <path class="fil11" d="M8053 12411c52,-85 66,-376 0,-460 -51,60 -45,244 -39,338 7,103 11,79 39,122z"/>
   <path class="fil12" d="M6589 12260l17 -62c39,-81 29,-83 130,-45l38 4c-84,-126 -294,-112 -214,225 113,33 125,13 222,11 -108,-138 6,11 -157,-50l-36 -83z"/>
   <path class="fil11" d="M2603 11653c57,-76 51,-373 0,-456 -54,68 -39,28 -38,217 0,36 -5,106 -3,135 16,192 3,63 41,104z"/>
   <path class="fil12" d="M7133 13932c-19,71 -17,27 23,42l154 -394c-70,35 -17,-30 -70,64 -19,34 -23,67 -30,95l-39 56 -23 -45c-25,-97 -22,-129 -107,-173 32,138 113,231 92,355z"/>
   <path class="fil12" d="M6844 13645l148 -35c-84,-66 -99,-42 -196,-16 -77,230 46,380 202,254l-82 -11c-44,-4 -40,-3 -85,-16l13 -176z"/>
   <path class="fil5" d="M9607 12140l-10 211c159,22 189,-24 140,-190l-130 -21z"/>
   <path class="fil5" d="M7577 12138c-127,34 -120,134 -50,218 92,2 117,7 120,-97 2,-95 -25,-93 -70,-121z"/>
   <path class="fil12" d="M5994 12095l13 70c7,119 -18,286 138,228 -60,-69 -77,17 -75,-212 56,-53 -40,2 77,-52l-76 -81c-3,-4 -7,-12 -10,-16 -2,-4 -7,-13 -9,-16 -2,-3 -6,-11 -9,-16l-49 95z"/>
   <path class="fil5" d="M3202 11392c-44,97 -43,105 1,191 153,68 152,-77 111,-189l-112 -2z"/>
   <path class="fil12" d="M9299 11354c67,106 25,189 66,282 79,26 41,37 112,-10l-80 -42 1 -170 82 -42c-115,-74 -48,-14 -104,-126 -47,94 -6,61 -77,108z"/>
   <path class="fil12" d="M7577 13848c-71,-38 -94,26 -149,-36 -39,-45 -13,-129 -3,-181l148 -21c-286,-226 -306,477 4,238z"/>
   <path class="fil12" d="M4138 12408l137 -310c-118,53 -81,86 -137,204 -89,-92 -17,-136 -149,-215 31,121 67,262 149,321z"/>
   <path class="fil5" d="M8197 13069c198,57 201,-246 3,-185 -44,98 -42,85 -3,185z"/>
   <path class="fil5" d="M5163 13630c-32,141 -42,223 122,201 15,-101 28,-273 -122,-201z"/>
   <path class="fil5" d="M1907 12865c-4,57 -18,137 8,211 88,10 133,-1 136,-101 3,-114 -48,-108 -144,-110z"/>
   <path class="fil9" d="M17525 8315l275 59c-5,-185 -60,-268 -232,-295l31 99c82,-41 -15,-64 80,-21 75,34 49,60 58,109l-212 49z"/>
   <path class="fil5" d="M6898 11583l89 17c55,-51 63,-146 16,-193 -30,-14 48,-36 -60,-19 -108,17 -71,158 -45,195z"/>
   <path class="fil12" d="M5159 11343c-36,168 14,135 136,204 -62,127 -59,6 -157,87l198 10c9,-64 25,-99 -15,-142 -38,-41 -67,-13 -120,-88 29,-22 10,-7 52,-24 26,-10 19,-4 45,-16l-139 -31z"/>
   <path class="fil5" d="M3688 13078c155,12 145,-86 102,-205 -151,-12 -167,82 -102,205z"/>
   <path class="fil9" d="M3926 6921c-14,-68 -14,-60 -20,-122 -100,-9 -65,95 -64,197 1,84 -21,165 31,219 69,-65 12,-177 53,-294z"/>
   <path class="fil5" d="M8319 13614c-132,259 155,361 105,19l-105 -19z"/>
   <path class="fil5" d="M8318 12349c0,-7 13,-10 16,-14l25 -146c-82,-232 -288,240 -41,160z"/>
   <path class="fil4" d="M2773 6843l67 43c-3,38 -7,82 -4,114 15,151 -12,62 36,87l3 -197c82,-106 -34,14 49,-47l-102 -207c-24,144 7,97 -92,183l43 24z"/>
   <path class="fil12" d="M9334 12404c109,8 80,13 149,-37 -4,-3 -12,-11 -13,-6l-31 -6c-56,-4 -165,36 -109,-196l149 -19c-160,-139 -336,92 -145,264z"/>
   <path class="fil5" d="M11117 11388c-11,54 -18,148 -2,213 167,1 150,-69 116,-209l-114 -4z"/>
   <path class="fil5" d="M2195 13658c-81,232 215,249 128,-8 -119,-64 -65,-17 -128,8z"/>
   <path class="fil5" d="M4558 13612c-32,55 -53,148 -14,231 134,-1 140,-66 112,-197l-98 -34z"/>
   <path class="fil12" d="M3979 13130c43,-86 40,-353 0,-446 -32,34 -42,-71 -40,212 2,344 -7,189 40,234z"/>
   <path class="fil5" d="M5794 11581l99 17c42,-80 36,-118 17,-198 -149,-35 -166,45 -116,181z"/>
   <path class="fil12" d="M4447 13132l165 -16c-52,-48 0,-14 -78,-35 -33,-8 -13,42 -76,-27 -13,-15 -84,-141 77,-183 6,-2 15,-2 22,-4 5,-2 14,-4 19,-6l-119 -49c-125,126 -98,206 -10,320z"/>
   <path class="fil5" d="M10782 11384l-7 207 115 15c29,-69 42,-120 3,-202l-111 -20z"/>
   <path class="fil12" d="M6810 13130c44,-82 41,-361 0,-448 -42,48 -39,-19 -38,214 0,34 -5,107 -3,134 14,163 1,60 41,100z"/>
   <path class="fil5" d="M2641 12356c7,-16 48,-52 14,-187l-106 -10c-82,127 -48,193 92,197z"/>
   <path class="fil15" d="M2607 13129c-21,-31 -18,-32 -32,-57l-13 -194 55 -9c-68,-68 -16,-6 -54,-79l1 -68c-118,113 -72,114 -60,230 11,108 -16,178 103,177z"/>
   <path class="fil13" d="M8821 7002l8 145c135,49 83,-11 117,60 -84,55 -120,36 -196,15l35 90 193 -72c2,-76 -3,-86 -9,-162 -10,-126 34,-83 -54,-95 38,59 27,-9 35,48 24,164 17,21 -23,85 -50,-23 -22,-6 -46,-33l-60 -81z"/>
   <path class="fil5" d="M6262 11583l83 16c105,-88 14,-220 5,-201l-83 2c-34,56 -46,139 -5,183z"/>
   <path class="fil9" d="M17970 8196l58 104c85,-53 93,-100 215,-64l11 147c14,-54 49,-175 -10,-230 -34,-32 -51,-32 -96,-15 -86,32 -11,82 -178,58z"/>
   <polygon class="fil5" points="8679,12341 8721,12361 8818,12343 8821,12151 8685,12169 "/>
   <path class="fil4" d="M5685 7235l35 6c10,-87 14,-158 15,-246 1,-40 5,-93 -2,-133 -20,-116 -12,-45 -34,-75 -57,102 -32,313 -14,448z"/>
   <path class="fil9" d="M24966 12362l-175 13 -1 246c87,-68 130,-154 176,-259z"/>
   <path class="fil12" d="M5645 13841c-40,-105 -43,-169 24,-229l28 -23c-77,-6 -60,21 -84,-112 -35,52 -52,96 -73,133 82,109 -12,122 68,280l95 -15c-42,-42 81,-51 -58,-34z"/>
   <path class="fil5" d="M8956 13611l-36 107c-14,193 170,166 142,-55l-106 -52z"/>
   <path class="fil14" d="M18202 15524l-160 -11 58 63c45,53 26,9 44,98l-42 21c-90,47 -64,10 -78,102 65,-17 23,10 91,-77 66,111 -2,44 69,81 25,-143 -20,-125 18,-277z"/>
   <path class="fil5" d="M9873 12890c-37,73 -45,109 6,190 179,-5 146,-259 -6,-190z"/>
   <path class="fil4" d="M8752 6776c-19,61 1,32 -24,69l13 -8c19,43 3,-54 30,76 11,56 6,62 8,112 4,171 -21,126 50,122l-8 -145 -13 -43 19 -196 3 -78 -62 14 -16 77z"/>
   <path class="fil5" d="M9223 13068l100 5c66,-84 75,-250 -89,-188l-11 183z"/>
   <path class="fil11" d="M7207 11385c100,0 39,-27 118,19 -5,79 -111,110 -125,-16 -93,0 -42,47 -11,123l203 -13c-2,-123 -19,-138 -132,-173l-57 47 4 13z"/>
   <path class="fil15" d="M2444 11649c26,-32 21,25 33,-75 11,-92 7,-313 -33,-374 -42,85 -48,357 0,449z"/>
   <path class="fil11" d="M2964 12837l13 59 49 -9 81 -2 -1 64 -128 -5 1 43 200 -7c-3,-162 -64,-206 -215,-143z"/>
   <path class="fil12" d="M5434 12405c36,-76 42,-360 0,-448 -55,79 -35,40 -36,224 0,26 -4,88 -3,108 8,107 16,84 39,116z"/>
   <path class="fil15" d="M3090 13724l-15 64c-116,55 -24,20 -60,-12l-64 -186c-47,0 -33,-11 -36,40l111 256c82,-51 155,-237 133,-306 -39,33 -9,-34 -52,59 -8,17 -14,64 -17,85z"/>
   <path class="fil18" d="M15541 14081c-19,-46 -30,-63 -43,-88 -87,-181 -205,-99 -208,-95 92,116 81,142 251,183z"/>
   <path class="fil22" d="M8669 12407l10 -66 6 -172 -10 -214c-56,38 -50,-60 -50,226 0,304 -4,174 44,226z"/>
   <path class="fil12" d="M6254 13888c115,-161 -74,-163 155,-278 -77,-81 -45,4 -177,-31l0 243c14,109 -1,15 22,66z"/>
   <path class="fil23" d="M8750 7222c76,21 112,40 196,-15 -34,-71 18,-11 -117,-60 -71,4 -46,49 -50,-122 -2,-50 3,-56 -8,-112 -27,-130 -11,-33 -30,-76l9 385z"/>
   <path class="fil12" d="M6651 13130c47,-60 39,-253 33,-342l-33 -106c-46,73 -28,55 -28,214 0,39 -4,99 -2,134l30 100z"/>
   <path class="fil12" d="M7467 11361c-2,50 -8,112 -7,161 3,126 16,102 38,126 67,-113 -24,-176 71,-239l76 -48c-68,-29 -103,-20 -178,0z"/>
   <path class="fil12" d="M2636 12380l5 -24c-140,-4 -174,-70 -92,-197l79 -75 -145 30c-25,115 -50,381 153,266z"/>
   <path class="fil5" d="M5623 12352l121 -10 -5 -186 -103 14c-39,94 -26,80 -13,182z"/>
   <path class="fil12" d="M10437 12843l0 237c10,50 20,43 24,49 47,-51 24,17 35,-100 14,-133 -17,-105 56,-147 56,-32 -32,22 33,-18l0 -39c-34,-4 -33,-1 -57,1 -2,0 -47,6 -54,7 -39,7 -10,-2 -37,10z"/>
   <path class="fil12" d="M9535 13886c67,-102 12,-107 37,-191 25,-85 37,-44 114,-85 -68,-76 -38,13 -177,-32 -1,122 -22,222 26,308z"/>
   <path class="fil15" d="M1911 12252l106 17 -18 73c53,3 16,-12 30,56 5,-4 11,-21 12,-17 8,25 41,-148 10,-224 -38,-93 -109,-82 -192,-28 84,52 105,-53 147,79l-95 44z"/>
   <path class="fil12" d="M8821 13130c19,-20 25,0 35,-74 3,-25 -4,-73 1,-104 8,-46 12,-45 34,-62l88 -47c-138,-89 -20,42 -161,-13 -2,-1 -10,-5 -15,-7 -8,97 -23,238 18,307z"/>
   <path class="fil12" d="M2979 12987l-1 -43 -1 -48 -13 -59c-75,122 -114,349 208,279 -100,-75 0,-6 -167,-44l-26 -85z"/>
   <path class="fil24" d="M6917 11652l70 -52 -89 -17c-52,85 -25,72 -63,163l2 -307c21,-138 -8,-36 37,-77 -37,-38 54,-49 -59,-24 -7,131 -30,314 21,428 56,-38 15,-6 59,-78l22 -36z"/>
   <path class="fil12" d="M4376 13435c-60,34 -63,-100 -64,228 0,144 -20,148 37,222l27 -450z"/>
   <path class="fil25" d="M3926 6921c-41,117 16,229 -53,294 -52,-54 -30,-135 -31,-219 -1,-102 -36,-206 64,-197 -22,-38 59,-52 -33,-31 -69,74 -26,-53 -62,100l23 382 66 1c41,-55 53,-220 26,-330z"/>
   <path class="fil19" d="M16144 15657c29,-12 2,31 61,-34 62,-69 25,-36 37,-87 -24,-100 -1,-44 -39,-70 -34,76 -4,78 -80,128 -101,-62 -81,4 -66,-169 -116,51 36,0 -102,-8l17 29c1,3 6,12 8,15 2,4 7,11 9,15 76,122 139,59 81,172l74 9z"/>
   <path class="fil15" d="M3820 11645c32,-32 25,-1 36,-72 12,-82 -30,-118 53,-174 4,-3 13,-6 17,-9l54 -29c-30,-17 1,-20 -52,-16 -120,11 44,43 -123,1 -2,93 -19,225 15,299z"/>
   <path class="fil12" d="M8821 12151l-3 192 -97 18 -2 39c157,38 238,-149 102,-302l-80 8 0 8c154,-2 28,-9 80,37z"/>
   <path class="fil26" d="M2628 12084l-79 75 106 10c7,-35 13,-79 22,-124 2,-7 3,-16 5,-22l24 -61c4,73 47,387 -28,427 27,27 -28,23 48,38 14,-121 32,-383 -17,-485 -143,74 28,110 -81,142z"/>
   <path class="fil26" d="M5747 12381l-128 -5 -47 117c-9,-81 -42,-347 20,-381 -26,-32 27,-45 -41,-17 -31,109 -44,341 15,426 79,-42 45,5 48,-109 53,7 33,19 82,5 64,-18 14,2 51,-36z"/>
   <path class="fil15" d="M2655 12169c34,135 -7,171 -14,187l-5 24 42 9c75,-40 32,-354 28,-427l-24 61c-2,6 -3,15 -5,22 -9,45 -15,89 -22,124z"/>
   <path class="fil5" d="M5305 13075c211,16 202,-116 96,-138 -27,-6 -58,-1 -86,-1l-10 139z"/>
   <path class="fil15" d="M7779 12129c-4,100 -25,219 36,275l21 -233c38,-17 70,-25 114,-42 -30,-26 46,-65 -139,-11l-32 11z"/>
   <path class="fil1" d="M7902 6867l-19 80 196 -2 12 -92c-93,-21 -103,-33 -189,14z"/>
   <path class="fil12" d="M7683 13441c-17,24 -19,5 -33,63 -2,9 -4,41 -5,51l38 333c37,-81 25,-120 25,-225 0,-104 12,-141 -25,-222z"/>
   <path class="fil26" d="M8228 12103l117 20c9,-14 17,-26 32,-72 17,-54 -7,-19 24,-85l8 446c40,-91 47,-383 -12,-472 -71,51 -45,31 -44,146l-125 17z"/>
   <path class="fil1" d="M2386 6951l216 -4c-26,-154 -176,-156 -216,4z"/>
   <path class="fil15" d="M7189 11511c-31,-76 -82,-123 11,-123l7 -3 -4 -13c-48,8 -44,-35 -67,74 -38,187 145,280 247,152l-167 1 -27 -88z"/>
   <path class="fil18" d="M18083 16579c59,76 42,74 27,166 2,-2 131,9 64,-164 -36,-93 -145,-66 -217,-59 61,9 30,-4 80,17 63,25 11,2 46,40z"/>
   <path class="fil24" d="M6290 11650c7,-6 21,-18 25,-22 3,-2 12,-5 14,-14 3,-9 11,-10 16,-15l-83 -16c-37,64 -15,37 -41,97 -1,3 11,105 -22,51 -2,-4 -8,16 -13,24 9,-95 6,-144 6,-236 -1,-184 22,-143 49,-157 -39,-37 56,-47 -60,-24 -14,129 -33,323 20,430l73 -100c4,-5 10,-13 16,-18z"/>
   <path class="fil12" d="M3249 12869c-2,145 -23,206 42,259l23 -235 80 -24c5,-3 14,-10 19,-13 5,-2 13,-8 19,-13 -7,-4 -16,-17 -20,-10l-163 36z"/>
   <path class="fil23" d="M3906 6799c6,62 6,54 20,122 75,-87 5,-21 82,-52 80,-33 41,17 91,-59 -80,-102 -79,-29 -193,-11z"/>
   <path class="fil12" d="M6995 13128l-15 -305c-76,36 -50,45 -52,152 -2,173 -27,124 67,153z"/>
   <path class="fil18" d="M18064 13645c-57,-57 -88,-112 -194,-167l-16 103c82,50 139,80 210,64z"/>
   <path class="fil27" d="M9528 10876c52,30 32,53 207,26 40,-152 -22,-256 47,-329 -49,-39 61,-49 -61,-29l-1 341 -192 -9z"/>
   <path class="fil8" d="M2276 11427c0,0 11,42 -68,23 -85,-22 -19,46 -53,-54 -56,0 -21,54 -6,122 97,-24 114,13 202,-51 -24,-112 -21,-54 -45,-79l-30 39z"/>
   <path class="fil26" d="M4658 13877l-123 -19 -55 122c-8,-76 -45,-355 27,-381 -36,-38 30,-38 -42,-31 -35,127 -30,335 0,430 86,-9 58,-2 62,-107l131 -14z"/>
   <path class="fil12" d="M8450 11649c23,-31 16,6 27,-52 15,-86 13,-202 -27,-259 -43,61 -49,245 0,311z"/>
   <path class="fil13" d="M4588 7141l-106 -6c-28,-67 -34,-40 -1,-124l-89 2c-19,117 50,171 117,168 138,-7 43,-2 79,-40z"/>
   <path class="fil26" d="M10208 12172l29 241c86,-27 76,5 75,-119 -1,-98 6,-107 -53,-165l33 271c-112,-118 22,-198 -84,-228z"/>
   <path class="fil19" d="M16123 14086c0,51 2,86 -6,137 -19,135 -15,-30 -20,107l63 2c20,-92 8,-78 -10,-192 47,-26 12,-10 89,-56 -83,-67 -28,-23 -52,-19 -5,0 -57,18 -64,21z"/>
   <path class="fil27" d="M3392 10602l203 4 15 -515c-1,-97 6,-101 -34,-166l13 664 -197 13z"/>
   <path class="fil22" d="M9906 11645c44,-45 50,-154 35,-232 -20,-114 -3,-36 -35,-70 -31,71 -29,237 0,302z"/>
   <path class="fil8" d="M10167 13049c22,-116 86,-41 204,-74 -6,-8 -16,-29 -20,-24l-49 -69c-43,66 17,42 -75,53 -99,11 -31,-11 -50,-32 -38,24 -22,-11 -27,51 -11,114 10,78 17,95z"/>
   <path class="fil19" d="M20494 13923c47,-12 42,-3 93,-54 45,-46 44,-54 57,-99 -144,0 -149,17 -150,153z"/>
   <path class="fil23" d="M8808 6959c4,-5 8,-19 9,-15l101 -98c92,-67 -6,53 35,-36 -65,-55 -17,-33 -126,-47l-19 196z"/>
   <path class="fil8" d="M23477 12185c250,-36 332,-36 584,-11l-159 -40c-60,-4 -97,-11 -159,-8 -102,4 -198,13 -266,59z"/>
   <path class="fil9" d="M17120 8249l-146 41 8 -110 -98 34 33 82c82,19 180,41 203,-47z"/>
   <path class="fil1" d="M4404 6886c58,62 70,47 158,40l13 -89c-109,-5 -118,-13 -171,49z"/>
   <path class="fil24" d="M5602 12112c-5,34 -21,101 -21,125 0,154 12,82 42,115 -13,-102 -26,-88 13,-182l103 -14c-51,-46 54,-3 -78,-55l-59 11z"/>
   <path class="fil18" d="M18719 15135l50 -19 24 -47c-3,-6 -15,-33 -17,-40 -1,-4 -4,-11 -5,-16l-2 -66c-60,43 18,-28 -33,47 -29,43 65,2 -62,49 -22,206 -13,23 45,92z"/>
   <path class="fil8" d="M6606 12198l-17 62 206 -7 -21 -96 -38 -4c-17,71 17,23 -32,62l-98 -17z"/>
   <path class="fil5" d="M7443 13134c12,40 -20,77 77,71 83,-5 66,-38 84,-77 -82,-18 -82,-31 -161,6z"/>
   <path class="fil5" d="M5414 12866l57 -45c-22,-112 -3,-18 -37,-48 -9,-1 -47,-6 -53,-5 -52,10 -41,10 -63,22 26,115 -42,58 96,76z"/>
   <path class="fil19" d="M19498 13679l-38 150c101,-26 108,-46 137,-139l-99 -11z"/>
   <path class="fil25" d="M3645 6851l-23 71c-75,11 -145,32 -126,-55 -49,51 -25,-58 -48,82 100,26 119,34 220,-6 3,-71 32,33 -10,-74 -2,-4 -9,-11 -13,-18z"/>
   <path class="fil24" d="M4837 13756c46,-9 102,-7 121,-11 99,-24 43,27 76,-50 -93,32 -31,19 -52,-16l-104 13c-44,-29 -54,55 -27,-58l-29 28 15 94z"/>
   <path class="fil5" d="M3496 6867c-19,87 51,66 126,55l23 -71 -115 -17 -34 33z"/>
   <path class="fil28" d="M24792 12346l-1 29 175 -13 22 -48 -136 -45c6,145 13,30 -60,77z"/>
   <path class="fil24" d="M9009 12315c-15,-102 19,-38 104,-52l88 -34c-7,-4 -18,-19 -21,-14 -3,5 -14,-11 -17,-14l-22 -34c-50,55 58,33 -79,41 -99,5 -36,-12 -55,-28 -1,4 -35,-1 -7,117 1,4 6,12 9,18z"/>
   <path class="fil24" d="M4030 13750c92,-6 140,9 209,-32 -74,-8 -24,6 -52,-34l-149 -11 -8 77z"/>
   <path class="fil24" d="M10427 12340c-14,-193 122,18 191,-123 -100,44 -34,24 -52,-17l-105 9c-40,-28 -47,53 -26,-52 -28,64 -43,86 -8,183z"/>
   <path class="fil24" d="M4366 12280c72,-22 44,-5 90,-14 116,-23 66,29 105,-51 -89,29 -32,20 -52,-17 -41,7 -40,15 -81,6 -90,-20 -16,36 -64,-49l2 125z"/>
   <path class="fil29" d="M3506 7142c36,34 139,38 165,92 110,-59 41,-2 70,-80 -86,-53 -87,15 -235,-12z"/>
   <path class="fil24" d="M5121 12266c15,0 103,0 103,0 158,-24 61,6 101,-58 -78,47 -27,26 -49,-5l-151 -5 -4 68z"/>
   <path class="fil24" d="M3267 13747c16,0 123,0 131,-2 116,-28 44,21 76,-55 -98,53 -34,25 -52,-2l-146 -14 -9 73z"/>
   <path class="fil18" d="M16909 15617l93 4 47 -132 -79 -2c-20,54 -37,85 -61,130z"/>
   <path class="fil25" d="M4404 6886c-17,34 -48,-54 -8,66l194 15c20,-69 46,-64 -15,-130l-13 89c-88,7 -100,22 -158,-40z"/>
   <path class="fil24" d="M7837 13695l-2 48 209 -13c0,-130 -5,-57 -30,-83l3 74c-5,-6 -9,-21 -11,-17l-39 -56c-1,59 42,2 -19,41l-111 6z"/>
   <path class="fil1" d="M9614 13105c20,-30 31,-40 42,-98 -140,-25 -112,-5 -133,89l91 9z"/>
   <path class="fil24" d="M11154 13749c14,-1 127,-2 128,-2 108,-27 46,19 74,-57 -83,62 -28,31 -50,-6l-155 3 3 62z"/>
   <path class="fil5" d="M9066 11479c-20,-115 20,-99 -111,-90 -6,117 4,115 111,90z"/>
   <path class="fil24" d="M4707 12931l10 56 154 -1c31,-200 15,-59 -16,-116 -44,78 67,66 -148,61z"/>
   <path class="fil25" d="M3117 7205c62,85 106,79 192,29 6,-117 41,-81 -110,-106 60,74 16,8 58,51 26,27 11,-10 23,39 -94,29 -66,21 -163,-13z"/>
   <path class="fil1" d="M5465 11441c29,18 -42,29 75,26 104,-3 41,-8 67,-26 -39,-100 -133,-90 -142,0z"/>
   <path class="fil13" d="M6121 6832l1 30c-22,34 41,45 -37,37l98 20c30,-69 20,-44 59,-105l-129 -27 8 45z"/>
   <path class="fil1" d="M2222 12922c2,1 21,46 87,27 85,-24 20,23 58,-69 -158,-66 -121,20 -145,42z"/>
   <path class="fil19" d="M16327 16006c-113,1 -17,-28 -107,26 -3,3 -11,7 -15,10 -49,31 -10,-3 -36,27 45,39 63,25 139,30l19 -93z"/>
   <path class="fil5" d="M9005 11723c92,0 69,-47 79,-82l-157 5c15,16 -4,76 78,77z"/>
   <path class="fil5" d="M7566 12882c-81,-27 -19,-30 -103,1 -16,134 107,141 103,-1z"/>
   <path class="fil14" d="M25066 7163c37,-23 42,40 53,-63 9,-85 -8,-53 -53,-81 -3,4 -75,-17 0,144z"/>
   <path class="fil30" d="M5645 13841c-1,-217 -37,-133 79,-231l-72 -81c-4,-4 -10,-13 -13,-16l-26 -36c24,133 7,106 84,112l-28 23c-67,60 -64,124 -24,229z"/>
   <path class="fil8" d="M9176 13243c5,-6 11,-23 14,-19 32,50 -6,-18 80,-97 54,-12 53,9 53,-54l-100 -5c-16,53 -23,104 -47,175z"/>
   <path class="fil31" d="M25653 10034l196 -208 -68 5c-36,58 -7,23 -56,73 -43,44 -8,12 -70,55l-2 75z"/>
   <path class="fil19" d="M15810 15922c130,5 185,-9 128,-114 -39,21 -21,10 -59,45 -47,42 -35,35 -69,69z"/>
   <path class="fil9" d="M17895 9478c93,-33 91,-48 139,-140l-120 40 -19 100z"/>
   <path class="fil1" d="M4220 13105l39 -98c-156,-27 -97,-3 -130,48l91 50z"/>
   <path class="fil9" d="M5985 6799c35,74 -47,57 136,33l-8 -45c0,-1 60,-34 -61,-18 -26,4 -35,13 -67,30z"/>
   <path class="fil8" d="M19249 7304c48,44 -64,59 100,41 69,-8 62,-23 98,-58 -38,-125 -13,-41 -61,-74l29 101 -166 -10z"/>
   <path class="fil1" d="M9244 13663c32,41 -52,29 56,28 145,-1 28,6 79,-33 -14,-22 25,-39 -58,-43 -67,-3 -67,37 -77,48z"/>
   <path class="fil23" d="M8091 6853l-12 92 -196 2 19 -80 -55 114c57,4 84,4 130,1 99,-6 38,9 103,-17l11 -112z"/>
   <path class="fil1" d="M7207 11385l-7 3c14,126 120,95 125,16 -79,-46 -18,-19 -118,-19z"/>
   <path class="fil26" d="M4160 11571l6 -233c22,33 20,13 37,75 2,10 4,45 5,55 8,60 -15,26 17,94 0,-28 4,-99 2,-122l-36 -118c-75,60 -72,152 -31,249z"/>
   <path class="fil11" d="M22381 11303c37,-38 29,0 40,-99 5,-44 1,-65 -3,-108 -8,-83 -18,-107 -56,-159 35,160 44,196 19,366z"/>
   <path class="fil5" d="M6684 11509c-114,22 -73,-5 -124,64 64,79 101,47 124,-64z"/>
   <path class="fil8" d="M1896 12358c17,44 20,29 -32,28 42,58 81,20 165,12 -14,-68 23,-53 -30,-56l-103 16z"/>
   <path class="fil23" d="M5963 6915c53,-72 67,-52 159,-53l-1 -30c-183,24 -101,41 -136,-33 -59,4 -31,9 -86,-22 46,80 39,58 64,138z"/>
   <path class="fil5" d="M4707 12931c215,5 104,17 148,-61l-116 -6 -32 67z"/>
   <path class="fil24" d="M6509 13696l1 49 207 -13c-124,0 -37,13 -61,-81 -53,54 16,11 -60,37 0,0 -86,8 -87,8z"/>
   <path class="fil5" d="M10448 11539c31,76 -10,45 66,75 75,-50 38,12 65,-93l-131 18z"/>
   <path class="fil1" d="M5125 12198l151 5c-24,-39 -29,-67 -82,-69 -85,-4 -55,9 -69,64z"/>
   <path class="fil1" d="M6606 12198l98 17c49,-39 15,9 32,-62 -101,-38 -91,-36 -130,45z"/>
   <path class="fil8" d="M10646 13205c51,-52 51,-82 53,-146 -79,25 -63,-25 -77,67 -4,25 22,76 24,79z"/>
   <path class="fil24" d="M9247 13794c11,-62 -25,-15 24,-49l173 -7c-134,0 -38,9 -65,-80 -51,39 66,32 -79,33 -108,1 -24,13 -56,-28l3 131z"/>
   <path class="fil1" d="M6509 13696c1,0 87,-8 87,-8 76,-26 7,17 60,-37 -20,-20 5,-19 -41,-29 -43,-10 -24,-3 -60,0 -52,50 -8,-1 -46,74z"/>
   <polygon class="fil5" points="8717,13831 8722,13753 8624,13771 8604,13843 "/>
   <path class="fil5" d="M1896 12358l103 -16 -4 -67 -83 15c0,1 -73,4 -16,68z"/>
   <path class="fil8" d="M11387 11722c64,-56 79,-47 27,-145 -42,26 -38,-42 -44,66 0,1 13,70 17,79z"/>
   <path class="fil32" d="M5414 12866c-138,-18 -70,39 -96,-76 22,-12 11,-12 63,-22 6,-1 44,4 53,5 -28,-22 -1,-20 -55,-31 -46,-10 -35,-4 -78,-3l-2 150 115 -23z"/>
   <path class="fil1" d="M4851 13634c-27,113 -17,29 27,58l104 -13 -47 -65 -84 20z"/>
   <path class="fil4" d="M5665 6672l78 -13c12,-98 16,-51 -44,-88 -33,28 -20,-12 -38,41 -19,56 -5,28 4,60z"/>
   <path class="fil14" d="M23116 9800l106 16 -32 -104c-96,45 -64,-18 -74,88z"/>
   <path class="fil5" d="M10302 12882c-79,-40 -78,-35 -125,21 19,21 -49,43 50,32 92,-11 32,13 75,-53z"/>
   <path class="fil24" d="M8685 12169l136 -18c-52,-46 74,-39 -80,-37l0 -8c-91,14 -37,-47 -66,-151l10 214z"/>
   <path class="fil1" d="M10444 13847c-7,-54 -18,-39 38,-39l4 -57c-90,4 -94,-6 -117,79l75 17z"/>
   <path class="fil5" d="M10927 12365l33 -29 3 -58 -87 11 -27 44c39,30 -19,23 78,32z"/>
   <path class="fil15" d="M1864 12386c52,1 49,16 32,-28 -57,-64 16,-67 16,-68l-1 -38 -79 24c-1,112 -28,42 32,110z"/>
   <path class="fil1" d="M3276 13674l146 14 -70 -83c-93,39 -52,-17 -76,69z"/>
   <path class="fil18" d="M18795 14874l-90 -5c-31,169 -22,41 38,90 62,-52 22,5 52,-85z"/>
   <path class="fil1" d="M10435 12157c-21,105 -14,24 26,52l105 -9 -37 -60 -94 17z"/>
   <path class="fil1" d="M9007 12180c19,16 -44,33 55,28 137,-8 29,14 79,-41l-55 -36 -79 49z"/>
   <path class="fil1" d="M4364 12155c48,85 -26,29 64,49 41,9 40,1 81,-6l-37 -58 -108 15z"/>
   <path class="fil5" d="M2276 11427l-40 -50 -81 19c34,100 -32,32 53,54 79,19 68,-23 68,-23z"/>
   <path class="fil33" d="M17151 7903c34,-23 61,-34 81,-47 1,-1 -46,-24 69,-40l-162 -9 12 96z"/>
   <path class="fil1" d="M7837 13695l111 -6c61,-39 18,18 19,-41l-70 -37 -60 84z"/>
   <path class="fil5" d="M6362 12896c34,36 -34,35 53,38 128,4 41,-7 64,-38 -78,-52 -41,-44 -117,0z"/>
   <path class="fil11" d="M17523 6255c-54,-58 -26,-47 -142,-68 -56,-10 -116,-17 -171,-22l313 90z"/>
   <polygon class="fil8" points="10426,11517 10448,11539 10579,11521 10554,11460 "/>
   <path class="fil31" d="M25056 9821c105,6 69,-5 98,-21 12,-143 5,-39 -28,-79l-70 100z"/>
   <polygon class="fil1" points="11151,13687 11306,13684 11236,13606 "/>
   <path class="fil9" d="M16530 9358l-85 -124c-21,36 -16,-47 -12,69 3,106 9,18 8,27 68,43 34,18 89,28z"/>
   <path class="fil1" d="M4038 13673l149 11 -47 -68c-68,11 -64,13 -102,57z"/>
   <path class="fil11" d="M14753 11068l-17 -102 138 11c-29,-25 53,-30 -73,-35 -70,-3 -38,4 -80,22 -9,92 -27,41 32,104z"/>
   <path class="fil9" d="M20182 8286c15,16 -62,127 62,1 111,-113 9,-52 6,-60l-68 59z"/>
   <path class="fil31" d="M24089 9810c130,18 53,5 84,-18l-74 -91 -10 109z"/>
   <path class="fil11" d="M3891 12045c-6,41 -11,25 38,25l17 -128c-67,56 -38,-80 -55,103z"/>
   <path class="fil11" d="M17782 11521c29,-41 1,37 32,-57 9,-28 13,-60 17,-89 9,-66 13,-115 14,-181l-63 327z"/>
   <path class="fil24" d="M8624 13771l98 -18 -5 78c30,-32 29,55 23,-62l-88 -60 -48 35 20 27z"/>
   <path class="fil34" d="M26558 9078l113 -94c-36,-5 -45,-9 -67,-3 -68,20 -40,13 -65,28l40 21 -21 48z"/>
   <path class="fil4" d="M2298 7109l18 6c49,-38 61,70 26,-66 -27,-104 32,-3 -44,-53l0 113z"/>
   <path class="fil23" d="M3104 6777l35 -139 35 94c3,6 7,17 11,25l4 -105c-38,-28 45,-27 -64,-20l-21 145z"/>
   <path class="fil30" d="M2978 12944l128 5 1 -64c-50,47 79,40 -81,38 -22,-22 -68,30 0,-36l-49 9 1 48z"/>
   <path class="fil27" d="M24323 13384l87 -9c-24,-31 -11,-21 -40,-48 -19,-17 -24,-17 -41,-29l-6 86z"/>
   <path class="fil25" d="M5199 6847l-1 -59 55 8c-43,-45 67,-45 -80,-36 -7,139 7,56 26,87z"/>
   <path class="fil29" d="M7247 9003l98 60 -57 -105c-86,30 5,0 -41,45z"/>
   <path class="fil35" d="M16308 14302l-26 -125c-9,18 -38,-39 -19,65 14,79 -8,33 45,60z"/>
   <path class="fil26" d="M2617 12869c45,-27 48,39 32,-46l-86 -33c38,73 -14,11 54,79z"/>
   <path class="fil5" d="M3107 12885l-81 2c-68,66 -22,14 0,36 160,2 31,9 81,-38z"/>
   <path class="fil12" d="M15308 9956l13 -65c-35,-37 50,-33 -49,-29 9,106 0,50 36,94z"/>
   <path class="fil16" d="M8728 6845c25,-37 5,-8 24,-69l-73 23c-4,93 -6,11 49,46z"/>
   <path class="fil24" d="M2607 13129c54,-23 31,22 60,-47l-92 -10c14,25 11,26 32,57z"/>
   <path class="fil12" d="M11482 13832c-9,-1 -33,1 -46,8 -61,35 5,-24 -16,35 104,49 61,-23 62,-43z"/>
   <path class="fil27" d="M24775 9623c42,0 29,10 30,-35 -26,-50 36,-51 -29,-40l-44 38c52,5 41,-10 43,37z"/>
   <path class="fil12" d="M2813 13522l26 24 14 -112c-35,25 -39,-29 -40,88z"/>
   <path class="fil26" d="M10448 13874l61 19c-45,-45 -21,-8 -27,-85 -56,0 -45,-15 -38,39l4 27z"/>
   <path class="fil29" d="M8119 7205c42,-33 44,49 36,-77 -130,-6 -37,-2 -72,38l65 -23 -29 62z"/>
   <path class="fil26" d="M3015 13776c36,32 -56,67 60,12l15 -64c-7,6 -29,21 -34,24 -5,3 -16,19 -20,14 -4,-6 -14,9 -21,14z"/>
   <path class="fil26" d="M10960 12336c21,-35 40,8 4,-72 -162,-26 -39,-9 -88,25l87 -11 -3 58z"/>
   <polygon class="fil26" points="1999,12342 2017,12269 1911,12252 1912,12290 1995,12275 "/>
   <path class="fil12" d="M8450 11274c52,-56 52,-4 0,-67 -24,28 -87,8 0,67z"/>
   <path class="fil33" d="M2300 6995c86,-15 43,8 40,-47 -4,-76 21,-19 -31,-29l-9 76z"/>
   <path class="fil36" d="M8768 6699l62 -14c-10,-104 5,-33 -36,-56l-26 70z"/>
   <path class="fil15" d="M17713 9501c-54,-44 -32,-28 -61,-91 -23,42 -41,-62 -13,65l74 26z"/>
   <polygon class="fil24" points="10926,12399 10989,12401 10960,12336 10927,12365 "/>
   <path class="fil17" d="M2382 7222c-25,-38 -37,-53 -66,-107l-18 -6 29 84 55 29z"/>
   <path class="fil27" d="M5306 8703l-58 -21 27 66c50,4 34,12 31,-45z"/>
   <polygon class="fil24" points="8669,12407 8719,12400 8721,12361 8679,12341 "/>
   <path class="fil11" d="M16491 6242c6,-64 -13,-52 49,-45 -46,-41 68,-41 -76,-31l27 76z"/>
   <path class="fil37" d="M16348 15929l-20 -62c-76,-33 -5,-10 -56,19 8,4 19,0 23,11 3,9 16,8 20,10 5,3 27,17 33,22z"/>
   <path class="fil11" d="M25696 8156c-4,-52 0,-60 -10,-114 -2,-9 -7,-34 -10,-42 -18,-57 -20,-46 -29,-62l49 218z"/>
   <path class="fil8" d="M15918 8599l52 -180c-14,19 -18,-7 -42,78 -7,27 -8,76 -10,102z"/>
   <path class="fil26" d="M7371 12162c27,-43 56,66 13,-77 -91,-9 -7,-7 -48,23 51,16 44,-33 35,54z"/>
   <path class="fil15" d="M16605 5885c21,-35 -32,-32 49,-18l-89 -51c20,133 -5,20 40,69z"/>
   <path class="fil25" d="M5354 7067l32 55 23 -87c-50,26 -20,-8 -55,32z"/>
   <path class="fil15" d="M9887 11255c54,25 52,32 56,-32 -62,-13 -46,26 -56,32z"/>
   <path class="fil12" d="M6926 12737l66 12c-55,-128 -49,-23 -66,-12z"/>
   <path class="fil30" d="M10855 12151c-54,5 -36,13 -30,-49 -32,49 -60,-70 -16,76 94,1 10,5 46,-27z"/>
   <path class="fil29" d="M3076 9761l-59 -15c14,111 -3,28 36,57l23 -42z"/>
   <path class="fil26" d="M2839 13546l-26 -24c-37,36 -35,-56 -28,67l54 -43z"/>
   <path class="fil26" d="M7156 13974c-40,-15 -42,29 -23,-42 -36,42 -26,-25 -33,91l56 -49z"/>
   <path class="fil24" d="M1862 8968c-23,-48 -19,-38 -29,-103l-30 61 59 42z"/>
   <path class="fil36" d="M20552 8046c-52,-28 -13,-32 -70,2 -12,45 -12,26 34,16 3,-1 14,-5 18,-6 4,-1 13,-7 18,-12z"/>
   <path class="fil26" d="M2915 13630c3,-51 -11,-40 36,-40 -32,-33 38,-30 -51,-26 -26,135 -7,11 15,66z"/>
   <path class="fil11" d="M24656 9859c-54,-24 -37,-5 -71,-34l27 59c129,25 -5,11 44,-25z"/>
   <path class="fil26" d="M6007 12165l-13 -70c-46,2 -36,-10 -32,34l45 36z"/>
   <path class="fil38" d="M17730 16298c-47,0 -28,-12 -14,-70l-26 35c-13,50 -11,-3 -6,73l46 -38z"/>
   <path class="fil37" d="M18083 16579c-35,-38 17,-15 -46,-40 -50,-21 -19,-8 -80,-17l126 57z"/>
   <path class="fil22" d="M20383 7701l-21 -16c-43,26 -24,-44 -40,56l61 -40z"/>
   <path class="fil26" d="M9556 12880c-65,2 -51,19 -51,-42l-24 58c150,24 16,8 75,-16z"/>
   <polygon class="fil30" points="7210,13739 7148,13750 7171,13795 "/>
   <path class="fil24" d="M2935 11740c-49,17 -36,25 -38,-27l-35 53c146,11 16,8 73,-26z"/>
   <path class="fil30" d="M9846 13648c-20,-113 -25,-45 43,-70l-58 -19c-11,53 -24,-7 -5,51l20 38z"/>
   <path class="fil30" d="M8607 13633c-54,5 -36,13 -29,-49 -24,60 -52,-77 -14,77l43 -28z"/>
   <path class="fil19" d="M17790 16216l1 -90c-57,72 -79,-104 -32,48 46,153 -96,7 31,42z"/>
   <polygon class="fil25" points="2643,7219 2686,7136 2594,7146 2661,7145 "/>
   <path class="fil8" d="M7931 13225c-43,0 -28,10 -35,-38l-33 57 68 -19z"/>
   <path class="fil15" d="M4975 13107l67 0c-6,-5 -12,-25 -15,-17 -2,7 -14,-8 -16,-7l-36 24z"/>
   <path class="fil26" d="M2916 12158c-18,-83 -22,-34 34,-51l-52 -29 18 80z"/>
   <path class="fil26" d="M3929 12070c-49,0 -44,16 -38,-25l-9 62 47 -37z"/>
  </g>
 </g>
</svg>
