<?xml version="1.0" encoding="UTF-8"?>
<!DOCTYPE svg PUBLIC "-//W3C//DTD SVG 1.1//EN" "http://www.w3.org/Graphics/SVG/1.1/DTD/svg11.dtd">
<!-- Creator: CorelDRAW X7 -->
<svg xmlns="http://www.w3.org/2000/svg" xml:space="preserve" width="297mm" height="210mm" version="1.1" style="shape-rendering:geometricPrecision; text-rendering:geometricPrecision; image-rendering:optimizeQuality; fill-rule:evenodd; clip-rule:evenodd"
viewBox="0 0 29700 21000"
 xmlns:xlink="http://www.w3.org/1999/xlink">
 <defs>
  <style type="text/css">
   <![CDATA[
    .fil3 {fill:#040404}
    .fil24 {fill:#072701}
    .fil17 {fill:#11150B}
    .fil8 {fill:#220D1B}
    .fil20 {fill:#283214}
    .fil19 {fill:#2D312D}
    .fil23 {fill:#323446}
    .fil18 {fill:#334C2C}
    .fil15 {fill:#3C5B3C}
    .fil12 {fill:#3C6E45}
    .fil21 {fill:#625C64}
    .fil6 {fill:#689B48}
    .fil16 {fill:#69574D}
    .fil25 {fill:#747373}
    .fil22 {fill:#838383}
    .fil1 {fill:#89C44E}
    .fil26 {fill:#94BA6A}
    .fil5 {fill:#9D9C9B}
    .fil2 {fill:#A98257}
    .fil9 {fill:#CCC3BB}
    .fil14 {fill:#D2DC49}
    .fil10 {fill:#D9AE87}
    .fil11 {fill:#E8D6C7}
    .fil4 {fill:#EEEEEE}
    .fil13 {fill:#F9F0D4}
    .fil7 {fill:#FEE2C4}
    .fil0 {fill:white}
   ]]>
  </style>
   <clipPath id="id0">
    <rect x="36821" y="3937" width="27146" height="13494"/>
   </clipPath>
   <clipPath id="id1">
    <rect x="37311" y="2667" width="26167" height="16034"/>
   </clipPath>
   <clipPath id="id2">
    <rect x="37708" y="3090" width="25374" height="15187"/>
   </clipPath>
 </defs>
 <g id="Layer_x0020_1">
  <metadata id="CorelCorpID_0Corel-Layer"/>
  <g style="clip-path:url(#id0)">
   <image x="36821" y="3937" width="27146" height="13494" xlink:href="what_Images\what_ImgID1.png"/>
  </g>
  <g style="clip-path:url(#id1)">
   <image x="37311" y="2667" width="26167" height="16034" xlink:href="what_Images\what_ImgID2.png"/>
  </g>
  <g style="clip-path:url(#id2)">
   <image x="37708" y="3090" width="25374" height="15187" xlink:href="what_Images\what_ImgID3.png"/>
  </g>
  <g id="_1956028005952">
   <path class="fil0" d="M4428 13651l1651 -10c369,625 426,525 426,1032 0,486 -4,975 2,1461l-2510 7c-3,-491 0,-980 0,-1468 0,-361 -32,-273 146,-568 91,-151 188,-307 285,-454zm10336 2568c55,58 33,-3 24,87 -242,25 -1511,12 -1903,7 -286,-3 -237,-166 -236,-397l-1 -1905c0,-205 -56,-438 111,-547l2035 -8c28,226 26,2531 -11,2620l-19 143zm2326 -1481c33,66 29,232 2,300 -64,-36 -42,-49 -41,-154 0,-95 -22,-117 39,-146zm-8861 -151c51,90 51,372 0,461 -53,-90 -54,-372 0,-461zm17842 440l-159 12c-29,122 19,69 -61,112l-8 -400c261,-74 306,38 228,276zm-17970 -5l-165 25c-20,131 14,66 -55,97l-9 -393c183,-36 342,-34 229,271zm-379 -61c0,-106 -19,-156 32,-240 71,48 49,17 52,136 2,91 11,123 -30,185 -93,-35 -63,14 -200,-8 -41,-90 -56,-225 -8,-304 66,102 -7,140 55,261 107,6 35,27 99,-30zm2200 79c-107,9 -83,19 -170,-39 -76,-201 10,-317 221,-245 52,136 67,190 -51,284zm16473 -34c-252,216 -400,-340 -52,-268 62,66 56,54 58,142l-197 11c25,186 98,66 191,115zm-1903 0c-78,56 -93,48 -187,28 -223,-257 188,-470 193,-152l-200 7c35,163 105,72 194,117zm-970 -95c36,103 64,117 177,63 -8,140 -152,73 -224,-1 -95,-198 226,-399 249,-98 -98,22 -128,-4 -202,36zm-5774 82c-196,207 -360,-179 -164,-255 135,-18 169,16 169,146l-196 11c8,127 99,97 191,98zm-9367 -82c45,168 86,44 190,98 -151,92 -280,-12 -239,-174 33,-130 245,-175 246,48 -94,8 -119,-8 -197,28zm-1258 128l-2 -434c174,-6 355,-12 366,202 12,236 -184,251 -364,232zm18361 -201l-191 51 -8 150c-62,-23 -62,40 -59,-180 2,-85 -1,-167 4,-252 256,-37 307,36 254,231zm1009 207c-46,-73 -31,-209 -22,-309 136,32 20,-7 124,-3 96,3 9,-12 51,20 -129,86 -111,-17 -124,185 -9,141 20,36 -29,107zm-937 -266c68,-75 69,-63 175,-41 58,99 45,188 36,300 -136,-29 -90,50 -209,-21 -27,-65 -44,-88 36,-128 117,-57 88,46 118,-85 -112,-89 -74,31 -156,-25zm-695 -39c65,-49 36,-27 71,-112 77,122 -43,52 107,126l-86 42 5 168c82,66 41,-8 73,81l-114 -13c-41,-150 24,-153 -56,-292zm-275 303c-38,-73 -22,-195 -22,-289 28,-16 151,-29 210,-12 57,88 57,229 15,308 -69,-108 -1,-139 -52,-265 -209,-18 -53,136 -151,258zm-772 6c-47,-75 -28,-193 -27,-298 71,-29 181,-2 212,-2 100,-2 54,-47 165,-3 39,90 47,228 -3,301 -73,-133 41,-199 -82,-272 -112,62 -44,148 -73,268 -148,-136 75,-253 -140,-262 -59,120 15,155 -52,268zm-6538 -261c-65,126 13,144 -52,260 -49,-77 -31,-189 -27,-296 355,-111 243,256 217,294 -50,-90 -9,-135 -43,-253l-95 -5zm-505 -36c74,-32 119,-22 207,-18 0,89 -76,149 -134,232l64 30c42,15 20,-3 75,23 -68,44 -137,32 -223,14l142 -235c-78,-40 -46,6 -131,-46zm-157 264c-57,44 -14,36 -124,22 -52,-219 80,-93 158,-206 -76,-125 -59,-8 -156,-49 102,-109 269,-86 203,259l-81 -26zm-368 -60l177 40c20,168 -107,193 -229,127 -62,-112 16,-75 5,-212 -7,-91 -62,-77 36,-172l202 9c-134,259 -15,80 -191,208zm-336 -158c27,-71 114,-100 174,-43 51,49 34,193 37,264 -81,30 -241,63 -232,-91 144,-111 146,21 169,-126 -92,-56 -59,-16 -148,-4zm-6308 10c170,150 40,273 -224,226l-1 -425c458,-45 225,198 225,199zm598 76l90 149c-114,4 -47,8 -132,-99 -70,68 -41,79 -127,105l82 -157 -82 -144c88,17 66,35 128,103 63,-72 40,-95 121,-101 -17,61 -40,80 -80,144zm-1589 -147c84,9 66,29 125,103 66,-65 43,-84 124,-101l-84 143 96 147c-75,-1 15,76 -136,-97 -77,90 -34,97 -129,102l88 -146 -84 -151zm6989 246c-85,-68 -102,-171 -166,-255 -13,116 12,238 -34,321 -55,-95 -41,-324 -14,-442 92,22 155,203 200,286 135,-151 79,-241 210,-279 34,103 40,338 -5,429 -60,-76 -31,-147 -35,-325l-156 265zm1462 -372c73,-10 65,-10 30,60 -28,-17 -84,-6 -30,-60zm6358 354c-100,169 -342,82 -347,-135 -5,-189 192,-312 345,-183 -77,49 -267,-72 -283,161 -17,239 156,166 285,157zm-14417 99l172 -473c43,62 46,-4 9,105 -14,41 -38,94 -54,135 -36,91 -53,197 -127,233zm11434 -1524l2133 -5c-5,137 -77,191 -78,291 -1,56 43,244 54,317 48,326 47,1159 2,1486 -12,91 -51,240 -55,316 -8,132 81,162 67,301l-2116 1c77,-377 129,71 36,-595 -147,-1056 58,-1659 53,-1825 -3,-79 -77,-202 -96,-287zm-7558 -2626l-400 -4c-42,-160 -32,-2795 7,-2885 135,-42 910,-16 1115,-16 584,0 371,48 742,392 136,29 464,-45 547,40 99,33 52,433 55,543 10,393 86,1602 22,1843 -91,347 -494,410 -809,423 -233,10 -1098,61 -1263,4 -36,-108 -28,-228 -16,-340zm-8936 -2241c103,11 30,1 132,63l106 -79 106 76c86,-100 26,-138 63,-268 224,-26 2091,-31 2188,14 62,113 25,1520 25,1775 0,682 25,574 -1217,574 -300,0 -600,0 -900,0 -352,1 -520,55 -519,-361 0,-286 -34,-1628 16,-1794zm13519 925c58,110 -17,142 54,266 207,-19 49,-121 134,-267 52,75 34,218 25,315 -116,-38 -159,50 -222,-42 -50,-73 -33,-205 9,-272zm6112 233c-82,-224 197,-306 262,-152 93,221 -200,322 -262,152zm-14038 59c-77,30 -74,40 -161,8 -28,132 18,77 -61,121l-7 -402c255,-73 306,40 229,273zm14584 9c-298,65 -265,-234 -151,-285 161,-74 297,132 151,285zm-14266 -18c-91,49 -100,45 -199,6 -193,-277 204,-438 209,-141l-199 10c15,140 55,92 148,111l41 14zm-2139 -103c69,167 97,47 188,95 -148,97 -275,-5 -236,-173 30,-130 248,-185 246,48 -99,8 -117,-9 -198,30zm7793 139c-53,-87 -56,-345 -1,-450 54,72 29,95 38,193l214 6c8,-102 -17,-127 38,-197 40,60 35,251 30,337 -7,126 8,49 -31,115 -54,-87 -30,-80 -35,-195l-219 -9c-4,124 20,120 -34,200zm-6752 -166c-15,130 27,130 -49,152 -45,-71 -21,-315 -14,-430 113,-22 182,-25 264,53 37,197 -33,203 -201,225zm15622 -10l118 159c-122,-2 -86,-54 -175,-130 -42,101 8,59 -54,143 -47,-86 -49,-363 0,-451 57,73 30,143 35,252 111,-44 24,-91 168,-97l-92 124zm-941 -66c199,209 -29,249 -226,230l-4 -419c73,-11 185,-29 249,16 109,78 -18,170 -19,173zm-4917 -33c16,-78 78,-46 135,-23 45,87 51,221 2,295 -47,-81 -19,-149 -36,-261l-101 -11zm0 0l-16 264c-136,-71 63,-243 -139,-255 -68,95 0,144 -50,268 -58,-84 -37,-185 -33,-301 81,-24 151,-19 238,24zm-524 34c28,-80 104,-120 175,-51 64,62 36,208 30,287 -135,-51 -70,53 -211,-27l-19 -95c148,-99 155,19 175,-117 -69,-47 -69,-41 -150,3zm-199 237c-52,-64 -37,-8 -40,-128 -1,-50 4,-114 5,-165 85,-39 -10,11 64,2 80,-10 25,-56 116,4 -62,43 -94,18 -119,84 -26,69 13,114 -26,203zm-7845 5c-38,-77 -27,-215 -18,-315 219,41 37,-94 178,28 -254,91 -44,108 -160,287zm-932 -274c72,-70 76,-61 178,-41 55,104 36,186 39,302 -140,-27 -89,48 -214,-21l-24 -99c137,-83 148,5 175,-111 -123,-94 -66,27 -154,-30zm-556 28c77,123 180,5 127,211 -93,50 -108,51 -184,0 118,-63 54,48 148,-51 -60,-92 -54,-31 -137,-106 -5,-142 60,-176 183,-105 -102,53 -31,-26 -137,51zm-421 110l47 -19 52 -166c94,37 73,104 119,208 59,-102 22,-185 117,-202l-84 303c-80,-25 -40,36 -85,-82 -15,-39 -27,-93 -45,-139 -32,91 -39,158 -97,228 -72,-59 -104,-230 -105,-318 76,44 68,87 81,187zm9248 -95c126,82 125,250 -219,218l-4 -422 243 1c61,103 59,126 -20,203zm-10014 228c-58,-99 -32,-322 -21,-450 114,41 193,229 276,319 11,-103 -13,-245 35,-324 60,102 29,326 23,454 -121,-50 -187,-226 -279,-322 -11,113 12,242 -34,323zm9422 21c9,-92 124,-433 202,-468 -20,105 -124,414 -202,468zm-338 -368c34,130 100,42 195,185 -11,179 -141,211 -269,106 43,-22 292,23 195,-104 -80,-105 -209,-7 -169,-227 86,-79 139,-83 228,-9 -104,52 -109,-58 -180,49zm-457 -91c87,67 115,224 161,328 36,-48 50,-91 75,-160 5,-16 29,-87 34,-97 55,-100 -9,-33 77,-66l-150 428c-94,-29 -38,54 -136,-195 -15,-39 -30,-75 -46,-114 -1,-3 -22,-58 -22,-58 -4,-19 9,-58 7,-66zm6665 305c26,161 22,529 -17,684l1 79c67,106 47,414 -87,480 -235,21 -1811,46 -1926,-37 -177,-127 -113,-647 -113,-866 0,-319 -12,-662 3,-978l40 -29 -34 -68c-25,-156 -43,-558 64,-677 134,-149 475,-99 668,-99 256,0 512,0 767,0 246,0 472,-64 633,130l-16 73c2,225 -30,1171 17,1308zm3731 -3311c-135,-24 -96,-106 22,-92l-22 92zm-2514 2c-20,-35 -78,-393 26,-445 19,30 82,389 -26,445zm-4312 -7c-39,-69 -33,-540 0,-637 94,48 62,-21 62,324 0,374 30,289 -62,313zm-178 12c-77,-45 -57,6 -58,-134 0,-62 2,-128 2,-191 1,-296 -35,-273 52,-327 41,81 38,584 4,652zm-10752 -1c-46,-83 -54,-367 4,-450 79,41 46,127 47,232 1,277 28,173 -51,218zm7990 -14c-72,20 -134,28 -185,-42 -12,-18 -109,-352 29,-390 78,165 -106,455 213,353l28 -355c107,42 63,325 53,438 -145,-31 -6,-40 -138,-4zm-7073 -402c6,-44 1,-125 5,-148 25,-144 1,-56 79,-81l-3 629c-71,-1 -41,6 -86,-40 -404,282 -366,-607 5,-360zm12053 305l170 12c59,-227 -55,-299 65,-351 60,91 26,298 32,427l-53 16c-38,-27 -30,-14 -64,-26 -112,52 -193,53 -233,-72l-28 -77c0,-125 -35,-226 57,-282 79,66 39,244 54,353zm-9842 252c-49,-61 -27,-478 -16,-582 81,3 14,-22 93,48 298,-281 454,497 -18,364 -19,248 -12,161 -59,170zm9390 -579c304,-112 354,357 150,425 -308,102 -392,-335 -150,-425zm-5102 3c275,-119 383,348 147,423 -286,90 -393,-317 -147,-423zm-5188 577c-43,-84 -24,-466 -14,-583 75,1 54,4 76,44 307,-280 495,489 1,371 -7,123 31,140 -63,168zm-836 -573c276,-123 363,312 179,405 -279,142 -454,-282 -179,-405zm15661 415c-5,-109 -2,-222 -2,-332 -1,-317 -27,-251 47,-301 48,82 26,135 33,244 412,-178 321,336 189,396 -133,10 -69,2 -169,-20 -72,-16 49,16 -98,13zm-118 -74c-95,218 -422,45 -353,-217 52,-196 387,-221 365,78l-290 15c14,206 146,130 278,124zm-6359 12c-84,169 -439,71 -348,-236 64,-217 406,-174 350,87l-281 8c22,277 193,89 279,141zm-3953 24c-232,132 -430,-21 -359,-253 65,-215 411,-196 350,80l-281 9c7,75 8,140 104,153 147,19 66,-81 186,11zm-2731 -34c35,132 -413,160 -342,-207 42,-219 405,-219 359,69l-282 6c16,264 174,108 265,132zm-5296 1c-88,210 -424,48 -351,-223 56,-207 416,-192 352,84l-280 7c14,219 138,133 279,132zm-1992 11c-60,151 -443,100 -351,-237 57,-210 405,-195 355,87l-281 7c17,273 193,83 277,143zm-1022 74c-395,-347 240,-688 250,-242 -93,35 -186,14 -293,27 23,258 187,83 286,157 -78,71 -128,61 -243,58zm22149 -324c-62,-39 -49,-2 -42,-99l87 3c1,106 28,47 -45,96zm-2966 322c-52,-84 -45,-557 0,-647 116,75 13,-37 59,242 339,-180 308,312 234,416 -52,-71 -31,29 -42,-118 -10,-130 41,-147 -39,-280l-138 33c-88,190 57,282 -74,354zm-238 -452c82,30 43,0 121,57l-128 45 12 267c110,50 65,-37 115,42 -233,190 -202,-187 -194,-318l-73 -29c161,-207 21,-81 119,-200 36,68 22,40 28,136zm-1151 38c106,-57 217,-21 330,0l-79 198c-56,72 -123,21 -212,81 108,87 136,2 268,80 135,164 -280,311 -358,146 -15,-127 3,-55 26,-133 70,-241 -60,-200 25,-372zm-1253 414c-65,-32 -38,41 -54,-79l11 -360c90,10 9,-22 94,54 60,-72 67,-92 154,-40 -50,120 -130,-6 -173,136 -32,102 27,186 -32,289zm-729 -92c104,83 65,-47 112,63 -75,47 -76,38 -165,16 -103,-246 61,-282 -98,-389 124,-104 37,-64 113,-184 49,71 24,43 38,147 107,8 54,-10 124,49l-132 22 8 276zm-5318 0c109,84 64,-47 114,63 -78,47 -71,36 -162,18 -91,-187 41,-301 -104,-390 135,-118 33,-54 114,-189 50,78 24,47 38,159 107,-9 62,-14 116,27 -125,72 -131,-84 -116,312zm-735 81c-94,25 -93,25 -166,-28 -78,-205 106,-176 236,-229l-19 -95c-96,-33 -117,-5 -204,14 14,-145 220,-118 268,-53 55,75 34,306 24,395 -138,-38 2,-42 -139,-4zm-1256 6c-81,-22 -49,56 -73,-73l19 -364c56,18 26,-37 63,62 97,-76 122,-120 185,-3l-174 47 -20 331zm-5345 -423l90 312c47,-102 57,-264 144,-331 87,59 103,232 144,334l93 -303c36,-33 -44,-32 75,-33 -2,93 19,26 -31,71 -4,114 -58,301 -123,381 -83,-34 -62,-37 -95,-150 -21,-70 -28,-98 -65,-157 -54,102 -62,230 -131,304 -95,-44 -144,-273 -153,-382l-33 -67c110,-11 51,-3 85,21zm-2777 426c-57,-64 -37,-339 -23,-437 77,11 28,-6 84,56 65,-74 109,-113 171,-17 -79,49 -158,6 -184,135 -9,50 1,110 0,160 -4,153 7,78 -48,103zm-1174 -585c46,68 27,24 35,130 118,11 45,-4 100,34 -45,78 10,25 -122,60l7 265c111,103 57,-54 114,72 -76,44 -80,39 -167,6 -46,-103 -31,-211 -25,-332l-71 -50c94,-68 64,-34 88,-175l41 -10zm21463 316l-54 -15c-34,157 -55,248 -137,286 -64,-71 -168,-365 -129,-444 100,41 107,234 148,330 36,-99 64,-275 142,-334 80,68 98,231 143,333 37,-100 47,-287 147,-331 20,49 -57,399 -160,446 -62,-61 -87,-178 -100,-271zm-640 190c5,-203 -200,-52 -209,-239 -6,-148 174,-160 281,-76 -43,19 1,12 -64,16 -120,7 -92,-46 -150,74l211 106c44,216 -148,260 -285,143 115,-58 64,56 216,-24zm-1799 81c-49,-86 -43,-557 -1,-648 74,45 44,-29 54,114 4,60 -3,64 9,131 92,-51 200,-95 253,42 17,46 55,271 -22,364 -47,-60 -17,49 -38,-84 -23,-141 61,-207 -74,-315l-117 58c-61,275 66,273 -64,338zm-2165 0c-71,-42 -48,0 -48,-133 -1,-60 1,-121 1,-182 -1,-272 -34,-274 47,-332 51,88 23,130 36,243 185,-80 271,-66 276,189 5,275 3,187 -52,215 -50,-88 -16,-241 -39,-354 -271,-157 -147,244 -221,354zm-1792 -299c20,-175 162,-193 283,-97 -128,68 -96,-70 -209,51 48,126 114,44 213,183 -13,183 -180,220 -293,106 105,-65 152,95 223,-75 -75,-110 -134,-23 -217,-168zm-564 299c-64,-34 -37,38 -52,-80 -2,-12 2,-112 3,-134 0,-77 -2,-144 6,-221 127,-4 -18,48 121,12 93,-25 225,-77 231,182 8,296 4,211 -49,241 -57,-91 -9,-217 -42,-348 -85,-61 -94,-55 -178,14 -28,123 15,244 -40,334zm-467 -357c14,-47 346,-344 301,349 -226,-49 -89,38 -301,-3l-32 -124c84,-135 143,-79 257,-132 -10,-202 -103,-93 -225,-90zm-112 268c28,146 -320,132 -324,-124 -3,-197 190,-335 335,-171 -79,51 -67,-30 -220,19 -163,410 209,276 209,276zm-1765 232c33,-184 99,-90 9,-298 -94,-217 -124,-220 -76,-293 93,57 114,210 171,304 58,-94 76,-288 190,-297 -14,96 -84,234 -125,329 -25,58 -43,115 -68,172 -44,101 -18,85 -101,83zm-1363 -516c87,-94 170,-111 272,-22 -125,65 -68,-55 -205,44 54,160 234,62 217,237 -15,148 -200,150 -300,58 43,-20 17,-15 63,-17 100,-3 49,59 154,-17 2,-124 -82,-93 -199,-153l-2 -130zm-955 373c-69,-68 -172,-372 -128,-445 92,44 108,231 142,331 45,-97 54,-271 146,-334 82,72 85,217 136,315 68,-115 47,-306 169,-304 -17,120 -73,384 -174,437 -77,-69 -88,-216 -134,-316 -63,108 -52,263 -157,316zm-1641 -7c-133,-32 -5,-47 -118,-14 -98,29 -73,38 -177,1 -138,-204 109,-197 220,-247 -11,-205 -103,-90 -225,-91 13,-42 347,-350 300,351zm-2777 11c-57,-88 -41,-323 -17,-446 125,36 -6,51 121,13 158,-46 217,-4 225,187 10,215 11,185 -31,245 -117,-83 6,-122 -68,-366 -96,-39 -82,-31 -170,20 -54,269 56,265 -60,347zm-2513 -12c-114,-27 -16,-43 -118,-12 -106,33 -75,32 -179,-1 -108,-211 97,-192 223,-246 -17,-198 -109,-85 -227,-92 13,-59 361,-328 301,351zm-659 -75c10,-131 12,-72 -109,-126 -237,-106 8,-350 182,-188 -114,73 -69,-64 -204,50 41,107 97,79 204,135 36,237 -166,279 -284,156 114,-66 54,58 211,-27zm-1985 86c-57,-71 -40,-42 -39,-163 1,-135 -32,-383 39,-491 70,98 30,12 41,242 113,-22 272,-149 280,194 7,278 -1,191 -53,210 -50,-71 -18,-251 -39,-358 -298,-123 -120,234 -229,366zm4496 -3c-48,-81 -26,-237 -26,-346 -1,-379 -3,-258 56,-297 44,100 14,256 27,371 155,-53 102,-168 262,-161l-155 169c33,118 109,149 158,263 -185,-33 -110,-162 -264,-206 -16,130 31,160 -58,207zm15672 -629c97,12 87,-10 65,91 -122,-2 -81,5 -65,-91zm-15175 90c-83,0 -19,38 -83,-32 2,-66 24,-56 89,-57l-6 89zm1666 135c92,-85 93,-313 264,-206 -91,82 -109,8 -123,158 78,31 43,3 123,60l-125 42c3,109 23,266 -22,349 -64,-30 -39,41 -56,-78 -1,-11 4,-115 4,-136 3,-140 27,-123 -65,-189zm-3779 6c92,-96 90,-319 263,-210 -89,75 -115,14 -123,169 100,12 38,-11 125,44l-128 46c4,110 25,269 -24,349 -79,-41 -53,-29 -51,-160 1,-63 1,-126 7,-196l-69 -42zm-1253 -41c-14,-63 -5,-47 0,-118 9,-118 -33,-38 42,-96 69,134 21,134 -42,214zm7536 -936l127 7 -13 145 -126 2 12 -154zm-1756 54c-21,99 -12,81 -118,115l-91 -148 -215 1 -98 140c-180,-48 -62,-164 5,-313 46,-100 91,-264 174,-324 198,24 220,407 343,529zm-3937 81c-8,-120 182,-544 285,-612 116,35 151,196 201,304 57,121 173,236 64,327 -117,-8 -77,-45 -154,-135l-216 8c-72,108 -28,164 -180,108zm-2475 12c-49,-136 208,-586 273,-626 118,44 153,212 210,322 61,117 175,255 31,316 -93,-39 -65,-59 -130,-139l-216 7c-71,104 -29,149 -168,120zm-471 -18c-64,43 -26,27 -114,16 -32,-124 -31,-488 0,-620l114 20c58,77 32,101 40,217l206 -1 15 -234 119 17c31,97 33,495 -1,599l-125 -4 -8 -224 -206 5c-8,111 19,136 -40,209zm4973 -107l-103 -27c-56,89 3,52 -59,122 -53,51 0,33 -111,36 -38,-126 -41,-494 0,-621 644,-115 412,361 416,410 8,108 92,85 18,199 -130,30 -92,-4 -161,-119zm-1069 -63c-48,50 -49,31 -135,39 -5,113 15,66 -38,131 -55,36 -23,29 -113,15 -33,-121 -31,-488 -3,-612 618,-106 530,412 289,427zm-1118 12c-39,25 1,10 -56,26 -2,0 -64,6 -73,6 -9,103 12,61 -40,120 -56,44 -16,36 -112,20 -34,-111 -36,-497 1,-606 510,-133 596,335 280,434zm5205 163c-24,-77 -38,-478 -13,-556 32,-101 386,-75 478,-31l-10 105c-126,59 -209,-17 -323,50 38,83 -39,47 110,62 59,5 47,-6 126,11l-10 126c-76,19 -91,3 -143,12 -127,22 -48,-15 -83,62 113,66 195,-9 330,49l-2 119c-104,26 -356,33 -460,-9zm516 -436c-9,-226 368,-320 391,60 -80,102 -139,181 -260,154 -19,-236 130,-51 113,-247 -220,-59 -33,139 -244,33zm-1624 356l34 -102c178,-18 103,113 261,48 -11,-153 -123,-54 -265,-211 -42,-295 213,-366 396,-183l-66 87c-99,-12 -86,-84 -187,-5 43,149 388,44 268,355 -85,221 -326,95 -441,11zm-2732 81c-20,-72 -27,-456 -14,-535 18,-111 95,-81 208,-80 91,1 167,-3 265,10l2 127c-127,46 -217,-18 -326,45 70,150 -59,4 236,74l-11 124c-79,21 -88,4 -141,13 -129,23 -48,-16 -84,61 108,63 199,0 335,46l-18 135c-142,0 -321,28 -452,-20zm-2091 -185c-99,-100 -356,-61 -274,-315 47,-148 321,-191 392,-5l-47 61c-139,13 -117,-111 -204,19 79,100 150,32 235,114 73,68 71,197 3,269 -127,132 -456,72 -371,-135 152,-40 200,183 266,-8zm-489 -136c13,-90 -13,-31 48,-108 -72,-72 -77,-67 -32,-181l117 19c41,123 1,251 -133,270zm5990 314l-12 -477 -213 -25 11 -92c128,-28 468,-43 578,13l-8 93 -210 13 -17 488c-93,23 -50,25 -129,-13zm-1741 -285c-57,86 -60,239 -145,311 -157,-35 -267,-552 -247,-617l113 -13 106 314c79,-124 45,-301 204,-311 73,69 74,195 135,296 87,-149 40,-337 219,-286 41,108 -38,255 -79,366 -53,146 -28,248 -193,247l-113 -307zm-4642 304c-46,-147 -19,-327 -22,-490l-220 -35 12 -85c106,-36 474,-40 574,9 -11,154 -54,86 -216,109l-16 494 -112 -2zm-1760 -309c-85,121 -45,297 -201,311 -81,-75 -102,-222 -142,-331 -54,-149 -139,-262 34,-302 76,92 77,203 137,314 68,-110 41,-272 181,-309 99,62 94,213 149,310 60,-107 60,-233 138,-316l82 27c47,102 -133,560 -187,609 -137,-18 -145,-179 -191,-313zm-1740 12859l25347 0 0 -14288 -25347 0 0 14288z"/>
   <path class="fil0" d="M13025 11124c255,23 754,-5 1026,-18 660,-31 375,-353 428,-580 158,-26 214,2 357,10l-52 -1964 -1792 -15 33 2567z"/>
   <path class="fil1" d="M21104 9196c63,-84 170,-48 408,-48 118,0 346,-46 420,48 -66,76 -763,77 -828,0zm-4 -185c67,-90 205,-53 438,-53 118,0 349,-50 396,70 -127,40 -455,19 -634,22 -171,2 -133,8 -200,-39zm388 -157c-272,0 -327,39 -385,-55 105,-70 499,-35 648,-37 156,-2 126,-29 174,66 -112,58 -304,25 -437,26zm-841 -480l2 2062 31 24 1727 9c173,-135 104,-469 107,-666l55 -21c-47,-137 -15,-1083 -17,-1308 -102,-43 -47,-74 -151,-107 -89,-29 -1673,-28 -1754,7z"/>
   <path class="fil1" d="M13309 15840l-91 50c-29,-274 367,-489 622,-484 229,5 691,282 581,477 -61,-17 -63,-36 -99,-87 -42,72 -118,44 -218,41 -88,-2 -177,0 -265,0 -176,0 -355,-4 -530,3zm380 -1408c535,-195 807,625 295,808 -555,197 -860,-602 -295,-808zm256 -317c-77,-11 -111,22 -158,-50l-53 -59 56 -153 211 -10c36,82 25,151 23,258l-79 14zm383 -252c12,194 44,446 -237,347 1,-87 1,-27 44,-107 -121,-106 -96,-150 -5,-260l198 20zm-994 252c-47,-71 -32,-167 -21,-263l359 11c45,84 56,172 9,249 -152,-50 14,-79 -114,-181l-45 182c-151,-55 23,-86 -104,-179 -76,136 45,128 -84,181zm-434 -40l-22 130c95,64 49,301 49,415 -1,345 -20,1106 6,1363l1788 -7 -7 -2424 -1781 7c-8,80 14,492 -33,516z"/>
   <path class="fil2" d="M4843 15645c-19,-129 -24,-630 8,-748l805 0c31,124 24,613 7,753l-820 -5zm689 141c20,-33 -10,-36 36,-4l7 261 833 11 3 -1632 -859 4 -5 306 -129 -99 -165 151 -176 -150 -117 85 -7 -324 -872 13 6 1660 867 -2 12 -294 123 109 158 -155 178 150 107 -90z"/>
   <path class="fil3" d="M20615 16144l51 -167 1686 -2 66 166c-161,5 -205,35 -319,-50 -162,60 -67,97 -243,3 -179,87 -75,63 -244,-3 -114,77 -80,85 -205,3 -173,64 -54,83 -240,0 -109,62 -96,92 -206,-3 -178,63 -126,57 -346,53zm-56 -781l450 -11c336,300 673,320 1006,9l443 -9 -60 506c-233,16 -1615,28 -1768,-10l-71 -485zm835 -1024c734,-167 969,975 240,1118 -744,145 -977,-950 -240,-1118zm-835 218l338 8c-97,376 -92,293 1,671l-351 -5 12 -674zm1568 667c104,-416 83,-265 -1,-667l336 12c34,109 34,548 0,667l-335 -12zm-1491 -1291l1763 3 59 507 -443 -10c-354,-301 -653,-302 -1005,9l-453 -8 79 -501zm1715 -114l-1685 -1 -50 -169c144,-1 204,-31 309,53 165,-51 62,-101 243,-1 174,-82 72,-69 244,4l106 -64 95 63c165,-68 66,-91 243,-3 180,-94 77,-58 243,2 117,-86 153,-54 319,-51l-67 167zm-1914 -279c19,85 93,208 96,287 5,166 -200,769 -53,1825 93,666 41,218 -36,595l2116 -1c14,-139 -75,-169 -67,-301 4,-76 43,-225 55,-316 45,-327 46,-1160 -2,-1486 -11,-73 -55,-261 -54,-317 1,-100 73,-154 78,-291l-2133 5z"/>
   <path class="fil4" d="M6087 10629c-99,0 -182,18 -261,-32 4,-132 483,-85 528,-29 -53,96 -143,61 -267,61zm-533 -31c-84,54 -282,51 -367,1 4,-107 74,-76 185,-75 133,0 161,-34 182,74zm-1010 1c37,-118 136,-74 273,-74 116,0 221,-37 255,67 -87,75 -428,61 -528,7zm1808 -212c-95,66 -433,68 -528,-1 15,-105 153,-68 263,-68 133,0 224,-42 265,69zm-641 -2c-92,72 -431,66 -527,3 13,-108 156,-70 268,-70 124,0 220,-40 259,67zm-644 14c-115,42 -324,46 -423,-10 47,-111 118,-72 253,-72 106,0 166,-27 170,82zm1285 -251c-42,105 -176,106 -218,0 77,-54 137,-59 218,0zm-900 67c-135,0 -226,42 -268,-67 93,-66 436,-72 528,2 -43,103 -138,66 -260,65zm-884 -5c-50,-107 -47,-595 -5,-710 127,-19 380,-33 496,10 34,99 31,575 4,677 -97,59 -374,34 -495,23zm1783 -273c-32,106 -126,126 -165,6 43,-32 -47,-32 86,-38 74,-3 56,17 79,32zm-846 72c-141,0 -188,41 -216,-72 97,-61 302,-43 421,-20 -8,131 -72,92 -205,92zm682 -259c10,-9 -28,-55 84,-54 89,1 61,22 84,59 -57,73 -113,76 -168,-5zm-709 52c-95,-1 -211,15 -290,-21 11,-125 108,-84 237,-83 93,0 213,-20 284,29 -17,117 -98,76 -231,75zm549 136c-74,-59 -218,-64 -200,-209l164 -245 103 218c-133,54 -42,-49 -160,24 26,153 181,27 198,214 8,89 -118,245 -151,269 -56,-35 -119,-125 -124,-208 138,-36 128,63 170,-63zm321 -427c-17,124 -118,105 -212,55 24,-111 126,-94 212,-55zm-1166 25c38,-81 211,-44 296,-45 134,-1 210,-43 233,76 -72,47 -192,28 -286,28 -123,1 -188,34 -243,-59zm1249 1147c46,-160 47,-1108 18,-1295l-1999 2c-78,360 61,976 -53,1331 241,40 780,11 1055,11 256,0 766,53 979,-49z"/>
   <path class="fil3" d="M6431 10683c-213,102 -723,49 -979,49 -275,0 -814,29 -1055,-11 114,-355 -25,-971 53,-1331l1999 -2c29,187 28,1135 -18,1295zm-1987 -2124l2016 5 -6 721 -2018 -8 8 -718zm-232 1853c40,-97 19,-800 18,-1004 -1,-354 -30,-276 85,-290 51,112 17,720 17,898 0,169 91,823 -213,700 -134,-54 -95,-256 -95,-382l0 -1429c15,-75 -11,-6 156,-109 103,98 56,40 154,81l-21 99c-168,15 -8,-59 -177,-35l-12 1342c3,135 -13,117 88,129zm-269 -1739c-50,166 -16,1508 -16,1794 -1,416 167,362 519,361 300,0 600,0 900,0 1242,0 1217,108 1217,-574 0,-255 37,-1662 -25,-1775 -97,-45 -1964,-40 -2188,-14 -37,130 23,168 -63,268l-106 -76 -106 79c-102,-62 -29,-52 -132,-63z"/>
   <path class="fil3" d="M14616 11013c20,-143 33,-178 38,-350l186 44c-5,151 -90,249 -224,306zm-1624 -2456l1792 15 52 1964c-143,-8 -199,-36 -357,-10 -53,227 232,549 -428,580 -272,13 -771,41 -1026,18l-33 -2567zm896 -148c-219,12 -880,-63 -1027,22 -83,169 35,1994 3,2374 -11,88 -11,-4 15,109 -12,112 -20,232 16,340 165,57 1030,6 1263,-4 315,-13 718,-76 809,-423 64,-241 -12,-1450 -22,-1843 -3,-110 44,-510 -55,-543 -107,25 -385,28 -497,8 -111,-20 -70,-48 -191,-15 -85,22 -172,51 -219,-23l13 -23 -108 21z"/>
   <path class="fil3" d="M12900 14075c47,-24 25,-436 33,-516l1781 -7 7 2424 -1788 7c-26,-257 -7,-1018 -6,-1363 0,-114 46,-351 -49,-415l-42 13c-24,262 -6,1010 -6,1354 0,120 46,360 -50,421 -66,-83 -33,-1093 -33,-1214 0,-212 1,-424 0,-635 0,-147 -63,-511 61,-589 65,134 6,371 32,533l60 -13zm1864 2144c-297,-11 -1876,51 -2009,-39 11,-147 54,-101 423,-101 176,0 352,0 529,0 356,0 722,8 1076,-3 37,-89 39,-2394 11,-2620l-2035 8c-167,109 -111,342 -111,547l1 1905c-1,231 -50,394 236,397 392,5 1661,18 1903,-7 9,-90 31,-29 -24,-87z"/>
   <path class="fil3" d="M5048 16049c23,-64 114,-137 202,-203 80,49 186,140 209,204 -100,39 -314,39 -411,-1zm504 -1623c50,-68 751,-45 867,-30 31,111 31,1533 4,1673 -145,19 -754,27 -878,-7l-13 -276 -107 90 -178 -150 -158 155 -123 -109 -12 294 -867 2 -6 -1660 872 -13 7 324 117 -85 176 150 165 -151 129 99 5 -306zm-512 3c92,-58 335,-56 426,1 -21,113 43,16 -214,230 -238,-197 -180,-127 -212,-231zm518 -703l449 0c76,69 329,468 365,583l-826 -6 12 -577zm-502 0l405 2 -6 582 -412 -6 13 -578zm-576 0l478 2 -5 582 -827 -16 354 -568zm-52 -75c-97,147 -194,303 -285,454 -178,295 -146,207 -146,568 0,488 -3,977 0,1468l2510 -7c-6,-486 -2,-975 -2,-1461 0,-507 -57,-407 -426,-1032l-1651 10z"/>
   <path class="fil5" d="M12864 10805c32,-380 -86,-2205 -3,-2374 147,-85 808,-10 1027,-22l-6 -292 -1307 5 3 2682 286 1z"/>
   <path class="fil6" d="M4603 9178c-65,-112 -49,-368 -18,-502 142,3 74,126 192,194 0,-124 -36,-161 66,-201 71,93 63,412 2,510 -108,-49 -67,-103 -159,-197 -27,137 26,152 -83,196zm1611 -116c-1,-151 -30,-45 -134,-122 -238,-178 252,-431 202,-156 -146,19 -79,-82 -158,47 105,110 218,15 197,257 -94,105 -209,151 -265,-3 126,-76 45,22 158,-23zm-652 116c-72,-38 -51,-6 -86,-112 -36,-105 -114,-323 -83,-395 137,25 80,136 161,258 48,-100 44,-184 110,-259 118,43 10,92 90,279 72,-126 37,-265 170,-276 17,102 -81,444 -145,502 -102,-40 -72,-63 -127,-180 -39,86 -19,123 -90,183zm-567 -484c67,-37 216,-47 290,0 -25,152 -76,14 -203,103 30,158 19,18 154,108 -45,195 -143,-64 -146,157 122,56 151,-45 196,81 -72,62 -190,43 -300,26l9 -475zm-559 583l2018 8 6 -721 -2016 -5 -8 718z"/>
   <path class="fil1" d="M21300 15070c3,-98 -53,-150 321,-118 142,12 76,-6 113,66 -70,91 -193,39 -434,52zm605 -266c-101,73 -644,54 -782,22 4,-138 10,-99 363,-99 321,0 394,-46 419,77zm-511 -465c-737,168 -504,1263 240,1118 729,-143 494,-1285 -240,-1118z"/>
   <path class="fil7" d="M22015 15361c-333,311 -670,291 -1006,-9l-450 11 71 485c153,38 1535,26 1768,10l60 -506 -443 9z"/>
   <path class="fil7" d="M20557 14434l453 8c352,-311 651,-310 1005,-9l443 10 -59 -507 -1763 -3 -79 501z"/>
   <path class="fil8" d="M12879 10914c-26,-113 -26,-21 -15,-109l-286 -1 -3 -2682 1307 -5 6 292 108 -21 11 -169c67,45 130,118 157,194l-181 -2c47,74 134,45 219,23 121,-33 80,-5 191,15 112,20 390,17 497,-8 -83,-85 -411,-11 -547,-40 -371,-344 -158,-392 -742,-392 -205,0 -980,-26 -1115,16 -39,90 -49,2725 -7,2885l400 4z"/>
   <path class="fil3" d="M22553 10545c-89,123 21,218 -90,377 -87,82 -1204,42 -1480,45 -195,2 -316,47 -446,-101 -147,-426 476,-314 737,-314 243,0 956,30 1144,-20l134 -66c39,-155 43,-523 17,-684l-55 21c-3,197 66,531 -107,666l-1727 -9 -171 64 1 -1328c-12,-107 -3,-43 -40,-81l-40 29c-15,316 -3,659 -3,978 0,219 -64,739 113,866 115,83 1691,58 1926,37 134,-66 154,-374 87,-480z"/>
   <path class="fil9" d="M4225 10593l-69 37c-56,-117 44,-151 69,-37zm-13 -181c-101,-12 -85,6 -88,-129l12 -1342c169,-24 9,50 177,35l21 -99c-98,-41 -51,17 -154,-81 -167,103 -141,34 -156,109l0 1429c0,126 -39,328 95,382 304,123 213,-531 213,-700 0,-178 34,-786 -17,-898 -115,14 -86,-64 -85,290 1,204 22,907 -18,1004z"/>
   <path class="fil10" d="M5546 14303l826 6c-36,-115 -289,-514 -365,-583l-449 0 -12 577z"/>
   <polygon class="fil10" points="4126,14294 4953,14310 4958,13728 4480,13726 "/>
   <path class="fil11" d="M22313 10705c-94,55 -324,48 -421,1 49,-36 -71,-34 93,-58 105,-16 282,-20 328,57zm-484 -1c-98,64 -1092,60 -1200,2 37,-28 -50,-54 140,-58l796 2c297,-1 229,-16 264,54zm-1292 162l93 -20c214,-96 1481,52 1726,-39l32 -158 30 -117c-188,50 -901,20 -1144,20 -261,0 -884,-112 -737,314z"/>
   <path class="fil7" d="M13678 14908c119,1 62,21 138,24 98,4 24,-24 155,-23 -15,185 -290,170 -293,-1zm-178 29c112,391 746,267 653,-181 -87,-420 -787,-282 -653,181z"/>
   <path class="fil3" d="M9551 4635c-20,65 90,582 247,617 85,-72 88,-225 145,-311l113 307c165,1 140,-101 193,-247 41,-111 120,-258 79,-366 -179,-51 -132,137 -219,286 -61,-101 -62,-227 -135,-296 -159,10 -125,187 -204,311l-106 -314 -113 13z"/>
   <path class="fil3" d="M3340 5247c156,-14 116,-190 201,-311 46,134 54,295 191,313 54,-49 234,-507 187,-609l-82 -27c-78,83 -78,209 -138,316 -55,-97 -50,-248 -149,-310 -140,37 -113,199 -181,309 -60,-111 -61,-222 -137,-314 -173,40 -88,153 -34,302 40,109 61,256 142,331z"/>
   <path class="fil6" d="M5385 15435c55,-54 59,-66 124,5 -56,57 -72,88 -124,-5zm-58 17c-66,56 -239,47 -317,17 15,-101 13,-75 151,-71 89,2 139,-21 166,54zm175 -174c-72,57 -84,54 -162,5 27,-19 -33,-52 85,-54 86,-2 59,18 77,49zm-237 -44c40,65 36,40 -24,78 -45,-84 -49,-43 24,-78zm-183 85c-103,0 -66,-37 -77,-78l152 10c-9,29 44,67 -75,68zm415 -196c-61,37 -284,54 -324,-22 58,-55 76,-39 174,-38 119,1 119,-21 150,60zm-490 -27c63,-41 46,-50 114,3 -51,81 -77,68 -114,-3zm-79 470l658 -1 -4 -584 -665 4 11 581z"/>
   <path class="fil12" d="M20436 9047l34 68c37,38 28,-26 40,81l-1 1328 171 -64 -31 -24 -2 -2062c-215,99 -141,435 -131,653l-80 20z"/>
   <path class="fil13" d="M14764 16219l19 -143c-354,11 -720,3 -1076,3 -177,0 -353,0 -529,0 -369,0 -412,-46 -423,101 133,90 1712,28 2009,39z"/>
   <path class="fil11" d="M20666 13818l1685 1 67 -167c-166,-3 -202,-35 -319,51 -166,-60 -63,-96 -243,-2 -177,-88 -78,-65 -243,3l-95 -63 -106 64c-172,-73 -70,-86 -244,-4 -181,-100 -78,-50 -243,1 -105,-84 -165,-54 -309,-53l50 169z"/>
   <path class="fil11" d="M20961 16091c110,95 97,65 206,3 186,83 67,64 240,0 125,82 91,74 205,-3 169,66 65,90 244,3 176,94 81,57 243,-3 114,85 158,55 319,50l-66 -166 -1686 2 -51 167c220,4 168,10 346,-53z"/>
   <path class="fil14" d="M13309 15840c175,-7 354,-3 530,-3 88,0 177,-2 265,0 100,3 176,31 218,-41 -181,-400 -842,-392 -1013,44z"/>
   <path class="fil3" d="M4917 14985l665 -4 4 584 -658 1 -11 -581zm-74 660l820 5c17,-140 24,-629 -7,-753l-805 0c-32,118 -27,619 -8,748z"/>
   <polygon class="fil11" points="5043,14304 5455,14310 5461,13728 5056,13726 "/>
   <path class="fil3" d="M13500 14937c-134,-463 566,-601 653,-181 93,448 -541,572 -653,181zm189 -505c-565,206 -260,1005 295,808 512,-183 240,-1003 -295,-808z"/>
   <path class="fil3" d="M12114 5232c104,42 356,35 460,9l2 -119c-135,-58 -217,17 -330,-49 35,-77 -44,-40 83,-62 52,-9 67,7 143,-12l10 -126c-79,-17 -67,-6 -126,-11 -149,-15 -72,21 -110,-62 114,-67 197,9 323,-50l10 -105c-92,-44 -446,-70 -478,31 -25,78 -11,479 13,556z"/>
   <path class="fil3" d="M8274 5233c131,48 310,20 452,20l18 -135c-136,-46 -227,17 -335,-46 36,-77 -45,-38 84,-61 53,-9 62,8 141,-13l11 -124c-295,-70 -166,76 -236,-74 109,-63 199,1 326,-45l-2 -127c-98,-13 -174,-9 -265,-10 -113,-1 -190,-31 -208,80 -13,79 -6,463 14,535z"/>
   <path class="fil3" d="M8964 4771l150 21c37,131 12,75 -23,101 -52,63 -22,49 -137,33 -21,-93 -28,-81 10,-155zm-30 444c10,-90 -8,-74 38,-143 150,-5 77,-13 124,48 69,115 31,149 161,119 74,-114 -10,-91 -18,-199 -4,-49 228,-525 -416,-410 -41,127 -38,495 0,621 111,-3 58,15 111,-36z"/>
   <path class="fil3" d="M4645 9598l328 2 -9 512 -320 -7 1 -507zm-77 612c121,11 398,36 495,-23 27,-102 30,-578 -4,-677 -116,-43 -369,-29 -496,-10 -42,115 -45,603 5,710z"/>
   <path class="fil3" d="M20436 9047l80 -20c-10,-218 -84,-554 131,-653 81,-35 1665,-36 1754,-7 104,33 49,64 151,107l16 -73c-161,-194 -387,-130 -633,-130 -255,0 -511,0 -767,0 -193,0 -534,-50 -668,99 -107,119 -89,521 -64,677z"/>
   <path class="fil12" d="M12878 14205l22 -130 -60 13c-26,-162 33,-399 -32,-533 -124,78 -61,442 -61,589 1,211 0,423 0,635 0,121 -33,1131 33,1214 96,-61 50,-301 50,-421 0,-344 -18,-1092 6,-1354l42 -13z"/>
   <path class="fil7" d="M22127 15224l335 12c34,-119 34,-558 0,-667l-336 -12c84,402 105,251 1,667z"/>
   <path class="fil7" d="M20547 15231l351 5c-93,-378 -98,-295 -1,-671l-338 -8 -12 674z"/>
   <path class="fil3" d="M10742 4963c-103,70 -64,25 -99,-5l54 -66 45 71zm264 189c-123,-122 -145,-505 -343,-529 -83,60 -128,224 -174,324 -67,149 -185,265 -5,313l98 -140 215 -1 91 148c106,-34 97,-16 118,-115z"/>
   <path class="fil3" d="M7376 4889l33 103 -95 -15 62 -88zm-307 344c152,56 108,0 180,-108l216 -8c77,90 37,127 154,135 109,-91 -7,-206 -64,-327 -50,-108 -85,-269 -201,-304 -103,68 -293,492 -285,612z"/>
   <path class="fil3" d="M4123 5227l15 -225c91,-24 170,-36 231,11l8 224 125 4c34,-104 32,-502 1,-599l-119 -17 -15 234c-62,47 -140,36 -231,11l-15 -227 -114 -20c-31,132 -32,496 0,620 88,11 50,27 114,-16z"/>
   <path class="fil3" d="M4921 4987c-124,-4 -115,14 -39,-99l39 99zm-327 258c139,29 97,-16 168,-120l216 -7c65,80 37,100 130,139 144,-61 30,-199 -31,-316 -57,-110 -92,-278 -210,-322 -65,40 -322,490 -273,626z"/>
   <path class="fil3" d="M6770 4770l151 19c24,102 27,59 -21,112 -62,58 -41,46 -142,25 -22,-100 -29,-84 12,-156zm-30 451l18 -141 151 -11c316,-99 230,-567 -280,-434 -37,109 -35,495 -1,606 96,16 56,24 112,-20z"/>
   <path class="fil3" d="M7887 4773l149 13c25,104 30,59 -21,119 -68,59 -45,50 -143,19 -18,-97 -26,-81 15,-151zm-33 454l18 -152 155 -18c241,-15 329,-533 -289,-427 -28,124 -30,491 3,612 90,14 58,21 113,-15z"/>
   <path class="fil3" d="M6183 5048c-66,191 -114,-32 -266,8 -85,207 244,267 371,135 68,-72 70,-201 -3,-269 -85,-82 -156,-14 -235,-114 87,-130 65,-6 204,-19l47 -61c-71,-186 -345,-143 -392,5 -82,254 175,215 274,315z"/>
   <path class="fil3" d="M11006 5152c115,84 356,210 441,-11 120,-311 -225,-206 -268,-355 101,-79 88,-7 187,5l66 -87c-183,-183 -438,-112 -396,183 142,157 254,58 265,211 -158,65 -83,-66 -261,-48l-34 102z"/>
   <polygon class="fil14" points="4644,10105 4964,10112 4973,9600 4645,9598 "/>
   <path class="fil3" d="M5562 9178c71,-60 51,-97 90,-183 55,117 25,140 127,180 64,-58 162,-400 145,-502 -133,11 -98,150 -170,276 -80,-187 28,-236 -90,-279 -66,75 -62,159 -110,259 -81,-122 -24,-233 -161,-258 -31,72 47,290 83,395 35,106 14,74 86,112z"/>
   <path class="fil15" d="M22418 10532l-30 117 66 -21c4,127 15,130 -37,243 -58,56 -1162,32 -1381,30 -109,0 -356,47 -406,-55l-93 20c130,148 251,103 446,101 276,-3 1393,37 1480,-45 111,-159 1,-254 90,-377l-1 -79 -134 66z"/>
   <path class="fil3" d="M20630 10846c50,102 297,55 406,55 219,2 1323,26 1381,-30 52,-113 41,-116 37,-243l-66 21 -32 158c-245,91 -1512,-57 -1726,39z"/>
   <path class="fil3" d="M11459 4724l213 25 12 477c79,38 36,36 129,13l17 -488 210 -13 8 -93c-110,-56 -450,-41 -578,-13l-11 92z"/>
   <path class="fil3" d="M5071 4635l-12 85 220 35c3,163 -24,343 22,490l112 2 16 -494c162,-23 205,45 216,-109 -100,-49 -468,-45 -574,-9z"/>
   <path class="fil3" d="M13309 15840c171,-436 832,-444 1013,-44 36,51 38,70 99,87 110,-195 -352,-472 -581,-477 -255,-5 -651,210 -622,484l91 -50z"/>
   <path class="fil3" d="M4603 9178c109,-44 56,-59 83,-196 92,94 51,148 159,197 61,-98 69,-417 -2,-510 -102,40 -66,77 -66,201 -118,-68 -50,-191 -192,-194 -31,134 -47,390 18,502z"/>
   <path class="fil3" d="M21937 6471c77,-48 154,-43 233,-2 -8,81 -12,108 -129,105 -116,-3 -100,-30 -104,-103zm37 -247c-50,-154 91,-203 171,-64l-64 95 -107 -31zm-54 -165c-85,172 45,131 -25,372 -23,78 -41,6 -26,133 78,165 493,18 358,-146 -132,-78 -160,7 -268,-80 89,-60 156,-9 212,-81l79 -198c-113,-21 -224,-57 -330,0z"/>
   <path class="fil3" d="M13174 6473c105,-53 94,-208 157,-316 46,100 57,247 134,316 101,-53 157,-317 174,-437 -122,-2 -101,189 -169,304 -51,-98 -54,-243 -136,-315 -92,63 -101,237 -146,334 -34,-100 -50,-287 -142,-331 -44,73 59,377 128,445z"/>
   <path class="fil16" d="M5532 15786l13 276c124,34 733,26 878,7 27,-140 27,-1562 -4,-1673 -116,-15 -817,-38 -867,30l859 -4 -3 1632 -833 -11 -7 -261c-46,-32 -16,-29 -36,4z"/>
   <path class="fil3" d="M24742 6187l24 -44 30 59c13,93 38,210 100,271 103,-47 180,-397 160,-446 -100,44 -110,231 -147,331 -45,-102 -63,-265 -143,-333 -78,59 -106,235 -142,334 -41,-96 -48,-289 -148,-330 -39,79 65,373 129,444 82,-38 103,-129 137,-286z"/>
   <path class="fil3" d="M7284 6045l-58 4 6 42c9,109 58,338 153,382 69,-74 77,-202 131,-304 37,59 44,87 65,157 33,113 12,116 95,150 65,-80 119,-267 123,-381l8 -46 -52 8 -93 303c-41,-102 -57,-275 -144,-334 -87,67 -97,229 -144,331l-90 -312z"/>
   <path class="fil3" d="M20629 10706c108,58 1102,62 1200,-2 -35,-70 33,-55 -264,-54l-796 -2c-190,4 -103,30 -140,58z"/>
   <path class="fil3" d="M6027 9938c-42,126 -32,27 -170,63 5,83 68,173 124,208 33,-24 159,-180 151,-269 -17,-187 -172,-61 -198,-214 118,-73 27,30 160,-24l-103 -218 -164 245c-18,145 126,150 200,209z"/>
   <path class="fil3" d="M9287 6394c-91,-146 -33,-392 170,-275 33,142 38,353 -170,275zm174 -333c-371,-247 -409,642 -5,360 45,46 15,39 86,40l3 -629c-78,25 -54,-63 -79,81 -4,23 1,104 -5,148z"/>
   <path class="fil17" d="M10837 6141c245,-256 327,431 -4,233l4 -233zm-65 478c94,-28 56,-45 63,-168 494,118 306,-651 -1,-371 -22,-40 -1,-43 -76,-44 -10,117 -29,499 14,583z"/>
   <path class="fil3" d="M25835 6402l-144 0c-97,-256 60,-369 155,-298 67,95 73,205 -11,298zm-238 59c147,3 26,-29 98,-13 100,22 36,30 169,20 132,-60 223,-574 -189,-396 -7,-109 15,-162 -33,-244 -74,50 -48,-16 -47,301 0,110 -3,223 2,332z"/>
   <path class="fil3" d="M4995 8694l-9 475c110,17 228,36 300,-26 -45,-126 -74,-25 -196,-81 3,-221 101,38 146,-157 -135,-90 -124,50 -154,-108 127,-89 178,49 203,-103 -74,-47 -223,-37 -290,0z"/>
   <path class="fil3" d="M11733 6135c253,-240 333,411 -5,246l5 -246zm-61 483c47,-9 40,78 59,-170 472,133 316,-645 18,-364 -79,-70 -12,-45 -93,-48 -11,104 -33,521 16,582z"/>
   <path class="fil3" d="M22357 6473c130,-65 3,-63 64,-338l117 -58c135,108 51,174 74,315 21,133 -9,24 38,84 77,-93 39,-318 22,-364 -53,-137 -161,-93 -253,-42 -12,-67 -5,-71 -9,-131 -10,-143 20,-69 -54,-114 -42,91 -48,562 1,648z"/>
   <path class="fil3" d="M23309 6473c131,-72 -14,-164 74,-354l138 -33c80,133 29,150 39,280 11,147 -10,47 42,118 74,-104 105,-596 -234,-416 -46,-279 57,-167 -59,-242 -45,90 -52,563 0,647z"/>
   <path class="fil3" d="M12630 4796c211,106 24,-92 244,-33 17,196 -132,11 -113,247 121,27 180,-52 260,-154 -23,-380 -400,-286 -391,-60z"/>
   <path class="fil3" d="M21123 14826c138,32 681,51 782,-22 -25,-123 -98,-77 -419,-77 -353,0 -359,-39 -363,99z"/>
   <path class="fil3" d="M20192 6473c74,-110 -50,-511 221,-354 23,113 -11,266 39,354 55,-28 57,60 52,-215 -5,-255 -91,-269 -276,-189 -13,-113 15,-155 -36,-243 -81,58 -48,60 -47,332 0,61 -2,122 -1,182 0,133 -23,91 48,133z"/>
   <path class="fil3" d="M3599 6476c109,-132 -69,-489 229,-366 21,107 -11,287 39,358 52,-19 60,68 53,-210 -8,-343 -167,-216 -280,-194 -11,-230 29,-144 -41,-242 -71,108 -38,356 -39,491 -1,121 -18,92 39,163z"/>
   <path class="fil3" d="M6214 9062c-113,45 -32,-53 -158,23 56,154 171,108 265,3 21,-242 -92,-147 -197,-257 79,-129 12,-28 158,-47 50,-275 -440,-22 -202,156 104,77 133,-29 134,122z"/>
   <path class="fil3" d="M8095 6473c89,-47 42,-77 58,-207 154,44 79,173 264,206 -49,-114 -125,-145 -158,-263l155 -169c-160,-7 -107,108 -262,161 -13,-115 17,-271 -27,-371 -59,39 -57,-82 -56,297 0,109 -22,265 26,346z"/>
   <path class="fil17" d="M4877 6198c10,-144 200,-177 207,2l-207 -2zm271 203c-84,-60 -260,130 -277,-143l281 -7c50,-282 -298,-297 -355,-87 -92,337 291,388 351,237z"/>
   <path class="fil18" d="M14235 13983c-88,54 -18,38 -84,3 22,-16 10,-115 84,-3zm-100 120c-43,80 -43,20 -44,107 281,99 249,-153 237,-347l-198 -20c-91,110 -116,154 5,260z"/>
   <path class="fil3" d="M21098 6097c186,-69 206,256 82,308 -79,32 -152,-15 -169,-96 -24,-110 -6,-178 87,-212zm-36 -58c-242,90 -158,527 150,425 204,-68 154,-537 -150,-425z"/>
   <path class="fil17" d="M25204 6191c37,-149 196,-148 216,11l-216 -11zm275 196c-132,6 -264,82 -278,-124l290 -15c22,-299 -313,-274 -365,-78 -69,262 258,435 353,217z"/>
   <path class="fil3" d="M9912 6376c-51,-143 -44,-177 37,-286l132 13c112,156 41,403 -169,273zm24 -330c-275,123 -100,547 179,405 184,-93 97,-528 -179,-405z"/>
   <path class="fil17" d="M15756 14718c4,178 -25,249 35,325 45,-91 39,-326 5,-429 -131,38 -75,128 -210,279 -45,-83 -108,-264 -200,-286 -27,118 -41,347 14,442 46,-83 21,-205 34,-321 64,84 81,187 166,255l156 -265z"/>
   <path class="fil3" d="M15941 6113c243,-89 252,178 184,262 -111,135 -277,-13 -184,-262zm19 -71c-246,106 -139,513 147,423 236,-75 128,-542 -147,-423z"/>
   <path class="fil17" d="M4088 6194c37,-165 208,-137 215,6l-215 -6zm38 281c115,3 165,13 243,-58 -99,-74 -263,101 -286,-157 107,-13 200,8 293,-27 -10,-446 -645,-105 -250,242z"/>
   <path class="fil3" d="M13779 6396c-24,-126 69,-118 170,-115 0,121 -47,170 -170,115zm-47 -272c87,-19 108,-47 204,-14l19 95c-130,53 -314,24 -236,229 73,53 72,53 166,28 141,-38 1,-34 139,4 10,-89 31,-320 -24,-395 -48,-65 -254,-92 -268,53z"/>
   <path class="fil3" d="M6866 6194c27,-160 206,-151 218,8l-218 -8zm274 196c-141,1 -265,87 -279,-132l280 -7c64,-276 -296,-291 -352,-84 -73,271 263,433 351,223z"/>
   <path class="fil3" d="M12176 6199c15,-79 13,-64 74,-118 120,8 133,-1 136,121l-210 -3zm260 190c-91,-24 -249,132 -265,-132l282 -6c46,-288 -317,-288 -359,-69 -71,367 377,339 342,207z"/>
   <path class="fil3" d="M18845 6200c11,-106 41,-117 146,-117 63,44 64,31 74,117l-220 0zm275 199c-86,-52 -257,136 -279,-141l281 -8c56,-261 -286,-304 -350,-87 -91,307 264,405 348,236z"/>
   <path class="fil3" d="M15028 6083c68,56 63,35 72,114l-218 3c25,-117 32,-111 146,-117zm139 340c-120,-92 -39,8 -186,-11 -96,-13 -97,-78 -104,-153l281 -9c61,-276 -285,-295 -350,-80 -71,232 127,385 359,253z"/>
   <path class="fil3" d="M8756 6477c116,-82 6,-78 60,-347 88,-51 74,-59 170,-20 74,244 -49,283 68,366 42,-60 41,-30 31,-245 -8,-191 -67,-233 -225,-187 -127,38 4,23 -121,-13 -24,123 -40,358 17,446z"/>
   <path class="fil17" d="M16672 6467c10,-113 54,-396 -53,-438l-28 355c-319,102 -135,-188 -213,-353 -138,38 -41,372 -29,390 51,70 113,62 185,42 132,-36 -7,-27 138,4z"/>
   <path class="fil19" d="M21104 9196c65,77 762,76 828,0 -74,-94 -302,-48 -420,-48 -238,0 -345,-36 -408,48z"/>
   <path class="fil3" d="M17836 6473c55,-90 12,-211 40,-334 84,-69 93,-75 178,-14 33,131 -15,257 42,348 53,-30 57,55 49,-241 -6,-259 -138,-207 -231,-182 -139,36 6,-16 -121,-12 -8,77 -6,144 -6,221 -1,22 -5,122 -3,134 15,118 -12,46 52,80z"/>
   <path class="fil20" d="M21103 8799c58,94 113,55 385,55 133,-1 325,32 437,-26 -48,-95 -18,-68 -174,-66 -149,2 -543,-33 -648,37z"/>
   <path class="fil3" d="M6167 6281c1,129 -37,164 -171,121 -19,-136 57,-126 171,-121zm-225 -167c118,7 210,-106 227,92 -126,54 -331,35 -223,246 104,33 73,34 179,1 102,-31 4,-15 118,12 60,-679 -288,-410 -301,-351z"/>
   <path class="fil3" d="M11456 6281c0,131 -35,157 -172,125 -16,-122 63,-130 172,-125zm-223 -166c122,1 214,-114 225,91 -111,50 -358,43 -220,247 104,37 79,28 177,-1 113,-33 -15,-18 118,14 47,-701 -287,-393 -300,-351z"/>
   <path class="fil3" d="M23286 9719c102,-7 76,-22 161,34l-4 92 -180 7 23 -133zm-13 -199l163 35 -15 104 -155 2 7 -141zm164 155c1,-3 128,-95 19,-173 -64,-45 -176,-27 -249,-16l4 419c197,19 425,-21 226,-230z"/>
   <path class="fil19" d="M13334 14115c129,-53 8,-45 84,-181 127,93 -47,124 104,179l45 -182c128,102 -38,131 114,181 47,-77 36,-165 -9,-249l-359 -11c-11,96 -26,192 21,263z"/>
   <path class="fil3" d="M17421 6408c-15,-123 60,-132 172,-127 4,135 -25,157 -172,127zm-52 -292c122,-3 215,-112 225,90 -114,53 -173,-3 -257,132l32 124c212,41 75,-46 301,3 45,-693 -287,-396 -301,-349z"/>
   <path class="fil20" d="M21538 8958c-233,0 -371,-37 -438,53 67,47 29,41 200,39 179,-3 507,18 634,-22 -47,-120 -278,-70 -396,-70z"/>
   <path class="fil3" d="M15492 6616c83,2 57,18 101,-83 25,-57 43,-114 68,-172 41,-95 111,-233 125,-329 -114,9 -132,203 -190,297 -57,-94 -78,-247 -171,-304 -48,73 -18,76 76,293 90,208 24,114 -9,298z"/>
   <path class="fil17" d="M7277 9915c46,-81 23,-210 34,-323 92,96 158,272 279,322 6,-128 37,-352 -23,-454 -48,79 -24,221 -35,324 -83,-90 -162,-278 -276,-319 -11,128 -37,351 21,450z"/>
   <path class="fil10" d="M5466 14430c-91,-57 -334,-59 -426,-1 32,104 -26,34 212,231 257,-214 193,-117 214,-230z"/>
   <path class="fil17" d="M7185 14660c341,-35 323,374 -6,324l6 -324zm-62 379c180,19 376,4 364,-232 -11,-214 -192,-208 -366,-202l2 434z"/>
   <path class="fil3" d="M21514 6366c-77,-85 -11,-205 -57,-336 -46,98 -27,223 -26,342 40,125 121,124 233,72l26 -36 38 62 53 -16c-6,-129 28,-336 -32,-427 -120,52 -6,124 -65,351l-170 -12z"/>
   <path class="fil17" d="M9451 14995c-40,-69 -36,-53 -15,-148 88,-22 72,-34 131,19 46,39 46,-35 39,111l-155 18zm-14 -316c53,-27 -55,-22 84,-24 53,0 31,9 68,19l-6 115 -143 8 -3 -118zm165 129c0,-1 233,-244 -225,-199l1 425c264,47 394,-76 224,-226z"/>
   <path class="fil3" d="M17129 9862l-2 -135 167 -1 2 113 -167 23zm3 -335c99,-11 84,-23 164,33l-21 81c-75,41 -52,32 -148,21l5 -135zm159 160c79,-77 81,-100 20,-203l-243 -1 4 422c344,32 345,-136 219,-218z"/>
   <path class="fil0" d="M7179 14984c329,50 347,-359 6,-324l-6 324z"/>
   <path class="fil0" d="M21098 6097c-93,34 -111,102 -87,212 17,81 90,128 169,96 124,-52 104,-377 -82,-308z"/>
   <path class="fil0" d="M15941 6113c-93,249 73,397 184,262 68,-84 59,-351 -184,-262z"/>
   <path class="fil0" d="M9912 6376c210,130 281,-117 169,-273l-132 -13c-81,109 -88,143 -37,286z"/>
   <path class="fil17" d="M15508 9917c54,-80 30,-76 34,-200l219 9c5,115 -19,108 35,195 39,-66 24,11 31,-115 5,-86 10,-277 -30,-337 -55,70 -30,95 -38,197l-214 -6c-9,-98 16,-121 -38,-193 -55,105 -52,363 1,450z"/>
   <path class="fil17" d="M14129 6100l2 130c117,60 201,29 199,153 -105,76 -54,14 -154,17 -46,2 -20,-3 -63,17 100,92 285,90 300,-58 17,-175 -163,-77 -217,-237 137,-99 80,21 205,-44 -102,-89 -185,-72 -272,22z"/>
   <path class="fil0" d="M25835 6402c84,-93 78,-203 11,-298 -95,-71 -252,42 -155,298l144 0z"/>
   <path class="fil3" d="M10258 6069c92,66 68,49 65,189 0,21 -5,125 -4,136 17,119 -8,48 56,78 45,-83 25,-240 22,-349l125 -42c-80,-57 -45,-29 -123,-60 14,-150 32,-76 123,-158 -171,-107 -172,121 -264,206z"/>
   <path class="fil3" d="M6479 6075l69 42c-6,70 -6,133 -7,196 -2,131 -28,119 51,160 49,-80 28,-239 24,-349l128 -46c-87,-55 -25,-32 -125,-44 8,-155 34,-94 123,-169 -173,-109 -171,114 -263,210z"/>
   <path class="fil0" d="M11733 6135l-5 246c338,165 258,-486 5,-246z"/>
   <path class="fil0" d="M9287 6394c208,78 203,-133 170,-275 -203,-117 -261,129 -170,275z"/>
   <path class="fil0" d="M10837 6141l-4 233c331,198 249,-489 4,-233z"/>
   <path class="fil3" d="M5584 6390c-157,85 -97,-39 -211,27 118,123 320,81 284,-156 -107,-56 -163,-28 -204,-135 135,-114 90,23 204,-50 -174,-162 -419,82 -182,188 121,54 119,-5 109,126z"/>
   <path class="fil3" d="M24156 6392c-152,80 -101,-34 -216,24 137,117 329,73 285,-143l-211 -106c58,-120 30,-67 150,-74 65,-4 21,3 64,-16 -107,-84 -287,-72 -281,76 9,187 214,36 209,239z"/>
   <path class="fil3" d="M19787 6071c159,107 -5,143 98,389 89,22 90,31 165,-16 -47,-110 -8,20 -112,-63l-8 -276 132 -22c-70,-59 -17,-41 -124,-49 -14,-104 11,-76 -38,-147 -76,120 11,80 -113,184z"/>
   <path class="fil3" d="M22924 6085l73 29c-8,131 -39,508 194,318 -50,-79 -5,8 -115,-42l-12 -267 128 -45c-78,-57 -39,-27 -121,-57 -6,-96 8,-68 -28,-136 -98,119 42,-7 -119,200z"/>
   <path class="fil17" d="M23814 15049c67,-113 -7,-148 52,-268 215,9 -8,126 140,262 29,-120 -39,-206 73,-268 123,73 9,139 82,272 50,-73 42,-211 3,-301 -111,-44 -65,1 -165,3 -31,0 -141,-27 -212,2 -1,105 -20,223 27,298z"/>
   <path class="fil17" d="M8756 9510l137 29c28,83 30,52 -7,136l-135 15 5 -180zm0 241c168,-22 238,-28 201,-225 -82,-78 -151,-75 -264,-53 -7,115 -31,359 14,430 76,-22 34,-22 49,-152z"/>
   <path class="fil3" d="M14468 6072c145,89 13,203 104,390 91,18 84,29 162,-18 -50,-110 -5,21 -114,-63 -15,-396 -9,-240 116,-312 -54,-41 -9,-36 -116,-27 -14,-112 12,-81 -38,-159 -81,135 21,71 -114,189z"/>
   <path class="fil3" d="M18400 6174c83,145 142,58 217,168 -71,170 -118,10 -223,75 113,114 280,77 293,-106 -99,-139 -165,-57 -213,-183 113,-121 81,17 209,-51 -121,-96 -263,-78 -283,97z"/>
   <path class="fil10" d="M5048 16049c97,40 311,40 411,1 -23,-64 -129,-155 -209,-204 -88,66 -179,139 -202,203z"/>
   <path class="fil3" d="M3468 6050l-125 -13 -10 -151 -41 10c-24,141 6,107 -88,175l71 50c-6,121 -21,229 25,332 87,33 91,38 167,-6 -57,-126 -3,31 -114,-72l-7 -265c132,-35 77,18 122,-60z"/>
   <path class="fil17" d="M25294 14644l133 30c34,81 34,50 -2,137l-136 13 5 -180zm190 194c53,-195 2,-268 -254,-231 -5,85 -2,167 -4,252 -3,220 -3,157 59,180l8 -150 191 -51z"/>
   <path class="fil17" d="M8090 9763l-29 65 -18 -46c-13,-100 -5,-143 -81,-187 1,88 33,259 105,318 58,-70 65,-137 97,-228 18,46 30,100 45,139 45,118 5,57 85,82l84 -303c-95,17 -58,100 -117,202 -46,-104 -25,-171 -119,-208l-52 166z"/>
   <path class="fil3" d="M17257 6384c0,0 -372,134 -209,-276 153,-49 141,32 220,-19 -145,-164 -338,-26 -335,171 4,256 352,270 324,124z"/>
   <path class="fil17" d="M16298 15115c-107,5 -73,-54 -77,-72 73,-34 78,-32 153,-3 -5,18 13,71 -76,75zm51 -309c-16,93 -37,122 -116,42 3,-107 47,-89 116,-42zm-103 150c176,-128 57,51 191,-208l-202 -9c-98,95 -43,81 -36,172 11,137 -67,100 -5,212 122,66 249,41 229,-127l-177 -40z"/>
   <path class="fil3" d="M5824 10386c95,69 433,67 528,1 -41,-111 -132,-69 -265,-69 -110,0 -248,-37 -263,68z"/>
   <path class="fil3" d="M4544 10599c100,54 441,68 528,-7 -34,-104 -139,-67 -255,-67 -137,0 -236,-44 -273,74z"/>
   <path class="fil3" d="M5184 10388c96,63 435,69 527,-3 -39,-107 -135,-67 -259,-67 -112,0 -255,-38 -268,70z"/>
   <path class="fil3" d="M5184 10148c42,109 133,67 268,67 122,1 217,38 260,-65 -92,-74 -435,-68 -528,-2z"/>
   <path class="fil3" d="M5182 9536c55,93 120,60 243,59 94,0 214,19 286,-28 -23,-119 -99,-77 -233,-76 -85,1 -258,-36 -296,45z"/>
   <path class="fil17" d="M9385 9661c164,-69 194,190 8,201 -47,-80 -44,-119 -8,-201zm151 229c77,-233 26,-346 -229,-273l7 402c79,-44 33,11 61,-121 87,32 84,22 161,-8z"/>
   <path class="fil3" d="M5188 9781c79,36 195,20 290,21 133,1 214,42 231,-75 -71,-49 -191,-29 -284,-29 -129,-1 -226,-42 -237,83z"/>
   <path class="fil17" d="M19474 6466c92,-24 62,61 62,-313 0,-345 32,-276 -62,-324 -33,97 -39,568 0,637z"/>
   <path class="fil3" d="M5826 10597c79,50 162,32 261,32 124,0 214,35 267,-61 -45,-56 -524,-103 -528,29z"/>
   <path class="fil17" d="M26026 14788c44,132 51,198 -96,208 -46,-80 -44,-119 -10,-213l106 5zm45 239c78,-238 33,-350 -228,-276l8 400c80,-43 32,10 61,-112l159 -12z"/>
   <path class="fil17" d="M8061 14789c27,102 34,111 -13,209l-118 -11 18 -205 113 7zm40 233c113,-305 -46,-307 -229,-271l9 393c69,-31 35,34 55,-97l165 -25z"/>
   <path class="fil3" d="M21621 14952c-374,-32 -318,20 -321,118 241,-13 364,39 434,-52 -37,-72 29,-54 -113,-66z"/>
   <path class="fil17" d="M23420 14965c-129,9 -302,82 -285,-157 16,-233 206,-112 283,-161 -153,-129 -350,-6 -345,183 5,217 247,304 347,135z"/>
   <path class="fil3" d="M19296 6478c34,-68 37,-571 -4,-652 -87,54 -51,31 -52,327 0,63 -2,129 -2,191 1,140 -19,89 58,134z"/>
   <path class="fil17" d="M15904 9477c2,8 -11,47 -7,66 0,0 21,55 22,58 16,39 31,75 46,114 98,249 42,166 136,195l150 -428c-86,33 -22,-34 -77,66 -5,10 -29,81 -34,97 -25,69 -39,112 -75,160 -46,-104 -74,-261 -161,-328z"/>
   <path class="fil0" d="M14616 11013c134,-57 219,-155 224,-306l-186 -44c-5,172 -18,207 -38,350z"/>
   <path class="fil17" d="M24470 9617c-144,6 -57,53 -168,97 -5,-109 22,-179 -35,-252 -49,88 -47,365 0,451 62,-84 12,-42 54,-143 89,76 53,128 175,130l-118 -159 92 -124z"/>
   <path class="fil17" d="M16361 9568c71,-107 76,3 180,-49 -89,-74 -142,-70 -228,9 -40,220 89,122 169,227 97,127 -152,82 -195,104 128,105 258,73 269,-106 -95,-143 -161,-55 -195,-185z"/>
   <path class="fil3" d="M4507 6471c55,-25 44,50 48,-103 1,-50 -9,-110 0,-160 26,-129 105,-86 184,-135 -62,-96 -106,-57 -171,17 -56,-62 -7,-45 -84,-56 -14,98 -34,373 23,437z"/>
   <path class="fil17" d="M12629 6468l20 -331 174 -47c-63,-117 -88,-73 -185,3 -37,-99 -7,-44 -63,-62l-19 364c24,129 -8,51 73,73z"/>
   <path class="fil17" d="M23643 9844c-44,-122 -27,-244 121,-173 43,87 34,79 12,174 -80,34 -56,35 -133,-1zm-69 -13c62,170 355,69 262,-152 -65,-154 -344,-72 -262,152z"/>
   <path class="fil3" d="M20667 6473c59,-103 0,-187 32,-289 43,-142 123,-16 173,-136 -87,-52 -94,-32 -154,40 -85,-76 -4,-44 -94,-54l-11 360c16,120 -11,47 54,79z"/>
   <path class="fil17" d="M24096 9655c36,101 45,120 -18,212l-99 -18c-42,-82 -45,-93 -6,-188l123 -6zm24 244c146,-153 10,-359 -151,-285 -114,51 -147,350 151,285z"/>
   <path class="fil3" d="M5289 9937c28,113 75,72 216,72 133,0 197,39 205,-92 -119,-23 -324,-41 -421,20z"/>
   <path class="fil17" d="M9804 14977c-45,-127 -41,-221 110,-185 52,82 44,84 19,179 -76,42 -49,41 -129,6zm118 63c118,-94 103,-148 51,-284 -211,-72 -297,44 -221,245 87,58 63,48 170,39z"/>
   <path class="fil18" d="M13787 14065l-4 -87 56 -9 59 -35 23 77 59 -25 -35 129 79 -14c2,-107 13,-176 -23,-258l-211 10 -56 153 53 59z"/>
   <path class="fil3" d="M4644 10389c99,56 308,52 423,10 -4,-109 -64,-82 -170,-82 -135,0 -206,-39 -253,72z"/>
   <path class="fil17" d="M17709 14828c-74,40 -68,39 -152,5 57,-45 64,-129 152,-5zm39 165c-92,-1 -183,29 -191,-98l196 -11c0,-130 -34,-164 -169,-146 -196,76 -32,462 164,255z"/>
   <path class="fil17" d="M25714 14911c-12,99 -55,136 -127,53 32,-65 65,-51 127,-53zm53 127c9,-112 22,-201 -36,-300 -106,-22 -107,-34 -175,41 82,56 44,-64 156,25 -30,131 -1,28 -118,85 -80,40 -63,63 -36,128 119,71 73,-8 209,21z"/>
   <path class="fil17" d="M9179 9776c-15,98 -57,143 -130,55 32,-73 63,-55 130,-55zm58 129c-3,-116 16,-198 -39,-302 -102,-20 -106,-29 -178,41 88,57 31,-64 154,30 -27,116 -38,28 -175,111l24 99c125,69 74,-6 214,21z"/>
   <path class="fil17" d="M26354 14828c-60,35 -81,42 -152,3 37,-85 106,-103 152,-3zm41 178c-93,-49 -166,71 -191,-115l197 -11c-2,-88 4,-76 -58,-142 -348,-72 -200,484 52,268z"/>
   <path class="fil3" d="M24452 14832c-62,31 -85,39 -153,1 42,-95 102,-88 153,-1zm40 174c-89,-45 -159,46 -194,-117l200 -7c-5,-318 -416,-105 -193,152 94,20 109,28 187,-28z"/>
   <path class="fil17" d="M23674 14829c-65,39 -88,35 -150,0 40,-90 105,-93 150,0zm-152 82c74,-40 104,-14 202,-36 -23,-301 -344,-100 -249,98 72,74 216,141 224,1 -113,54 -141,40 -177,-63z"/>
   <path class="fil17" d="M18023 9823c55,-60 36,-43 126,-44 -14,104 -69,143 -126,44zm178 89c6,-79 34,-225 -30,-287 -71,-69 -147,-29 -175,51 81,-44 81,-50 150,-3 -20,136 -27,18 -175,117l19 95c141,80 76,-24 211,27z"/>
   <path class="fil17" d="M9818 9695c-59,33 -83,40 -152,3 40,-92 107,-102 152,-3zm-5 172c-93,-19 -133,29 -148,-111l199 -10c-5,-297 -402,-136 -209,141 99,39 108,43 199,-6l-41 -14z"/>
   <path class="fil17" d="M16614 15016c-112,-22 -43,8 -87,-52 57,-71 12,-47 121,-52 -11,102 23,5 -34,104zm0 0l81 26c66,-345 -101,-368 -203,-259 97,41 80,-76 156,49 -78,113 -210,-13 -158,206 110,14 67,22 124,-22z"/>
   <path class="fil17" d="M17371 14793c34,118 -7,163 43,253 26,-38 138,-405 -217,-294 -4,107 -22,219 27,296 65,-116 -13,-134 52,-260l95 5z"/>
   <path class="fil17" d="M16059 14911c-8,100 -54,141 -126,54 26,-55 67,-52 126,-54zm62 108c-3,-71 14,-215 -37,-264 -60,-57 -147,-28 -174,43 89,-12 56,-52 148,4 -23,147 -25,15 -169,126 -9,154 151,121 232,91z"/>
   <path class="fil3" d="M7870 9700c-77,30 -74,32 -150,0 49,-48 63,-152 150,0zm-155 78c81,-39 99,-22 198,-30 2,-233 -216,-178 -246,-48 -39,168 88,270 236,173 -91,-48 -119,72 -188,-95z"/>
   <path class="fil17" d="M17675 9912c9,-97 27,-240 -25,-315 -85,146 73,248 -134,267 -71,-124 4,-156 -54,-266 -42,67 -59,199 -9,272 63,92 106,4 222,42z"/>
   <path class="fil17" d="M24586 15043c98,-122 -58,-276 151,-258 51,126 -17,157 52,265 42,-79 42,-220 -15,-308 -59,-17 -182,-4 -210,12 0,94 -16,216 22,289z"/>
   <path class="fil17" d="M18520 9642c-87,-43 -157,-48 -238,-24 -4,116 -25,217 33,301 50,-124 -18,-173 50,-268 202,12 3,184 139,255l16 -264z"/>
   <path class="fil3" d="M5187 10599c85,50 283,53 367,-1 -21,-108 -49,-74 -182,-74 -111,-1 -181,-32 -185,75z"/>
   <path class="fil3" d="M8538 14831c-77,49 -97,33 -159,-3 53,-98 102,-76 159,3zm-157 80c78,-36 103,-20 197,-28 -1,-223 -213,-178 -246,-48 -41,162 88,266 239,174 -104,-54 -145,70 -190,-98z"/>
   <path class="fil17" d="M10200 14884c40,-64 63,-83 80,-144 -81,6 -58,29 -121,101 -62,-68 -40,-86 -128,-103l82 144 -82 157c86,-26 57,-37 127,-105 85,107 18,103 132,99l-90 -149z"/>
   <path class="fil3" d="M8544 6477c79,-45 52,59 51,-218 -1,-105 32,-191 -47,-232 -58,83 -50,367 -4,450z"/>
   <path class="fil3" d="M21892 10706c97,47 327,54 421,-1 -46,-77 -223,-73 -328,-57 -164,24 -44,22 -93,58z"/>
   <path class="fil17" d="M8695 14888l-88 146c95,-5 52,-12 129,-102 151,173 61,96 136,97l-96 -147 84 -143c-81,17 -58,36 -124,101 -59,-74 -41,-94 -125,-103l84 151z"/>
   <path class="fil3" d="M5710 4623c-45,114 -40,109 32,181 -61,77 -35,18 -48,108 134,-19 174,-147 133,-270l-117 -19z"/>
   <path class="fil3" d="M23786 6473c108,-56 45,-415 26,-445 -104,52 -46,410 -26,445z"/>
   <path class="fil17" d="M8464 9672c106,-77 35,2 137,-51 -123,-71 -188,-37 -183,105 83,75 77,14 137,106 -94,99 -30,-12 -148,51 76,51 91,50 184,0 53,-206 -50,-88 -127,-211z"/>
   <path class="fil8" d="M16771 14752c85,52 53,6 131,46l-142 235c86,18 155,30 223,-14 -55,-26 -33,-8 -75,-23l-64 -30c58,-83 134,-143 134,-232 -88,-4 -133,-14 -207,18z"/>
   <path class="fil0" d="M23643 9844c77,36 53,35 133,1 22,-95 31,-87 -12,-174 -148,-71 -165,51 -121,173z"/>
   <path class="fil0" d="M23973 9661c-39,95 -36,106 6,188l99 18c63,-92 54,-111 18,-212l-123 6z"/>
   <path class="fil0" d="M9804 14977c80,35 53,36 129,-6 25,-95 33,-97 -19,-179 -151,-36 -155,58 -110,185z"/>
   <path class="fil3" d="M7776 15042l-1 -297c-55,114 14,124 -53,216 -64,57 8,36 -99,30 -62,-121 11,-159 -55,-261 -48,79 -33,214 8,304 137,22 107,-27 200,8z"/>
   <path class="fil17" d="M25039 14754c-150,-74 -30,-4 -107,-126 -35,85 -6,63 -71,112 80,139 15,142 56,292l114 13c-32,-89 9,-15 -73,-81l-5 -168 86 -42z"/>
   <path class="fil3" d="M13816 14932c-76,-3 -19,-23 -138,-24 3,171 278,186 293,1 -131,-1 -57,27 -155,23z"/>
   <path class="fil0" d="M25920 14783c-34,94 -36,133 10,213 147,-10 140,-76 96,-208l-106 -5z"/>
   <path class="fil0" d="M7948 14782l-18 205 118 11c47,-98 40,-107 13,-209l-113 -7z"/>
   <path class="fil0" d="M9385 9661c-36,82 -39,121 8,201 186,-11 156,-270 -8,-201z"/>
   <path class="fil0" d="M21937 6471c4,73 -12,100 104,103 117,3 121,-24 129,-105 -79,-41 -156,-46 -233,2z"/>
   <path class="fil17" d="M8229 14587c-54,89 -53,371 0,461 51,-89 51,-371 0,-461z"/>
   <path class="fil17" d="M5010 15469c78,30 251,39 317,-17 -27,-75 -77,-52 -166,-54 -138,-4 -136,-30 -151,71z"/>
   <path class="fil3" d="M5173 15101c40,76 263,59 324,22 -31,-81 -31,-59 -150,-60 -98,-1 -116,-17 -174,38z"/>
   <path class="fil0" d="M8751 9690l135 -15c37,-84 35,-53 7,-136l-137 -29 -5 180z"/>
   <path class="fil0" d="M25289 14824l136 -13c36,-87 36,-56 2,-137l-133 -30 -5 180z"/>
   <path class="fil0" d="M21974 6224l107 31 64 -95c-80,-139 -221,-90 -171,64z"/>
   <path class="fil17" d="M9952 9918c116,-179 -94,-196 160,-287 -141,-122 41,13 -178,-28 -9,100 -20,238 18,315z"/>
   <path class="fil17" d="M16699 9936c78,-54 182,-363 202,-468 -78,35 -193,376 -202,468z"/>
   <path class="fil17" d="M26493 15045c49,-71 20,34 29,-107 13,-202 -5,-99 124,-185 -42,-32 45,-17 -51,-20 -104,-4 12,35 -124,3 -9,100 -24,236 22,309z"/>
   <path class="fil0" d="M23263 9852l180 -7 4 -92c-85,-56 -59,-41 -161,-34l-23 133z"/>
   <path class="fil17" d="M17797 9913c39,-89 0,-134 26,-203 25,-66 57,-41 119,-84 -91,-60 -36,-14 -116,-4 -74,9 21,-41 -64,-2 -1,51 -6,115 -5,165 3,120 -12,64 40,128z"/>
   <path class="fil4" d="M18845 6200l220 0c-10,-86 -11,-73 -74,-117 -105,0 -135,11 -146,117z"/>
   <path class="fil0" d="M17127 9662c96,11 73,20 148,-21l21 -81c-80,-56 -65,-44 -164,-33l-5 135z"/>
   <path class="fil0" d="M6167 6281c-114,-5 -190,-15 -171,121 134,43 172,8 171,-121z"/>
   <polygon class="fil0" points="17296,9839 17294,9726 17127,9727 17129,9862 "/>
   <path class="fil0" d="M12176 6199l210 3c-3,-122 -16,-113 -136,-121 -61,54 -59,39 -74,118z"/>
   <path class="fil0" d="M17421 6408c147,30 176,8 172,-127 -112,-5 -187,4 -172,127z"/>
   <path class="fil0" d="M15028 6083c-114,6 -121,0 -146,117l218 -3c-9,-79 -4,-58 -72,-114z"/>
   <path class="fil0" d="M11284 6406c137,32 172,6 172,-125 -109,-5 -188,3 -172,125z"/>
   <path class="fil0" d="M6866 6194l218 8c-12,-159 -191,-168 -218,-8z"/>
   <path class="fil17" d="M18520 9642l101 11c17,112 -11,180 36,261 49,-74 43,-208 -2,-295 -57,-23 -119,-55 -135,23z"/>
   <path class="fil0" d="M13779 6396c123,55 170,6 170,-115 -101,-3 -194,-11 -170,115z"/>
   <path class="fil0" d="M8015 4905c51,-60 46,-15 21,-119l-149 -13 4 142 124 -10z"/>
   <polygon class="fil0" points="23266,9661 23421,9659 23436,9555 23273,9520 "/>
   <path class="fil0" d="M4877 6198l207 2c-7,-179 -197,-146 -207,-2z"/>
   <path class="fil0" d="M9437 14679l3 118 143 -8 6 -115c-37,-10 -15,-19 -68,-19 -139,2 -31,-3 -84,24z"/>
   <path class="fil21" d="M13996 8388l-13 23 181 2c-27,-76 -90,-149 -157,-194l-11 169z"/>
   <path class="fil3" d="M6136 9566c94,50 195,69 212,-55 -86,-39 -188,-56 -212,55z"/>
   <path class="fil0" d="M6900 4901c48,-53 45,-10 21,-112l-151 -19 2 138 128 -7z"/>
   <path class="fil22" d="M21431 6372c-1,-119 -20,-244 26,-342 46,131 -20,251 57,336 -15,-109 25,-287 -54,-353 -92,56 -57,157 -57,282l28 77z"/>
   <path class="fil23" d="M13787 14065c47,72 81,39 158,50l35 -129 -59 25 -63 12 -19 -54 -56 9 4 87z"/>
   <path class="fil17" d="M9003 15064c74,-36 91,-142 127,-233 16,-41 40,-94 54,-135 37,-109 34,-43 -9,-105l-172 473z"/>
   <path class="fil0" d="M4088 6194l215 6c-7,-143 -178,-171 -215,-6z"/>
   <path class="fil0" d="M9451 14995l155 -18c7,-146 7,-72 -39,-111l-119 -5 3 134z"/>
   <polygon class="fil3" points="12750,5252 12876,5250 12889,5105 12762,5098 "/>
   <path class="fil0" d="M25204 6191l216 11c-20,-159 -179,-160 -216,-11z"/>
   <path class="fil3" d="M6134 10148c42,106 176,105 218,0 -81,-59 -141,-54 -218,0z"/>
   <path class="fil0" d="M9091 4893c35,-26 60,30 23,-101l-150 -21 2 132 125 -10z"/>
   <path class="fil17" d="M17090 14738c-61,29 -39,51 -39,146 -1,105 -23,118 41,154 27,-68 31,-234 -2,-300z"/>
   <path class="fil22" d="M7722 14961c67,-92 -2,-102 53,-216l1 297c41,-62 32,-94 30,-185 -3,-119 19,-88 -52,-136 -51,84 -32,134 -32,240z"/>
   <path class="fil3" d="M6186 9943c39,120 133,100 165,-6 -23,-15 -5,-35 -79,-32 -133,6 -43,6 -86,38z"/>
   <path class="fil3" d="M6187 9750c55,81 111,78 168,5 -23,-37 5,-58 -84,-59 -112,-1 -74,45 -84,54z"/>
   <path class="fil4" d="M16221 15043c4,18 -30,77 77,72 89,-4 71,-57 76,-75 -75,-29 -80,-31 -153,3z"/>
   <path class="fil22" d="M4123 5227c59,-73 32,-98 40,-209l206 -5c-61,-47 -140,-35 -231,-11l-15 225z"/>
   <path class="fil17" d="M5226 6034c63,-80 111,-80 42,-214 -75,58 -33,-22 -42,96 -5,71 -14,55 0,118z"/>
   <path class="fil3" d="M5340 15283c78,49 90,52 162,-5 -18,-31 9,-51 -77,-49 -118,2 -58,35 -85,54z"/>
   <path class="fil22" d="M4369 4859l-206 1c-8,-116 18,-140 -40,-217l15 227c91,25 169,36 231,-11z"/>
   <path class="fil0" d="M16233 14848c79,80 100,51 116,-42 -69,-47 -113,-65 -116,42z"/>
   <path class="fil3" d="M5005 15241c11,41 -26,78 77,78 119,-1 66,-39 75,-68l-152 -10z"/>
   <path class="fil4" d="M8379 14828c62,36 82,52 159,3 -57,-79 -106,-101 -159,-3z"/>
   <path class="fil4" d="M9666 9698c69,37 93,30 152,-3 -45,-99 -112,-89 -152,3z"/>
   <path class="fil4" d="M26202 14831c71,39 92,32 152,-3 -46,-100 -115,-82 -152,3z"/>
   <path class="fil4" d="M23524 14829c62,35 85,39 150,0 -45,-93 -110,-90 -150,0z"/>
   <path class="fil4" d="M9049 9831c73,88 115,43 130,-55 -67,0 -98,-18 -130,55z"/>
   <path class="fil4" d="M24299 14833c68,38 91,30 153,-1 -51,-87 -111,-94 -153,1z"/>
   <path class="fil4" d="M16614 15016c57,-99 23,-2 34,-104 -109,5 -64,-19 -121,52 44,60 -25,30 87,52z"/>
   <path class="fil4" d="M7720 9700c76,32 73,30 150,0 -87,-152 -101,-48 -150,0z"/>
   <path class="fil4" d="M18149 9779c-90,1 -71,-16 -126,44 57,99 112,60 126,-44z"/>
   <path class="fil4" d="M15933 14965c72,87 118,46 126,-54 -59,2 -100,-1 -126,54z"/>
   <path class="fil0" d="M25587 14964c72,83 115,46 127,-53 -62,2 -95,-12 -127,53z"/>
   <path class="fil0" d="M17557 14833c84,34 78,35 152,-5 -88,-124 -95,-40 -152,5z"/>
   <path class="fil24" d="M5509 15440c-65,-71 -69,-59 -124,-5 52,93 68,62 124,5z"/>
   <path class="fil3" d="M26233 6052c-7,97 -20,60 42,99 73,-49 46,10 45,-96l-87 -3z"/>
   <path class="fil3" d="M23832 5935c22,-101 32,-79 -65,-91 -16,96 -57,89 65,91z"/>
   <path class="fil17" d="M26300 6471l22 -92c-118,-14 -157,68 -22,92z"/>
   <path class="fil3" d="M8509 5902c64,70 0,32 83,32l6 -89c-65,1 -87,-9 -89,57z"/>
   <path class="fil5" d="M9091 4893l-125 10 -2 -132c-38,74 -31,62 -10,155 115,16 85,30 137,-33z"/>
   <path class="fil22" d="M6900 4901l-128 7 -2 -138c-41,72 -34,56 -12,156 101,21 80,33 142,-25z"/>
   <path class="fil5" d="M8934 5215c62,-70 3,-33 59,-122l103 27c-47,-61 26,-53 -124,-48 -46,69 -28,53 -38,143z"/>
   <path class="fil25" d="M8015 4905l-124 10 -4 -142c-41,70 -33,54 -15,151 98,31 75,40 143,-19z"/>
   <path class="fil22" d="M7854 5227c53,-65 33,-18 38,-131 86,-8 87,11 135,-39l-155 18 -18 152z"/>
   <path class="fil3" d="M5007 15096c37,71 63,84 114,3 -68,-53 -51,-44 -114,-3z"/>
   <path class="fil3" d="M4225 10593c-25,-114 -125,-80 -69,37l69 -37z"/>
   <path class="fil22" d="M9451 14995l-3 -134 119 5c-59,-53 -43,-41 -131,-19 -21,95 -25,79 15,148z"/>
   <path class="fil5" d="M6740 5221c52,-59 31,-17 40,-120 9,0 71,-6 73,-6 57,-16 17,-1 56,-26l-151 11 -18 141z"/>
   <path class="fil4" d="M10643 4958c35,30 -4,75 99,5l-45 -71 -54 66z"/>
   <path class="fil5" d="M3468 6050c-55,-38 18,-23 -100,-34 -8,-106 11,-62 -35,-130l10 151 125 13z"/>
   <path class="fil4" d="M4921 4987l-39 -99c-76,113 -85,95 39,99z"/>
   <polygon class="fil4" points="7314,4977 7409,4992 7376,4889 "/>
   <polygon class="fil26" points="13839,13969 13858,14023 13921,14011 13898,13934 "/>
   <path class="fil26" d="M14151 13986c66,35 -4,51 84,-3 -74,-112 -62,-13 -84,3z"/>
   <path class="fil3" d="M5241 15312c60,-38 64,-13 24,-78 -73,35 -69,-6 -24,78z"/>
   <path class="fil8" d="M17092 14671c35,-70 43,-70 -30,-60 -54,54 2,43 30,60z"/>
   <path class="fil21" d="M7799 6095c50,-45 29,22 31,-71 -119,1 -39,0 -75,33l52 -8 -8 46z"/>
   <path class="fil25" d="M7232 6091l-6 -42 58 -4c-34,-24 25,-32 -85,-21l33 67z"/>
   <polygon class="fil22" points="24796,6202 24766,6143 24742,6187 "/>
   <path class="fil22" d="M21728 6470l-38 -62 -26 36c34,12 26,-1 64,26z"/>
   <polygon class="fil22" points="8090,9763 8043,9782 8061,9828 "/>
  </g>
 </g>
</svg>
